<svg viewBox="54.19999999999999 39.33510638297875 162.6 196.67553191489364" fill="none" xmlns="http://www.w3.org/2000/svg" xmlns:xlink="http://www.w3.org/1999/xlink" overflow="visible" width="162.6px" height="196.67553191489364px"><g id="Master/Female Character/Avatar"><g id="Avatars" opacity="0.5" transform="translate(17 15) scale(1.4023668639053255 1.4047619047619047)"><g id="Avatars/Avatar and Backdrop 3"><g id="Group 65"><g id="Group"><path id="Fill 12" fill-rule="evenodd" clip-rule="evenodd" d="M32.4706 97C31.8915 97 31.337 96.7386 31.0801 96.2933C31.0393 96.2223 30.0545 94.5054 29.0514 91.522C28.8353 90.8765 29.3205 90.2134 30.134 90.0423C30.9659 89.8665 31.7916 90.2553 32.0057 90.8991C32.9375 93.6664 33.8529 95.2719 33.8631 95.2864C34.2118 95.8947 33.8713 96.6144 33.1047 96.8903C32.8987 96.9661 32.6826 97 32.4706 97" fill="#CDEAFA"/><path id="Fill 14" fill-rule="evenodd" clip-rule="evenodd" d="M109.931 20.2369C109.898 20.2369 109.864 20.2356 109.83 20.2329C107.088 19.9907 104.297 19.9359 101.219 20.0951C100.63 20.1272 100.123 19.7031 100.09 19.1492C100.058 18.594 100.509 18.1218 101.099 18.091C104.172 17.9318 107.163 17.9827 110.029 18.2342C110.617 18.2863 111.05 18.776 110.995 19.3272C110.943 19.8476 110.477 20.2369 109.931 20.2369M83.9485 23.136C83.4947 23.136 83.0738 22.8631 82.9282 22.4363C82.7499 21.9079 83.0609 21.3433 83.6246 21.1761C86.4985 20.3199 89.401 19.6282 92.2507 19.1185C92.83 19.0101 93.3908 19.3713 93.5021 19.9158C93.6134 20.4603 93.2339 20.9861 92.6531 21.0891C89.8862 21.5841 87.0665 22.257 84.2724 23.0892C84.164 23.1213 84.0555 23.136 83.9485 23.136M67.8808 29.7034C67.5055 29.7034 67.1402 29.5175 66.9433 29.187C66.6579 28.7027 66.8448 28.0913 67.3614 27.8224C69.9984 26.4525 72.674 25.207 75.3125 24.1233C75.8504 23.9012 76.484 24.1313 76.7223 24.6397C76.9606 25.1468 76.7138 25.7381 76.1715 25.9602C73.593 27.0197 70.9773 28.2358 68.4002 29.5777C68.2347 29.6633 68.0563 29.7034 67.8808 29.7034M53.28 38.8181C52.9646 38.8181 52.6521 38.6883 52.4423 38.4381C52.0742 38.0033 52.1512 37.3732 52.6136 37.0294C53.641 36.2642 54.7098 35.5029 55.8214 34.7471C57.1228 33.8601 58.4599 32.9865 59.7927 32.1517C60.285 31.8453 60.95 31.9697 61.2767 32.4299C61.605 32.8901 61.4722 33.5136 60.9799 33.8213C59.67 34.6414 58.3572 35.4976 57.0786 36.3698C55.9912 37.1097 54.9481 37.8535 53.9464 38.6C53.748 38.7472 53.514 38.8181 53.28 38.8181M40.8753 50.4091C40.647 50.4091 40.4172 50.3409 40.2217 50.199C39.7537 49.8592 39.6695 49.2291 40.0319 48.7916C41.7928 46.6591 43.7849 44.5587 45.9539 42.548C46.3763 42.1587 47.0541 42.1613 47.4679 42.556C47.8832 42.9493 47.8803 43.5848 47.4593 43.9741C45.3574 45.9233 43.4281 47.9582 41.7229 50.0198C41.5131 50.2753 41.1964 50.4091 40.8753 50.4091M32.5047 64.7881C32.3905 64.7881 32.2749 64.7707 32.1622 64.7346C31.6014 64.558 31.3017 63.9881 31.4915 63.4637C32.4304 60.8589 33.6491 58.2755 35.1103 55.7818C35.3957 55.2962 36.0464 55.1169 36.5644 55.3858C37.0824 55.6534 37.2707 56.2634 36.9868 56.7491C35.5841 59.1385 34.4182 61.6148 33.5178 64.1058C33.368 64.5246 32.9513 64.7881 32.5047 64.7881M30.143 81C29.5794 81 29.107 80.5866 29.0756 80.0542C29.0271 79.2528 29 78.4207 29 77.5618C29 75.5885 29.1456 73.5991 29.4309 71.6472C29.5123 71.0987 30.0403 70.704 30.6382 70.7896C31.2232 70.8659 31.6328 71.3716 31.5514 71.9215C31.2789 73.781 31.1405 75.6794 31.1405 77.5618C31.1405 78.3819 31.1676 79.1752 31.2132 79.9391C31.2461 80.493 30.7951 80.9679 30.2058 80.9987C30.1844 81 30.1644 81 30.143 81" fill="#CDEAFA"/><path id="Fill 16" fill-rule="evenodd" clip-rule="evenodd" d="M123.785 25C123.61 25 123.43 24.9539 123.262 24.8516C123.246 24.8436 121.7 23.9354 118.886 22.953C118.24 22.7284 117.864 21.8984 118.046 21.1004C118.225 20.3025 118.884 19.8253 119.543 20.0599C122.585 21.1185 124.245 22.1009 124.313 22.141C124.917 22.5019 125.169 23.3981 124.881 24.1459C124.672 24.6852 124.237 25 123.785 25" fill="#CDEAFA"/><path id="Fill 18" fill-rule="evenodd" clip-rule="evenodd" d="M41.6231 102C41.1419 102 40.6735 101.772 40.4219 101.367C40.3778 101.296 39.3328 99.6091 38.0912 96.6828C37.8194 96.0451 38.1757 95.3279 38.8865 95.0834C39.5973 94.8356 40.3944 95.1594 40.6644 95.7989C41.827 98.5384 42.8151 100.139 42.8243 100.156C43.1953 100.753 42.9602 101.508 42.2953 101.841C42.0822 101.949 41.8508 102 41.6231 102" fill="#CDEAFA"/><path id="Fill 20" fill-rule="evenodd" clip-rule="evenodd" d="M116.915 27.8197C116.854 27.8197 116.793 27.8156 116.732 27.8046C113.896 27.3509 110.949 27.1 107.974 27.0562C107.374 27.048 106.895 26.5805 106.904 26.013C106.914 25.4496 107.398 25 107.991 25H108.007C111.091 25.0466 114.151 25.3071 117.094 25.7786C117.686 25.8718 118.086 26.4037 117.984 26.963C117.896 27.4647 117.435 27.8197 116.915 27.8197M90.2368 29.1041C89.7528 29.1041 89.3093 28.7957 89.1846 28.331C89.0368 27.7813 89.3875 27.2207 89.9687 27.0809C92.9514 26.3626 95.9588 25.8225 98.9082 25.4757C99.5256 25.4085 100.049 25.806 100.121 26.368C100.195 26.9328 99.7734 27.4469 99.1778 27.5154C96.3168 27.8512 93.3993 28.3749 90.5064 29.0726C90.4166 29.0945 90.3253 29.1041 90.2368 29.1041M73.4855 35.0712C73.0855 35.0712 72.7014 34.8628 72.5101 34.5009C72.2434 33.9924 72.4623 33.3755 73 33.1219C75.7595 31.8238 78.5538 30.6641 81.309 29.6771C81.8612 29.4742 82.4974 29.7416 82.709 30.2748C82.9221 30.8053 82.6409 31.3988 82.0786 31.6003C79.3915 32.5626 76.6639 33.6949 73.9681 34.9643C73.813 35.0369 73.6478 35.0712 73.4855 35.0712M58.2139 43.9196C57.8849 43.9196 57.5573 43.7784 57.3428 43.5097C56.982 43.056 57.0791 42.4117 57.5588 42.0704C58.7313 41.2356 59.9835 40.3981 61.2763 39.5783C62.5561 38.7709 63.8242 38.006 65.0779 37.2795C65.5924 36.9793 66.2606 37.1356 66.5736 37.6195C66.8852 38.1047 66.7258 38.738 66.2142 39.0341C64.9823 39.7456 63.7402 40.4981 62.4836 41.2891C61.2241 42.0855 60.0067 42.9011 58.8661 43.714C58.6704 43.8524 58.44 43.9196 58.2139 43.9196M45.5569 55.8454C45.3351 55.8454 45.1119 55.781 44.9192 55.6508C44.4337 55.3163 44.325 54.6734 44.6771 54.2142C46.4076 51.9593 48.4164 49.7605 50.6498 47.6769C51.0759 47.2808 51.7673 47.2808 52.1876 47.6879C52.6093 48.0923 52.6035 48.7434 52.176 49.1423C50.0281 51.1464 48.0976 53.2588 46.4381 55.4219C46.225 55.6988 45.8931 55.8454 45.5569 55.8454M38.1305 71.1517C38.0508 71.1517 37.9696 71.1434 37.8899 71.127C37.3029 71.0022 36.9363 70.4526 37.0682 69.8974C37.7377 67.0859 38.7349 64.3197 40.0277 61.6781C40.2813 61.1614 40.9277 60.942 41.4712 61.1778C42.0162 61.4163 42.2524 62.0277 42.0017 62.5431C40.7712 65.053 39.8262 67.6795 39.1885 70.3497C39.0755 70.8282 38.6262 71.1517 38.1305 71.1517M37.8508 88C37.3363 88 36.8783 87.6518 36.7826 87.157C36.2638 84.4593 36 81.7382 36 79.0693L36.0043 78.5183C36.013 77.9549 36.4986 77.5053 37.0913 77.5053H37.1073C37.7088 77.5135 38.187 77.9809 38.1783 78.5484L38.174 79.0693C38.174 81.6149 38.4262 84.2125 38.9218 86.7882C39.0305 87.3475 38.6378 87.8807 38.0479 87.9849C37.9812 87.9945 37.916 88 37.8508 88" fill="#CDEAFA"/><path id="Fill 22" fill-rule="evenodd" clip-rule="evenodd" d="M128.762 34C128.554 34 128.345 33.9406 128.152 33.8163C128.137 33.807 126.608 32.8403 123.816 31.6992C123.172 31.4358 122.841 30.6379 123.075 29.9162C123.306 29.1925 124.019 28.8233 124.66 29.0831C127.673 30.3151 129.31 31.356 129.377 31.4005C129.969 31.7809 130.175 32.6288 129.837 33.2968C129.61 33.7458 129.192 34 128.762 34" fill="#CDEAFA"/><path id="Fill 24" fill-rule="evenodd" clip-rule="evenodd" d="M48.6264 104C48.1411 104 47.6722 103.767 47.4231 103.355C47.3792 103.285 46.3572 101.593 45.0952 98.694C44.8186 98.0555 45.1648 97.336 45.8718 97.0846C46.5751 96.8382 47.3737 97.1475 47.6539 97.7859C48.8426 100.523 49.8206 102.148 49.8316 102.164C50.1943 102.764 49.9525 103.519 49.2858 103.846C49.077 103.952 48.8499 104 48.6264 104" fill="#CDEAFA"/><path id="Fill 26" fill-rule="evenodd" clip-rule="evenodd" d="M94.6597 37.1586C94.1563 37.1586 93.7087 36.8153 93.6086 36.3211C93.4956 35.7564 93.8732 35.2124 94.4538 35.1016C97.334 34.5563 100.207 34.1867 102.997 34.0012C103.542 33.9749 104.1 34.3915 104.14 34.966C104.18 35.5377 103.735 36.0332 103.143 36.072C100.443 36.2519 97.6586 36.6104 94.8685 37.1392C94.7984 37.1517 94.7284 37.1586 94.6597 37.1586M119.929 37.3884C119.842 37.3884 119.756 37.3787 119.669 37.3579C117.05 36.7267 114.293 36.3018 111.47 36.0914C110.88 36.0471 110.438 35.5487 110.482 34.9771C110.528 34.404 111.028 33.9956 111.635 34.0206C114.576 34.2406 117.452 34.685 120.187 35.3425C120.762 35.4809 121.112 36.0443 120.967 36.6007C120.847 37.0728 120.41 37.3884 119.929 37.3884M78.4555 41.9674C78.0336 41.9674 77.6346 41.7251 77.4644 41.3251C77.2371 40.7949 77.4988 40.1873 78.0465 39.9686C80.7522 38.8889 83.4693 37.9379 86.1193 37.1447C86.6913 36.9814 87.2877 37.2832 87.4621 37.8299C87.6366 38.3781 87.3191 38.9595 86.7542 39.1297C84.1644 39.9035 81.5101 40.8323 78.8645 41.8885C78.7301 41.9424 78.5928 41.9674 78.4555 41.9674M63.3867 49.4768C63.0392 49.4768 62.696 49.3134 62.4915 49.0117C62.1626 48.5341 62.2984 47.8904 62.7932 47.5735C64.568 46.4356 66.4843 45.3421 68.4864 44.3205C69.0813 44.0174 69.6734 43.7198 70.2625 43.4333C70.7902 43.1744 71.4366 43.382 71.7026 43.8942C71.9701 44.405 71.7555 45.0306 71.2264 45.2881C70.6515 45.5691 70.0709 45.8584 69.4874 46.1574C67.5468 47.1471 65.692 48.2047 63.9773 49.3037C63.7943 49.4214 63.5884 49.4768 63.3867 49.4768M51.0651 60.6474C50.8478 60.6474 50.629 60.5837 50.4388 60.4509C49.9583 60.1159 49.8496 59.4667 50.1957 59.0016C51.8388 56.7951 53.7809 54.6814 55.9703 52.7228C56.4022 52.3352 57.0844 52.3573 57.4862 52.7809C57.8881 53.2017 57.8623 53.8578 57.4261 54.2482C55.3425 56.1113 53.4963 58.1212 51.9361 60.2155C51.7273 60.4965 51.3984 60.6474 51.0651 60.6474M44.5854 75.6731C44.5268 75.6731 44.4668 75.669 44.4067 75.6579C43.8232 75.5638 43.4285 75.0281 43.5272 74.4633C44.012 71.6575 44.8214 68.9292 45.9326 66.3559C46.1614 65.8244 46.7906 65.5766 47.3355 65.7967C47.8818 66.0196 48.1406 66.6272 47.9132 67.156C46.865 69.5839 46.1013 72.1572 45.6423 74.8066C45.555 75.3132 45.1003 75.6731 44.5854 75.6731M45.1718 92C44.6784 92 44.2336 91.6692 44.125 91.1833C43.4914 88.3858 43.1139 85.5869 43.0009 82.8669C42.9766 82.2925 43.4371 81.8108 44.0291 81.7872C44.6484 81.7595 45.1203 82.2094 45.1432 82.7825C45.2519 85.382 45.6137 88.0591 46.22 90.7404C46.3473 91.2996 45.9812 91.8533 45.402 91.9765C45.3248 91.9917 45.2476 92 45.1718 92" fill="#CDEAFA"/><path id="Fill 28" fill-rule="evenodd" clip-rule="evenodd" d="M132.714 42C132.442 42 132.168 41.9167 131.935 41.7451C131.92 41.7335 130.478 40.6706 127.724 39.3729C127.087 39.0713 126.82 38.325 127.128 37.7036C127.436 37.0839 128.204 36.8257 128.844 37.1239C131.86 38.5449 133.433 39.7127 133.498 39.761C134.06 40.1825 134.166 40.9655 133.735 41.5119C133.481 41.8317 133.101 42 132.714 42" fill="#CDEAFA"/><path id="Fill 30" fill-rule="evenodd" clip-rule="evenodd" d="M57.677 104C57.2305 104 56.7928 103.784 56.5439 103.394C56.4998 103.324 55.4284 101.635 54.11 98.7551C53.8187 98.119 54.1258 97.3791 54.7966 97.1045C55.4743 96.8266 56.2492 97.1229 56.5368 97.7557C57.7794 100.466 58.8014 102.08 58.8102 102.095C59.1861 102.689 58.9867 103.461 58.3619 103.819C58.1483 103.941 57.9118 104 57.677 104" fill="#CDEAFA"/><path id="Fill 32" fill-rule="evenodd" clip-rule="evenodd" d="M95.021 44.3618C94.528 44.3618 94.0841 44.0402 93.9702 43.562C93.8347 43.0081 94.1994 42.4543 94.7803 42.3278C97.8447 41.6544 100.913 41.2077 103.9 41.0002C104.485 40.9892 105.013 41.385 105.057 41.9526C105.101 42.5202 104.654 43.015 104.058 43.0562C101.18 43.2555 98.2237 43.687 95.2646 44.3343C95.1824 44.3536 95.1017 44.3618 95.021 44.3618M121.919 44.8387C121.816 44.8387 121.713 44.825 121.607 44.7934C118.828 43.9962 115.905 43.4465 112.926 43.1593C112.332 43.1016 111.898 42.5972 111.959 42.031C112.019 41.4647 112.568 41.0428 113.142 41.1088C116.26 41.4098 119.317 41.9856 122.23 42.8212C122.801 42.9847 123.127 43.5592 122.954 44.1048C122.812 44.5515 122.383 44.8387 121.919 44.8387M78.0473 50.3236C77.6494 50.3236 77.2704 50.1161 77.0801 49.756C76.8106 49.2475 77.0268 48.6277 77.5601 48.3721C80.365 47.0266 83.1944 45.8461 85.9705 44.8593C86.5269 44.6642 87.151 44.9335 87.3615 45.4668C87.569 45.9986 87.2851 46.5937 86.7244 46.793C84.0232 47.7523 81.2659 48.904 78.5316 50.2137C78.3745 50.2879 78.2101 50.3236 78.0473 50.3236M63.2053 60.1198C62.9286 60.1198 62.6547 60.0209 62.4429 59.8202C62.0191 59.4189 62.0176 58.7661 62.4385 58.3634C64.5127 56.3693 66.9198 54.4837 69.5907 52.7576C70.0851 52.4373 70.7567 52.5624 71.0926 53.0338C71.4284 53.5038 71.2987 54.1456 70.8043 54.4658C68.2473 56.1178 65.9483 57.9168 63.9722 59.8147C63.7617 60.0181 63.4821 60.1198 63.2053 60.1198M54.1722 74.8718C54.0814 74.8718 53.9891 74.8608 53.8998 74.8388C53.3203 74.6945 52.9744 74.1324 53.1257 73.5827C53.9099 70.7076 55.1177 67.9425 56.7162 65.3642C57.0204 64.8763 57.6805 64.7101 58.1965 65.0028C58.7111 65.2914 58.8812 65.9236 58.5771 66.4142C57.0823 68.8262 55.9523 71.4126 55.2172 74.1008C55.0904 74.5653 54.6522 74.8718 54.1722 74.8718M54.1535 92C53.6619 92 53.2151 91.677 53.1012 91.1974C52.3906 88.2151 52.0202 85.2589 52 82.4086C51.9957 81.8396 52.4771 81.3751 53.0739 81.371H53.0811C53.6749 81.371 54.1578 81.8286 54.1621 82.3949C54.1808 85.0968 54.5325 87.9045 55.21 90.7411C55.3426 91.295 54.9779 91.8488 54.3942 91.9753C54.3149 91.9918 54.2342 92 54.1535 92" fill="#CDEAFA"/><path id="Fill 34" fill-rule="evenodd" clip-rule="evenodd" d="M132.686 51C132.389 51 132.088 50.9077 131.843 50.7216C131.829 50.7105 130.382 49.6144 127.67 48.2319C127.037 47.909 126.814 47.1819 127.168 46.606C127.523 46.0317 128.323 45.8345 128.954 46.1495C131.906 47.6544 133.469 48.846 133.533 48.8969C134.088 49.32 134.158 50.0725 133.691 50.5752C133.432 50.8568 133.061 51 132.686 51" fill="#CDEAFA"/></g><g id="Group Copy"><path id="Fill 12_2" fill-rule="evenodd" clip-rule="evenodd" d="M137.529 69C138.108 69 138.663 69.2614 138.92 69.7067C138.961 69.7777 139.945 71.4946 140.949 74.478C141.165 75.1235 140.679 75.7866 139.866 75.9577C139.034 76.1335 138.208 75.7447 137.994 75.1009C137.063 72.3336 136.147 70.7281 136.137 70.7136C135.788 70.1053 136.129 69.3856 136.895 69.1097C137.101 69.0339 137.317 69 137.529 69" fill="#CDEAFA"/><path id="Fill 14_2" fill-rule="evenodd" clip-rule="evenodd" d="M61.0561 147.692C61.0885 147.692 61.1223 147.693 61.1562 147.696C63.8639 147.946 66.6211 148.003 69.6615 147.838C70.2437 147.805 70.7441 148.243 70.7765 148.814C70.8089 149.387 70.3635 149.874 69.7799 149.906C66.7451 150.07 63.7906 150.018 60.9588 149.758C60.3781 149.705 59.951 149.199 60.0045 148.631C60.0567 148.094 60.5162 147.692 61.0561 147.692M86.7216 144.701C87.1698 144.701 87.5856 144.983 87.7294 145.423C87.9056 145.968 87.5983 146.551 87.0415 146.723C84.2027 147.607 81.3356 148.32 78.5207 148.846C77.9484 148.958 77.3944 148.585 77.2845 148.023C77.1745 147.462 77.5495 146.919 78.1232 146.813C80.8563 146.302 83.6417 145.608 86.4016 144.749C86.5087 144.716 86.6159 144.701 86.7216 144.701M102.593 137.925C102.964 137.925 103.325 138.117 103.519 138.458C103.801 138.958 103.617 139.588 103.106 139.866C100.502 141.279 97.8586 142.564 95.2523 143.682C94.7209 143.911 94.0951 143.674 93.8597 143.149C93.6243 142.626 93.8681 142.016 94.4038 141.787C96.9508 140.694 99.5346 139.439 102.08 138.055C102.244 137.966 102.42 137.925 102.593 137.925M117.016 128.521C117.328 128.521 117.636 128.655 117.844 128.913C118.207 129.362 118.131 130.012 117.674 130.366C116.659 131.156 115.604 131.941 114.506 132.721C113.22 133.636 111.899 134.538 110.583 135.399C110.097 135.715 109.44 135.587 109.117 135.112C108.793 134.637 108.924 133.994 109.41 133.676C110.704 132.83 112.001 131.947 113.264 131.047C114.338 130.284 115.368 129.516 116.358 128.746C116.554 128.594 116.785 128.521 117.016 128.521M129.27 116.562C129.495 116.562 129.722 116.632 129.915 116.779C130.377 117.129 130.461 117.779 130.103 118.231C128.363 120.431 126.395 122.598 124.253 124.673C123.836 125.074 123.166 125.072 122.757 124.664C122.347 124.259 122.35 123.603 122.766 123.201C124.842 121.19 126.748 119.091 128.432 116.964C128.639 116.7 128.952 116.562 129.27 116.562M137.538 101.727C137.651 101.727 137.765 101.744 137.876 101.782C138.43 101.964 138.726 102.552 138.539 103.093C137.611 105.78 136.408 108.446 134.964 111.019C134.682 111.52 134.04 111.705 133.528 111.427C133.016 111.151 132.83 110.522 133.111 110.021C134.496 107.556 135.648 105.001 136.537 102.43C136.685 101.998 137.097 101.727 137.538 101.727M139.871 85C140.428 85 140.894 85.4265 140.925 85.9759C140.973 86.8027 141 87.6612 141 88.5474C141 90.5833 140.856 92.6358 140.574 94.6497C140.494 95.2156 139.972 95.6228 139.382 95.5345C138.804 95.4558 138.399 94.9341 138.48 94.3668C138.749 92.4481 138.886 90.4895 138.886 88.5474C138.886 87.7013 138.859 86.8827 138.814 86.0946C138.781 85.5231 139.227 85.0331 139.809 85.0014C139.83 85 139.85 85 139.871 85" fill="#CDEAFA"/><path id="Fill 16_2" fill-rule="evenodd" clip-rule="evenodd" d="M47.2151 143C47.3899 143 47.5697 143.046 47.738 143.148C47.7542 143.156 49.3004 144.065 52.1141 145.047C52.7601 145.272 53.1357 146.102 52.9544 146.9C52.7747 147.698 52.1158 148.175 51.4568 147.94C48.4148 146.882 46.7553 145.899 46.6873 145.859C46.0834 145.498 45.8309 144.602 46.119 143.854C46.3279 143.315 46.7634 143 47.2151 143" fill="#CDEAFA"/><path id="Fill 18_2" fill-rule="evenodd" clip-rule="evenodd" d="M128.377 64C128.858 64 129.326 64.228 129.578 64.6328C129.622 64.7039 130.667 66.3909 131.909 69.3172C132.181 69.9549 131.824 70.6721 131.114 70.9166C130.403 71.1644 129.606 70.8406 129.336 70.2011C128.173 67.4616 127.185 65.8605 127.176 65.844C126.805 65.2475 127.04 64.4924 127.705 64.1586C127.918 64.0512 128.149 64 128.377 64" fill="#CDEAFA"/><path id="Fill 20_2" fill-rule="evenodd" clip-rule="evenodd" d="M54.0721 140.091C54.1322 140.091 54.1924 140.095 54.2525 140.106C57.0542 140.574 59.9648 140.833 62.904 140.879C63.4967 140.887 63.9691 141.369 63.9605 141.955C63.9505 142.536 63.4724 143 62.8868 143H62.8711C59.8245 142.952 56.8023 142.683 53.8946 142.197C53.3105 142.101 52.9153 141.552 53.0155 140.975C53.1029 140.457 53.5581 140.091 54.0721 140.091M80.4246 138.766C80.9028 138.766 81.3408 139.084 81.464 139.563C81.61 140.13 81.2635 140.709 80.6894 140.853C77.7431 141.594 74.7724 142.151 71.859 142.509C71.2491 142.579 70.7323 142.168 70.6607 141.589C70.5877 141.006 71.0043 140.475 71.5927 140.405C74.4188 140.058 77.3007 139.518 80.1583 138.798C80.2471 138.775 80.3373 138.766 80.4246 138.766M96.9717 132.609C97.3668 132.609 97.7462 132.824 97.9352 133.197C98.1986 133.722 97.9824 134.359 97.4513 134.62C94.7254 135.96 91.9652 137.156 89.2436 138.174C88.6981 138.384 88.0696 138.108 87.8606 137.558C87.6501 137.01 87.9279 136.398 88.4834 136.19C91.1377 135.197 93.832 134.029 96.4949 132.719C96.6481 132.644 96.8113 132.609 96.9717 132.609M112.057 123.48C112.382 123.48 112.706 123.625 112.917 123.903C113.274 124.371 113.178 125.036 112.704 125.388C111.546 126.249 110.309 127.113 109.032 127.959C107.768 128.792 106.515 129.581 105.277 130.331C104.768 130.64 104.108 130.479 103.799 129.98C103.491 129.479 103.649 128.826 104.154 128.52C105.371 127.786 106.598 127.01 107.839 126.194C109.083 125.372 110.286 124.531 111.413 123.692C111.606 123.549 111.834 123.48 112.057 123.48M124.56 111.175C124.779 111.175 124.999 111.242 125.19 111.376C125.669 111.721 125.777 112.385 125.429 112.858C123.719 115.185 121.735 117.453 119.529 119.603C119.108 120.012 118.425 120.012 118.01 119.592C117.593 119.175 117.599 118.503 118.021 118.091C120.143 116.024 122.05 113.844 123.689 111.612C123.9 111.327 124.228 111.175 124.56 111.175M131.895 95.3832C131.974 95.3832 132.054 95.3917 132.133 95.4087C132.713 95.5374 133.075 96.1045 132.945 96.6773C132.283 99.578 131.298 102.432 130.021 105.157C129.771 105.691 129.132 105.917 128.596 105.674C128.057 105.428 127.824 104.797 128.072 104.265C129.287 101.675 130.22 98.9656 130.85 96.2106C130.962 95.717 131.406 95.3832 131.895 95.3832M132.172 78C132.68 78 133.132 78.3592 133.227 78.8698C133.739 81.6531 134 84.4605 134 87.2142L133.996 87.7827C133.987 88.364 133.508 88.8279 132.922 88.8279H132.906C132.312 88.8194 131.84 88.3371 131.848 87.7516L131.853 87.2142C131.853 84.5878 131.603 81.9077 131.114 79.2502C131.006 78.6732 131.394 78.123 131.977 78.0156C132.043 78.0057 132.107 78 132.172 78" fill="#CDEAFA"/><path id="Fill 22_2" fill-rule="evenodd" clip-rule="evenodd" d="M42.238 134C42.4458 134 42.6553 134.059 42.8482 134.184C42.8631 134.193 44.392 135.16 47.1843 136.301C47.8275 136.564 48.1591 137.362 47.9249 138.084C47.6939 138.807 46.9814 139.177 46.3399 138.917C43.3265 137.685 41.6904 136.644 41.6228 136.599C41.0307 136.219 40.8245 135.371 41.1626 134.703C41.3902 134.254 41.8075 134 42.238 134" fill="#CDEAFA"/><path id="Fill 24_2" fill-rule="evenodd" clip-rule="evenodd" d="M121.374 62C121.859 62 122.328 62.2332 122.577 62.6451C122.621 62.7145 123.643 64.4066 124.905 67.306C125.181 67.9445 124.835 68.664 124.128 68.9154C123.425 69.1618 122.626 68.8525 122.346 68.2141C121.157 65.4767 120.179 63.8525 120.168 63.8359C119.806 63.2355 120.048 62.4813 120.714 62.1538C120.923 62.048 121.15 62 121.374 62" fill="#CDEAFA"/><path id="Fill 26_2" fill-rule="evenodd" clip-rule="evenodd" d="M77.3403 130.841C77.8437 130.841 78.2913 131.185 78.3914 131.679C78.5044 132.244 78.1268 132.788 77.5462 132.898C74.666 133.444 71.793 133.813 69.0029 133.999C68.458 134.025 67.9003 133.608 67.8603 133.034C67.8202 132.462 68.265 131.967 68.857 131.928C71.557 131.748 74.3414 131.39 77.1315 130.861C77.2016 130.848 77.2716 130.841 77.3403 130.841M52.0708 130.612C52.158 130.612 52.2438 130.621 52.331 130.642C54.9495 131.273 57.7067 131.698 60.5297 131.909C61.1203 131.953 61.5622 132.451 61.5179 133.023C61.4721 133.596 60.9716 134.004 60.3652 133.979C57.4236 133.759 54.5477 133.315 51.8133 132.658C51.2385 132.519 50.8881 131.956 51.0325 131.399C51.1526 130.927 51.5903 130.612 52.0708 130.612M93.5445 126.033C93.9664 126.033 94.3654 126.275 94.5356 126.675C94.7629 127.205 94.5012 127.813 93.9535 128.031C91.2478 129.111 88.5307 130.062 85.8807 130.855C85.3087 131.019 84.7123 130.717 84.5379 130.17C84.3634 129.622 84.6809 129.041 85.2458 128.87C87.8356 128.097 90.4899 127.168 93.1355 126.112C93.2699 126.058 93.4072 126.033 93.5445 126.033M108.613 118.523C108.961 118.523 109.304 118.687 109.509 118.988C109.837 119.466 109.702 120.11 109.207 120.427C107.432 121.564 105.516 122.658 103.514 123.679C102.919 123.983 102.327 124.28 101.737 124.567C101.21 124.826 100.563 124.618 100.297 124.106C100.03 123.595 100.244 122.969 100.774 122.712C101.348 122.431 101.929 122.142 102.513 121.843C104.453 120.853 106.308 119.795 108.023 118.696C108.206 118.579 108.412 118.523 108.613 118.523M120.935 107.353C121.152 107.353 121.371 107.416 121.561 107.549C122.042 107.884 122.15 108.533 121.804 108.998C120.161 111.205 118.219 113.319 116.03 115.277C115.598 115.665 114.916 115.643 114.514 115.219C114.112 114.798 114.138 114.142 114.574 113.752C116.657 111.889 118.504 109.879 120.064 107.784C120.273 107.503 120.602 107.353 120.935 107.353M127.415 92.3269C127.473 92.3269 127.533 92.331 127.593 92.3421C128.177 92.4362 128.571 92.9719 128.473 93.5367C127.988 96.3425 127.179 99.0708 126.067 101.644C125.839 102.176 125.209 102.423 124.665 102.203C124.118 101.98 123.859 101.373 124.087 100.844C125.135 98.4161 125.899 95.8428 126.358 93.1934C126.445 92.6868 126.9 92.3269 127.415 92.3269M126.828 76C127.322 76 127.766 76.3308 127.875 76.8167C128.509 79.6142 128.886 82.4131 128.999 85.1331C129.023 85.7075 128.563 86.1892 127.971 86.2128C127.352 86.2405 126.88 85.7906 126.857 85.2175C126.748 82.618 126.386 79.9409 125.78 77.2596C125.653 76.7004 126.019 76.1467 126.598 76.0235C126.675 76.0083 126.752 76 126.828 76" fill="#CDEAFA"/><path id="Fill 28_2" fill-rule="evenodd" clip-rule="evenodd" d="M38.2859 126C38.5582 126 38.8322 126.083 39.0651 126.255C39.0805 126.267 40.5224 127.329 43.276 128.627C43.913 128.929 44.1801 129.675 43.8719 130.296C43.5637 130.916 42.7965 131.174 42.156 130.876C39.1404 129.455 37.5667 128.287 37.5016 128.239C36.94 127.818 36.8338 127.035 37.2653 126.488C37.5188 126.168 37.8989 126 38.2859 126" fill="#CDEAFA"/><path id="Fill 30_2" fill-rule="evenodd" clip-rule="evenodd" d="M112.323 62C112.77 62 113.207 62.216 113.456 62.606C113.5 62.6763 114.572 64.3655 115.89 67.2449C116.181 67.881 115.874 68.6209 115.203 68.8955C114.526 69.1734 113.751 68.8771 113.463 68.2443C112.221 65.534 111.199 63.9202 111.19 63.9051C110.814 63.3108 111.013 62.539 111.638 62.1808C111.852 62.0586 112.088 62 112.323 62" fill="#CDEAFA"/><path id="Fill 32_2" fill-rule="evenodd" clip-rule="evenodd" d="M74.979 123.638C75.472 123.638 75.9159 123.96 76.0298 124.438C76.1653 124.992 75.8006 125.546 75.2197 125.672C72.1553 126.346 69.0866 126.792 66.1001 127C65.5149 127.011 64.9873 126.615 64.9427 126.047C64.8994 125.48 65.3462 124.985 65.9415 124.944C68.82 124.745 71.7763 124.313 74.7354 123.666C74.8176 123.646 74.8983 123.638 74.979 123.638M48.0814 123.161C48.1837 123.161 48.2875 123.175 48.3927 123.207C51.1717 124.004 54.0948 124.553 57.0741 124.841C57.668 124.898 58.1018 125.403 58.0413 125.969C57.9808 126.535 57.4316 126.957 56.8579 126.891C53.7402 126.59 50.683 126.014 47.77 125.179C47.1992 125.015 46.8735 124.441 47.0464 123.895C47.1877 123.449 47.6172 123.161 48.0814 123.161M91.9527 117.676C92.3506 117.676 92.7296 117.884 92.9199 118.244C93.1894 118.752 92.9732 119.372 92.4399 119.628C89.635 120.973 86.8056 122.154 84.0295 123.141C83.4731 123.336 82.849 123.066 82.6385 122.533C82.431 122.001 82.7149 121.406 83.2756 121.207C85.9768 120.248 88.7341 119.096 91.4684 117.786C91.6255 117.712 91.7899 117.676 91.9527 117.676M106.795 107.88C107.071 107.88 107.345 107.979 107.557 108.18C107.981 108.581 107.982 109.234 107.561 109.637C105.487 111.631 103.08 113.516 100.409 115.242C99.9149 115.563 99.2433 115.438 98.9074 114.966C98.5716 114.496 98.7013 113.854 99.1957 113.534C101.753 111.882 104.052 110.083 106.028 108.185C106.238 107.982 106.518 107.88 106.795 107.88M115.828 93.1282C115.919 93.1282 116.011 93.1392 116.1 93.1612C116.68 93.3055 117.026 93.8676 116.874 94.4173C116.09 97.2924 114.882 100.058 113.284 102.636C112.98 103.124 112.319 103.29 111.803 102.997C111.289 102.709 111.119 102.076 111.423 101.586C112.918 99.1738 114.048 96.5874 114.783 93.8992C114.91 93.4347 115.348 93.1282 115.828 93.1282M115.847 76C116.338 76 116.785 76.323 116.899 76.8026C117.609 79.7849 117.98 82.7411 118 85.5914C118.004 86.1604 117.523 86.6249 116.926 86.629H116.919C116.325 86.629 115.842 86.1714 115.838 85.6051C115.819 82.9032 115.467 80.0955 114.79 77.2589C114.657 76.705 115.022 76.1512 115.606 76.0247C115.685 76.0082 115.766 76 115.847 76" fill="#CDEAFA"/><path id="Fill 34_2" fill-rule="evenodd" clip-rule="evenodd" d="M38.3135 117C38.611 117 38.9119 117.092 39.1569 117.278C39.1709 117.29 40.6179 118.386 43.33 119.768C43.9634 120.091 44.1856 120.818 43.8321 121.394C43.4769 121.968 42.6773 122.166 42.0457 121.851C39.0939 120.346 37.5314 119.154 37.4667 119.103C36.912 118.68 36.842 117.927 37.3092 117.425C37.5681 117.143 37.9391 117 38.3135 117" fill="#CDEAFA"/></g></g></g></g><g id="Female Character/Head" transform="translate(30 37) scale(4.018867924528302 4.018868029957086)"><g id="Female Character/Head/Hijab 3"><g id="Group 186"><path id="Fill 55" fill-rule="evenodd" clip-rule="evenodd" d="M15.528 44.2991C15.528 44.2991 15.6941 48.1564 24.5001 48.1564C33.3061 48.1564 33.187 45.1381 33.187 45.1381C33.187 45.1381 29.134 42.1081 28.667 41.3631C28.667 41.3631 28.947 38.4281 29.693 37.1701C30.438 35.9121 31.044 32.5581 27.41 30.7401C23.775 28.9231 22.517 31.2531 22.517 31.2531C22.517 31.2531 23.402 39.8721 15.528 44.2991Z" fill="#ffc280"/><path id="Fill 57" fill-rule="evenodd" clip-rule="evenodd" d="M20.3001 32.0305C20.3001 32.0305 21.4341 34.2984 23.9141 35.7864C26.3941 37.2744 29.5121 39.5424 31.0711 39.0464C32.6311 38.5504 36.7621 35.3844 37.7541 31.8414C38.7461 28.2984 39.3631 22.3925 38.7251 19.4865C38.0881 16.5815 34.4731 10.4865 28.0251 10.4865C21.5751 10.4865 15.8361 17.2894 17.3941 24.8014C17.3941 24.8014 15.6021 26.9995 17.1361 29.2665C18.6701 31.5345 20.3001 32.0305 20.3001 32.0305" fill="#ffc280"/><path id="Fill 59" fill-rule="evenodd" clip-rule="evenodd" d="M24.1478 27.2823C24.1478 27.2823 26.9948 27.3523 27.7508 27.9023C27.7508 27.9023 28.0278 28.0003 27.9208 27.6363C27.9208 27.6363 28.3288 27.9283 28.3558 27.7693C28.3818 27.6093 28.1778 26.0683 26.5748 25.8553C24.9718 25.6433 23.7668 27.1133 24.1478 27.2823" fill="black"/><path id="Fill 61" fill-rule="evenodd" clip-rule="evenodd" d="M36.6205 26.8741C36.6205 26.8741 34.8145 26.8481 34.0825 27.3961C34.0825 27.3961 33.8145 27.4941 33.9165 27.1311C33.9165 27.1311 33.5225 27.4231 33.4965 27.2641C33.4715 27.1041 34.2055 25.6521 35.7585 25.4391C37.3105 25.2271 37.7185 26.5851 36.6205 26.8741" fill="black"/><path id="Fill 63" fill-rule="evenodd" clip-rule="evenodd" d="M31.8901 32.2247C31.8901 32.2247 31.6771 32.4027 31.8901 32.5787C32.1021 32.7567 33.5021 32.2607 33.8211 31.7997C34.1401 31.3387 33.9511 31.2867 33.4961 31.5517C33.0411 31.8177 31.8901 32.2247 31.8901 32.2247" fill="black"/><path id="Fill 65" fill-rule="evenodd" clip-rule="evenodd" d="M29.0198 33.6602C29.0198 33.6602 28.9318 33.5012 29.6928 33.5012C30.4548 33.5012 30.3838 33.6422 31.6238 33.6602C32.8638 33.6782 33.3718 33.6602 32.8878 33.9782C32.4038 34.2982 32.4388 34.2802 32.3508 34.5282C32.2618 34.7762 31.1408 35.2192 30.2568 34.9182C29.3738 34.6162 28.4718 33.8172 29.0198 33.6602" fill="#EE4E2F"/><path id="Fill 67" fill-rule="evenodd" clip-rule="evenodd" d="M23.699 23.1007C23.834 23.0587 23.652 23.3367 24.266 23.2307C24.88 23.1247 26.557 22.9357 28.069 23.8807C28.069 23.8807 28.339 23.6677 28.358 23.2667C28.375 22.8907 25.829 21.6037 23.663 23.0307C23.515 23.1277 23.561 23.1437 23.699 23.1007" fill="black"/><path id="Fill 69" fill-rule="evenodd" clip-rule="evenodd" d="M36.6204 23.2424C36.6204 23.2424 35.7224 22.2744 34.2104 22.7224C32.6994 23.1724 32.8394 23.8564 32.8874 24.0464C32.9354 24.2344 34.0214 23.3124 35.1554 23.3254C36.2894 23.3374 36.6204 23.5734 36.6204 23.2424" fill="black"/></g><g id="Group 23"><g id="Group 3"><path id="Fill 1" fill-rule="evenodd" clip-rule="evenodd" d="M38.3997 29.1102C38.3997 29.1102 41.3217 19.0035 36.8567 14.6405C32.3897 10.2755 24.6377 5.86051 19.6077 10.4305C14.5757 14.9995 13.2927 17.7715 12.4197 21.3145C11.5467 24.8565 10.7257 28.6545 14.3707 33.4295C14.3707 33.4295 14.9357 35.3805 15.8077 35.8935C16.6807 36.4065 18.4257 38.0495 18.4257 38.0495C18.4257 38.0495 16.9377 38.4605 17.2447 40.2575C17.2447 40.2575 16.2187 40.2575 15.8597 41.0265C15.4997 41.7975 15.0887 42.7215 13.9077 42.8755C12.7277 43.0295 11.8557 42.4645 10.5707 44.0565C9.28767 45.6485 8.51867 46.7265 9.33967 47.0335C9.33967 47.0335 10.9827 46.1095 11.3927 46.1095C11.3927 46.1095 23.7657 52.2185 34.5457 46.1095C34.5457 46.1095 32.6977 43.9535 32.4417 43.6965C32.1847 43.4405 31.4147 43.2345 31.4147 43.2345L30.2337 40.5145L30.9017 39.0765C30.9017 39.0765 24.2817 37.4345 22.7657 34.4045C21.2497 31.3755 19.9147 23.0085 23.2517 19.6195C26.5887 16.2315 40.6587 14.8813 38.3997 28.1773V29.1102Z" fill="#69313B"/></g><path id="Fill 4" fill-rule="evenodd" clip-rule="evenodd" d="M28.2313 12.5348C27.3083 13.1178 26.3753 13.6788 25.4693 14.2808C24.5553 14.8638 23.6433 15.4618 22.8123 16.1288C22.6093 16.2958 22.4023 16.4688 22.2343 16.6488C22.0413 16.8418 21.9523 16.9658 21.8353 17.2238C21.6243 17.6998 21.4373 18.2018 21.2873 18.7128C20.9773 19.7328 20.7723 20.7858 20.6403 21.8458C20.3603 23.9638 20.4103 26.1278 20.7963 28.2398C21.1683 30.3558 21.8683 32.4158 22.7653 34.4048C21.5923 32.5618 20.7323 30.5078 20.2313 28.3538C19.7143 26.2018 19.6653 23.9528 19.8973 21.7498C20.0573 20.6518 20.2933 19.5648 20.6373 18.5078C20.8063 17.9768 21.0093 17.4598 21.2513 16.9448C21.3533 16.7068 21.5823 16.3758 21.7943 16.2038C22.0113 15.9998 22.2363 15.8368 22.4633 15.6718C24.2903 14.4078 26.2393 13.4328 28.2313 12.5348" fill="#24273A"/><path id="Fill 6" fill-rule="evenodd" clip-rule="evenodd" d="M20.1172 23.6754C20.3882 22.7064 20.8712 21.8204 21.4652 21.0124C21.7742 20.6174 22.0972 20.2284 22.4952 19.9084C22.8842 19.5864 23.3152 19.2974 23.8012 19.1544C23.0392 19.8014 22.4462 20.5364 21.8642 21.3134C21.2752 22.0804 20.7342 22.8854 20.1172 23.6754" fill="#24273A"/><g id="Group 10"><path id="Fill 8" fill-rule="evenodd" clip-rule="evenodd" d="M32.4922 13.151C33.6842 13.685 34.7562 14.467 35.7232 15.358C36.6952 16.249 37.5152 17.312 38.1582 18.478C38.8052 19.642 39.2072 20.951 39.3262 22.273C39.5022 23.598 39.2632 24.928 38.9082 26.169C38.9582 24.868 39.0392 23.591 38.7552 22.354C38.5122 21.125 38.1232 19.923 37.4992 18.834C36.9092 17.729 36.1532 16.713 35.3142 15.76C34.8922 15.286 34.4432 14.831 33.9662 14.405C33.5072 13.954 33.0042 13.553 32.4922 13.151" fill="#24273A"/></g><path id="Fill 11" fill-rule="evenodd" clip-rule="evenodd" d="M33.6221 17.566C34.2821 17.832 34.8981 18.186 35.4941 18.573C36.0931 18.958 36.6461 19.41 37.1691 19.9C37.6841 20.395 38.1571 20.953 38.5051 21.592C38.8511 22.221 39.0991 22.962 38.9611 23.675C38.8861 22.965 38.5661 22.349 38.1791 21.795C37.7791 21.246 37.3271 20.729 36.8221 20.26C35.8301 19.299 34.7301 18.447 33.6221 17.566" fill="#24273A"/><path id="Fill 13" fill-rule="evenodd" clip-rule="evenodd" d="M15.0381 24.2399C15.7901 26.1119 16.5801 27.9469 17.5001 29.7159C17.9611 30.5989 18.4671 31.4549 19.0011 32.2949C19.5551 33.1219 20.1651 33.9069 20.8391 34.6619C20.0241 34.0609 19.3201 33.3159 18.6871 32.5179C18.0661 31.7129 17.5361 30.8419 17.0571 29.9469C16.5971 29.0429 16.1841 28.1149 15.8491 27.1599C15.5121 26.2059 15.2171 25.2359 15.0381 24.2399" fill="#24273A"/><path id="Fill 15" fill-rule="evenodd" clip-rule="evenodd" d="M12.0701 29.0192C12.7481 30.0412 13.4751 31.0162 14.2501 31.9272C15.0241 32.8592 15.9051 33.5812 16.9161 34.2752C18.8821 35.6962 20.8821 37.0902 22.7651 38.6652C20.5571 37.5872 18.4781 36.3032 16.4771 34.8832C15.9861 34.5132 15.4881 34.1602 15.0151 33.7172C14.5581 33.2762 14.1501 32.7982 13.7921 32.2892C13.0651 31.2782 12.4911 30.1742 12.0701 29.0192" fill="#24273A"/><path id="Fill 17" fill-rule="evenodd" clip-rule="evenodd" d="M16.7107 36.5485C17.7737 37.2225 18.8847 37.8025 20.0267 38.2945C21.1717 38.7805 22.3487 39.1895 23.5607 39.4355C24.7617 39.7395 26.0057 39.7965 27.2377 39.7615L28.1647 39.6995L29.0807 39.5365C29.7077 39.4755 30.2797 39.2115 30.9007 39.0765C29.7677 39.6115 28.5457 40.0475 27.2667 40.1455C25.9977 40.2625 24.7017 40.1975 23.4547 39.9235C22.2127 39.6285 20.9997 39.2135 19.8657 38.6425C18.7347 38.0675 17.6527 37.3905 16.7107 36.5485" fill="#24273A"/><path id="Fill 19" fill-rule="evenodd" clip-rule="evenodd" d="M17.418 39.693C19.556 40.49 21.664 41.154 23.822 41.429C24.899 41.56 25.978 41.552 27.053 41.431C28.134 41.297 29.161 40.939 30.233 40.514C29.397 41.286 28.356 41.901 27.209 42.196C26.066 42.493 24.868 42.547 23.702 42.422C22.541 42.259 21.409 41.952 20.35 41.49C19.292 41.029 18.281 40.455 17.418 39.693" fill="#24273A"/><path id="Fill 21" fill-rule="evenodd" clip-rule="evenodd" d="M11.3875 43.2779C13.0675 42.9889 14.9035 43.1109 16.5295 43.6879C18.1415 44.1229 19.8025 44.4309 21.4655 44.6099C24.7945 44.9739 28.1695 44.8769 31.4655 43.9019C29.9725 44.7569 28.2825 45.2909 26.5605 45.5359C24.8365 45.7959 23.0815 45.7829 21.3545 45.6039C19.6285 45.3969 17.9235 45.0369 16.2855 44.4259C14.7345 43.7419 13.1125 43.3839 11.3875 43.2779" fill="#24273A"/></g></g></g></g></svg>