<svg viewBox="0 0 1079.9999999999998 1079.9999999999998" fill="none" xmlns="http://www.w3.org/2000/svg" xmlns:xlink="http://www.w3.org/1999/xlink" overflow="visible" width="1079.9999999999998px" height="1079.9999999999998px"><g id="Master/Brandon Mendoza/Thanks"><g id="Group 2"><path id="Vector" d="M900.66 1080H179.33C80.45 1080 0 999.55 0 900.66V179.33C0 80.45 80.45 0.00012207 179.33 0.00012207H900.66C999.55 0.00012207 1080 80.45 1080 179.33V900.66C1080 999.55 999.55 1080 900.66 1080ZM179.33 56.84C146.864 56.8902 115.742 69.8132 92.7897 92.775C69.8372 115.737 56.927 146.864 56.89 179.33V900.66C56.9297 933.125 69.8411 964.249 92.7933 987.209C115.745 1010.17 146.865 1023.09 179.33 1023.14H900.66C933.135 1023.1 964.269 1010.19 987.233 987.223C1010.2 964.259 1023.11 933.125 1023.15 900.65V179.33C1023.11 146.855 1010.2 115.721 987.233 92.7574C964.269 69.7941 933.135 56.877 900.66 56.84H179.33Z" fill="white"/><path id="Vector_2" d="M881.27 28.42H198.73C104.67 28.42 28.4199 104.67 28.4199 198.73V881.27C28.4199 975.33 104.67 1051.58 198.73 1051.58H881.27C975.33 1051.58 1051.58 975.33 1051.58 881.27V198.73C1051.58 104.67 975.33 28.42 881.27 28.42Z" fill="#FFCF06"/><path id="Vector_3" d="M900.66 0.00012207H179.33C80.45 0.00012207 0 80.45 0 179.33V900.66C0 999.55 80.45 1080 179.33 1080H900.66C999.55 1080 1080 999.55 1080 900.66V179.33C1080 80.45 999.55 0.00012207 900.66 0.00012207ZM1051.57 890.23C1051.57 911.418 1047.4 932.398 1039.29 951.974C1031.18 971.549 1019.3 989.335 1004.32 1004.32C989.335 1019.3 971.549 1031.18 951.974 1039.29C932.398 1047.4 911.418 1051.57 890.23 1051.57H189.77C168.582 1051.57 147.601 1047.4 128.025 1039.29C108.449 1031.18 90.6618 1019.3 75.679 1004.32C60.6961 989.336 48.811 971.55 40.7023 951.974C32.5936 932.399 28.42 911.418 28.42 890.23V189.77C28.42 146.977 45.4193 105.937 75.6783 75.6783C105.937 45.4193 146.977 28.42 189.77 28.42H890.23C911.418 28.42 932.399 32.5936 951.974 40.7023C971.55 48.811 989.336 60.696 1004.32 75.6788C1019.3 90.6617 1031.18 108.449 1039.29 128.025C1047.4 147.601 1051.57 168.582 1051.57 189.77V890.23Z" fill="white"/><path id="Vector_4" d="M285.89 307.14C274 297.64 74.3398 205.03 74.3398 205.03L110.34 344.03L134.79 357.14L102.33 357.72L168.81 464.77L198.21 467.7L185.63 480.76L328.47 540L285.89 307.14Z" fill="#000002"/><path id="Vector_5" d="M304.89 288.22C293.01 278.72 74.3999 205.06 74.3999 205.06L121.89 326.24L155.16 357.14H117.16L171.81 447.43H219.34L189.64 475.95L361.89 497.33L304.89 288.22Z" fill="white"/><path id="Vector_6" d="M741.2 291.85L963.14 214.53L934.57 326.25L913.22 376.31L884.67 447.44L836.92 472.48L866.85 475.95L847.9 485.43L601.05 606.65L667.3 443.48L741.2 291.85Z" fill="#000002"/><path id="Vector_7" d="M751.59 288.22C763.48 278.72 982.09 205.06 982.09 205.06L934.56 326.24L901.3 357.14H939.3L884.64 447.43H837.12L866.82 475.95L694.54 497.33L751.59 288.22Z" fill="white"/><path id="Vector_8" d="M212.81 702.23L261.61 434.43L393.33 392.4L525.93 458.31L753.2 381.66L823.98 575.38L623.2 899.99L212.81 702.23Z" fill="#000002"/><path id="Vector_9" d="M752.36 383.38L822.45 575.22L622.68 898.22L214.34 701.44L262.8 435.44L393.21 393.84L524.81 459.25L525.81 459.75L526.88 459.39L752.34 383.34L752.36 383.38ZM754 379.89L526 456.79L393.41 390.88L260.41 433.33L211.27 702.97L623.72 901.71L825.5 575.49L754.03 379.89H754Z" fill="#000002"/><path id="Vector_10" d="M577.02 464.37L393.44 390.93L304.95 451.76L254.84 646.46L623.72 901.76L874.89 567.3L754.03 379.93L577.02 464.37Z" fill="#FF4F03"/><path id="Vector_11" d="M574.72 788.72L245.12 726.44L194.71 566.42L688.69 638.71L927.83 608.22L845.27 798.32L574.72 788.72Z" fill="#000002"/><path id="Vector_12" d="M196.63 568.06L688.31 640.06H688.67H689.04L925.64 609.89L844.4 796.98L574.89 787.37L246.17 725.26L196.65 568.06H196.63ZM192.79 564.77L244.09 727.61L574.59 790.06L846.16 799.69L930.02 606.58L688.72 637.35L192.79 564.77V564.77Z" fill="#000002"/><path id="Vector_13" d="M96.6299 740.61L172.73 676.67L120.92 647.91L223.11 622.7L329.95 792.94L96.6299 740.61Z" fill="#000002"/><path id="Vector_14" d="M222.49 624.23L327.09 790.91L99.5699 739.91L172.09 678.98L175.09 676.46L171.67 674.56L124.57 648.41L222.49 624.25V624.23ZM223.73 621.17L117.27 647.44L170.36 676.92L93.6699 741.35L332.8 794.97L223.73 621.14V621.17Z" fill="#000002"/><path id="Vector_15" d="M736.6 447.55C716.42 449.55 655.88 491.95 655.88 491.95L736.6 536.35L797.15 508.09L736.6 447.55Z" fill="white"/><path id="Vector_16" d="M756.25 836.28L789.94 752.82L824.67 689.15L982.27 711.93L922.27 746.36L930.09 862.18L756.25 836.28Z" fill="#000002"/><path id="Vector_17" d="M825.4 690.61L978.21 712.7L922.33 744.77L920.87 745.61L920.98 747.29L928.63 860.6L758.13 835.19L791.13 753.39L825.38 690.61H825.4ZM823.91 687.67L788.69 752.24L754.34 837.35L931.52 863.76L923.67 747.14L986.32 711.14L823.89 687.67H823.91Z" fill="#000002"/><path id="Vector_18" d="M178.9 543.62L693.4 615.13L943.89 583.83L856.43 777.15L574.62 768.1L231.78 706.37L178.9 543.62Z" fill="white"/><path id="Vector_19" d="M467.01 397.87L451.94 245.08L495.8 305.94L568.62 171.75L622.77 306.15L686.29 271.46L660.15 360.85L567.24 423.38L467.01 397.87Z" fill="#000002"/><path id="Vector_20" d="M568.43 174.97L620.89 305.22L622.05 308.09L624.75 306.61L684.02 274.25L658.95 359.98L566.95 421.9L468.25 396.78L453.77 250.01L493.37 305.01L495.93 308.56L498.01 304.72L568.4 175.02L568.43 174.97ZM568.77 168.58L495.6 303.41L450.06 240.14L465.74 398.96L567.49 424.86L661.33 361.7L688.53 268.7L623.46 304.23L568.8 168.56L568.77 168.58Z" fill="#000002"/><path id="Vector_21" d="M480.38 378.33L450.07 240.14L516.8 291.77L568.8 168.54L638.1 283.56L703.17 248.03L661.33 361.71L582.13 404.23L480.38 378.33Z" fill="#4803FE"/><path id="Vector_22" d="M315.47 708.6L273.09 672.78L311.91 590.78L354.91 622.47C355.599 622.962 356.183 623.585 356.629 624.304C357.074 625.024 357.372 625.825 357.506 626.66C357.639 627.496 357.604 628.35 357.404 629.172C357.204 629.994 356.843 630.769 356.341 631.45C355.839 632.131 355.206 632.706 354.48 633.14C353.754 633.574 352.948 633.86 352.11 633.98C351.273 634.1 350.42 634.052 349.601 633.839C348.782 633.627 348.013 633.253 347.34 632.74L316.82 610.24L288.82 669.38L316.6 692.86L346.71 674L320.81 668.38C319.966 668.229 319.161 667.909 318.443 667.44C317.725 666.97 317.109 666.361 316.632 665.648C316.155 664.935 315.827 664.134 315.667 663.291C315.507 662.448 315.518 661.582 315.7 660.744C315.883 659.906 316.232 659.113 316.728 658.413C317.223 657.713 317.855 657.12 318.585 656.67C319.315 656.22 320.128 655.921 320.976 655.792C321.824 655.664 322.689 655.707 323.52 655.92L380.04 668.14L315.47 708.6Z" fill="#000002"/><path id="Vector_23" d="M601.51 744.14L559.12 708.33L597.95 626.33L640.95 658.02C641.639 658.511 642.223 659.135 642.669 659.854C643.115 660.574 643.413 661.375 643.546 662.21C643.679 663.046 643.645 663.9 643.445 664.722C643.245 665.544 642.883 666.319 642.381 667C641.879 667.681 641.246 668.255 640.52 668.69C639.794 669.124 638.988 669.41 638.151 669.53C637.313 669.65 636.46 669.602 635.641 669.389C634.822 669.176 634.053 668.803 633.38 668.29L602.87 645.79L574.87 704.94L602.65 728.41L629.26 711.75C629.97 711.277 630.767 710.952 631.605 710.792C632.443 710.633 633.305 710.643 634.139 710.823C634.972 711.002 635.762 711.347 636.46 711.836C637.158 712.326 637.752 712.951 638.204 713.674C638.657 714.396 638.96 715.203 639.096 716.045C639.232 716.887 639.197 717.748 638.994 718.576C638.792 719.405 638.425 720.184 637.916 720.868C637.407 721.553 636.765 722.128 636.03 722.56L601.51 744.14Z" fill="#000002"/><path id="Vector_24" d="M448.01 718.24C446.945 718.239 445.897 717.973 444.961 717.465C444.025 716.956 443.231 716.223 442.65 715.33L408.28 662.41L428.34 625.95L392.53 617.57L397.53 700.33C397.696 701.218 397.673 702.131 397.46 703.008C397.248 703.886 396.851 704.709 396.297 705.422C395.743 706.135 395.043 706.722 394.245 707.145C393.447 707.568 392.569 707.816 391.667 707.874C390.766 707.932 389.863 707.797 389.017 707.48C388.172 707.163 387.403 706.669 386.763 706.033C386.122 705.396 385.624 704.631 385.301 703.788C384.978 702.944 384.838 702.042 384.89 701.14L378.8 601.28L447.67 617.39L423.19 661.9L453.4 708.41C454.026 709.372 454.381 710.486 454.427 711.633C454.474 712.78 454.209 713.919 453.663 714.928C453.116 715.938 452.307 716.781 451.321 717.37C450.335 717.958 449.208 718.269 448.06 718.27L448.01 718.24Z" fill="#000002"/><path id="Vector_25" d="M545.4 728.14L496.5 691.23C495.216 690.189 494.387 688.69 494.187 687.049C493.987 685.408 494.431 683.753 495.427 682.433C496.422 681.114 497.891 680.232 499.524 679.974C501.157 679.716 502.826 680.102 504.18 681.05L523.35 695.52L507.99 638.84L500.18 645.37L483.89 713.35C483.492 714.996 482.457 716.416 481.012 717.298C479.567 718.181 477.831 718.453 476.185 718.055C474.539 717.657 473.119 716.622 472.237 715.177C471.354 713.732 471.082 711.996 471.48 710.35L488.8 638.3L515.14 616.3L545.4 728.14Z" fill="#000002"/><path id="Vector_26" d="M754.36 746.14L705.46 709.23C704.176 708.189 703.347 706.69 703.147 705.049C702.946 703.408 703.391 701.753 704.387 700.433C705.382 699.114 706.851 698.232 708.484 697.974C710.117 697.716 711.786 698.102 713.14 699.05L732.31 713.51L716.95 656.84L709.13 663.37L692.81 731.32C692.412 732.966 691.377 734.386 689.932 735.268C688.487 736.151 686.751 736.423 685.105 736.025C683.459 735.627 682.039 734.592 681.157 733.147C680.274 731.702 680.002 729.966 680.4 728.32L697.72 656.32L724.06 634.32L754.36 746.14Z" fill="#000002"/><path id="Vector_27" d="M657.89 735.66C657.612 735.66 657.335 735.64 657.06 735.6C656.229 735.494 655.428 735.225 654.701 734.808C653.975 734.392 653.338 733.836 652.827 733.173C652.316 732.509 651.941 731.751 651.723 730.943C651.506 730.134 651.45 729.29 651.56 728.46L662.05 647.3C662.134 646.451 662.388 645.627 662.797 644.878C663.205 644.128 663.76 643.468 664.428 642.937C665.096 642.406 665.864 642.014 666.686 641.785C667.508 641.556 668.367 641.494 669.214 641.603C670.06 641.712 670.876 641.99 671.614 642.42C672.351 642.85 672.994 643.424 673.506 644.107C674.017 644.79 674.387 645.569 674.592 646.397C674.797 647.226 674.834 648.087 674.7 648.93L664.21 730.14C664 731.668 663.244 733.068 662.083 734.083C660.921 735.097 659.432 735.658 657.89 735.66V735.66Z" fill="#000002"/><path id="Vector_28" d="M808.8 745.51L757.4 714.51C756.657 714.091 756.005 713.527 755.483 712.851C754.961 712.175 754.581 711.401 754.363 710.576C754.146 709.75 754.097 708.889 754.218 708.044C754.34 707.199 754.63 706.387 755.071 705.656C755.512 704.925 756.095 704.29 756.786 703.789C757.477 703.287 758.262 702.93 759.094 702.737C759.926 702.544 760.787 702.52 761.629 702.667C762.47 702.814 763.273 703.127 763.99 703.59L802.89 727.03L816.89 694.58L757.6 673.73L767.6 637.79L786.18 625.79L825.18 638.62C825.976 638.883 826.712 639.299 827.347 639.847C827.982 640.394 828.503 641.061 828.88 641.809C829.257 642.558 829.482 643.373 829.544 644.209C829.606 645.044 829.503 645.884 829.24 646.68C828.978 647.476 828.561 648.212 828.014 648.847C827.466 649.482 826.8 650.002 826.051 650.379C825.303 650.756 824.487 650.982 823.652 651.044C822.816 651.106 821.976 651.003 821.18 650.74L787.93 639.81L778.53 645.91L772.99 665.7L833.92 687.13L808.8 745.51Z" fill="#000002"/></g></g></svg>