<svg viewBox="0 0 1079.9999999999998 1079.9999999999998" fill="none" xmlns="http://www.w3.org/2000/svg" xmlns:xlink="http://www.w3.org/1999/xlink" overflow="visible" width="1079.9999999999998px" height="1079.9999999999998px"><g id="Master/Brandon Mendoza/Heart"><g id="Group 12"><path id="Vector" d="M900.66 1080H179.33C80.45 1080 0 999.55 0 900.66V179.34C0 80.4498 80.45 0 179.33 0H900.66C999.55 0 1080 80.4498 1080 179.34V900.66C1080 999.55 999.55 1080 900.66 1080ZM179.33 56.8398C146.858 56.8848 115.73 69.8069 92.7733 92.7715C69.8162 115.736 56.9044 146.868 56.87 179.34V900.66C56.9044 933.136 69.8202 964.273 92.7838 987.239C115.747 1010.2 146.883 1023.12 179.36 1023.16H900.69C933.167 1023.12 964.302 1010.2 987.266 987.239C1010.23 964.273 1023.15 933.136 1023.18 900.66V179.34C1023.15 146.863 1010.23 115.726 987.266 92.7607C964.302 69.7953 933.167 56.8769 900.69 56.8398H179.33Z" fill="white"/><path id="Vector_2" d="M890.83 18.8599H189.17C95.1107 18.8599 18.8604 95.1102 18.8604 189.17V890.83C18.8604 984.89 95.1107 1061.14 189.17 1061.14H890.83C984.89 1061.14 1061.14 984.89 1061.14 890.83V189.17C1061.14 95.1102 984.89 18.8599 890.83 18.8599Z" fill="white"/><path id="Vector_3" d="M1061.14 827V804L1058.02 827.49L1061.14 827Z" fill="white"/><path id="Vector_4" d="M567.39 510.92L602.26 316.92L838.91 18.9199H826.32L195.32 519.53L305.99 18.9199H180.2C137.421 18.9252 96.3955 35.9186 66.1426 66.1641C35.8896 96.4095 18.886 137.431 18.8701 180.21V248.7L177.77 89.21L20.8701 925.32C25.4952 954.262 37.9438 981.39 56.8701 1003.77L534.6 402.14L567.39 510.92Z" fill="#9105C6"/><path id="Vector_5" d="M1061.14 827L1058.01 827.49L1061.14 804V318.78L722.97 848.69L961.28 644.79L867.07 1001.04L1050.07 958.67C1057.42 939.911 1061.18 919.938 1061.16 899.79L1061.14 827Z" fill="#9105C6"/><path id="Vector_6" d="M714.57 934.92L796.11 872.62L801.75 739.62L709.05 650.97L686.4 511.97L685.18 512.4L684.43 507.81C731.14 343.56 732.32 251.64 732.32 251.64L609.66 109.02L587.45 117.24C587.45 117.24 588.67 311.14 570.24 477.66C566.33 480.15 563.86 481.75 563.86 481.75L545.45 489.54C535.45 274.03 484.05 182.38 484.05 182.38L312.49 117.71L295.49 136.07C295.49 136.07 387.34 306.6 419.24 507.18L399.75 512.68L368.45 519.56L315.73 566.08L302.18 564.3L226.18 619.24L230.23 673.82L225.23 675.58L288.55 939.04L273.27 1061.17H667.58L661.98 979.84L714.57 934.92Z" fill="#000002"/><path id="Vector_7" d="M706.63 499.61C753.35 335.36 754.53 243.44 754.53 243.44L741.95 132L609.66 109C609.66 109 610.88 302.9 592.45 469.42C588.53 471.91 586.07 473.51 586.07 473.51L567.66 481.3C557.66 265.79 506.26 174.14 506.26 174.14L444.58 80.6099L312.49 117.68C312.49 117.68 410.37 299.8 441.87 501.34C434.87 507.52 430.22 511.74 430.22 511.74L419.99 506.96L368.49 519.53L337.98 557.83L302.22 564.27L248.41 610.99L314.91 963.74L352.78 888.96L609.3 677.36C624.36 691.13 639.49 696.67 647.48 675.87C653.154 661.096 658.53 646.663 663.61 632.57L720.66 585.51L706.63 499.61Z" fill="#FFCF06"/><path id="Vector_8" d="M818.32 864.4L526.87 954.4L642.15 690.58L725.91 735.1L722.02 633.91L823.97 731.41L818.32 864.4Z" fill="#FFCF06"/><path id="Vector_9" d="M583.01 923.07L753.56 820.61L720.66 585.55C720.66 585.55 311.5 842.92 314.49 923.74C314.55 925.54 308.32 981.22 299.27 1061.18H677.12L656.74 960.59L583.01 923.07Z" fill="#FFCF06"/><path id="Vector_10" d="M818.32 864.4L627.08 781.35L733.409 655.9L708.62 503.72L247.52 667.33L309.24 943.59L294.53 1061.14H690.43L684.27 971.59L736.789 926.7L818.32 864.4Z" fill="#F0549E"/><path id="Vector_11" d="M488.09 935.39C487.377 935.392 486.668 935.281 485.99 935.06C484.253 934.503 482.808 933.278 481.974 931.656C481.14 930.034 480.983 928.147 481.54 926.41L514.7 822.76C515.006 821.804 515.517 820.927 516.198 820.189C516.878 819.452 517.712 818.872 518.64 818.49L632.19 771.8C633.026 771.456 633.921 771.281 634.825 771.284C635.728 771.286 636.623 771.467 637.457 771.815C638.291 772.163 639.048 772.672 639.685 773.313C640.322 773.954 640.827 774.714 641.17 775.55C641.513 776.386 641.689 777.281 641.686 778.185C641.684 779.088 641.503 779.983 641.155 780.816C640.807 781.65 640.297 782.407 639.657 783.044C639.016 783.682 638.256 784.186 637.42 784.53L526.87 830L494.64 930.61C494.195 931.998 493.321 933.208 492.144 934.067C490.967 934.926 489.547 935.389 488.09 935.39Z" fill="#9105C6"/><path id="Vector_12" d="M684.06 975.48L484.3 974.95C484.07 974.95 483.85 974.95 483.62 974.95L311.46 957.56C309.644 957.377 307.974 956.479 306.819 955.065C305.664 953.651 305.117 951.837 305.3 950.02C305.483 948.203 306.381 946.534 307.795 945.378C309.209 944.223 311.024 943.677 312.84 943.86L484.67 961.22L684.1 961.75C685.925 961.75 687.675 962.475 688.965 963.765C690.256 965.055 690.98 966.805 690.98 968.63C690.98 970.455 690.256 972.204 688.965 973.495C687.675 974.785 685.925 975.51 684.1 975.51L684.06 975.48Z" fill="#9105C6"/><path id="Vector_13" d="M420 506.96L509.87 582.55L535.24 792.58L460.46 823.22L409.4 644.12L337.99 557.83L405.07 546.79L420 506.96Z" fill="#FFCF06"/><path id="Vector_14" d="M337.99 557.83L409.4 644.12L453.15 797.57L377.52 811.08L343.79 744.88L313.51 663.85L268.89 628.68L337.99 557.83Z" fill="#FFCF06"/><path id="Vector_15" d="M535.24 792.58L529.55 745.44L479.87 760.78L481.54 814.58L535.24 792.58Z" fill="#000002"/><path id="Vector_16" d="M816.87 810.23L558.54 770.92C533.69 745.54 479.76 657.34 479.76 657.34L731.25 642.76" fill="#FFCF06"/><path id="Vector_17" d="M528.49 740.56L636.4 728.64L581.41 648.58L479.78 657.34L528.49 740.56Z" fill="#000002"/><path id="Vector_18" d="M734.04 776.61C733.487 776.607 732.937 776.539 732.4 776.409C730.628 775.974 729.101 774.854 728.154 773.294C727.208 771.734 726.918 769.863 727.35 768.09L744 700.09L726.39 671.83C725.5 670.282 725.245 668.449 725.68 666.717C726.115 664.985 727.205 663.49 728.72 662.546C730.236 661.602 732.059 661.284 733.805 661.658C735.551 662.031 737.083 663.068 738.08 664.55L757.21 695.28C757.694 696.058 758.018 696.925 758.162 697.83C758.307 698.735 758.268 699.66 758.05 700.55L740.72 771.32C740.361 772.823 739.507 774.161 738.296 775.121C737.084 776.08 735.585 776.605 734.04 776.61Z" fill="#9105C6"/><path id="Vector_19" d="M453.14 804.45C451.644 804.448 450.19 803.959 448.998 803.057C447.805 802.155 446.938 800.888 446.53 799.45L403.18 647.389L332.68 562.21C331.59 560.795 331.091 559.013 331.29 557.238C331.488 555.463 332.368 553.834 333.744 552.696C335.12 551.557 336.885 550.997 338.666 551.134C340.446 551.271 342.104 552.094 343.29 553.429L414.7 639.73C415.311 640.461 415.761 641.313 416.02 642.23L459.77 795.67C460.063 796.695 460.113 797.774 459.918 798.822C459.722 799.87 459.286 800.858 458.643 801.709C458 802.559 457.168 803.249 456.213 803.722C455.258 804.196 454.206 804.442 453.14 804.44V804.45Z" fill="#9105C6"/><path id="Vector_20" d="M517.87 655.76C516.189 655.757 514.568 655.139 513.311 654.023C512.055 652.906 511.25 651.368 511.05 649.7L503.37 586.22L414.87 517.11C414.158 516.554 413.562 515.863 413.116 515.076C412.671 514.29 412.385 513.423 412.274 512.526C412.051 510.715 412.557 508.888 413.68 507.45C414.803 506.011 416.452 505.077 418.264 504.854C420.075 504.631 421.901 505.136 423.34 506.26L514.11 577.13C514.825 577.687 515.421 578.381 515.866 579.17C516.31 579.96 516.594 580.83 516.7 581.73L524.7 648.05C524.918 649.861 524.408 651.684 523.283 653.12C522.159 654.556 520.51 655.487 518.7 655.71C518.424 655.741 518.147 655.758 517.87 655.76Z" fill="#9105C6"/><path id="Vector_21" d="M343.78 751.76C342.377 751.759 341.008 751.33 339.857 750.529C338.706 749.728 337.828 748.594 337.34 747.28L298.11 642.28C297.47 640.57 297.537 638.677 298.293 637.016C299.05 635.356 300.435 634.064 302.145 633.425C303.854 632.785 305.747 632.851 307.408 633.608C309.068 634.365 310.36 635.75 311 637.46L350.23 742.46C350.869 744.164 350.808 746.052 350.058 747.711C349.308 749.37 347.932 750.664 346.23 751.31C345.448 751.61 344.617 751.762 343.78 751.76V751.76Z" fill="#9105C6"/><path id="Vector_22" d="M452.78 801.74L440.8 754.26L384.58 756.55L379.64 811.27L452.78 801.74Z" fill="#000002"/><path id="Vector_23" d="M900.66 0H179.33C80.45 0 0 80.4498 0 179.34V900.66C0 999.55 80.45 1080 179.33 1080H900.66C999.55 1080 1080 999.55 1080 900.66V179.34C1080 80.4498 999.55 0 900.66 0ZM1051.57 890.23C1051.57 911.421 1047.4 932.406 1039.3 951.985C1031.19 971.564 1019.31 989.355 1004.32 1004.34C989.339 1019.33 971.551 1031.21 951.973 1039.33C932.395 1047.44 911.411 1051.61 890.22 1051.61H189.77C146.977 1051.61 105.937 1034.61 75.6783 1004.35C45.4193 974.093 28.42 933.052 28.42 890.26V189.77C28.42 146.977 45.4193 105.937 75.6783 75.6782C105.937 45.4192 146.977 28.4199 189.77 28.4199H890.22C933.013 28.4199 974.053 45.4192 1004.31 75.6782C1034.57 105.937 1051.57 146.977 1051.57 189.77V890.23Z" fill="white"/></g></g></svg>