<svg viewBox="0 0 1079.9999999999998 1079.9999999999998" fill="none" xmlns="http://www.w3.org/2000/svg" xmlns:xlink="http://www.w3.org/1999/xlink" overflow="visible" width="1079.9999999999998px" height="1079.9999999999998px"><g id="Master/Brandon Mendoza/Kiss"><g id="Group 11"><path id="Vector" d="M900.66 1080H179.33C80.45 1080 0 999.55 0 900.66V179.34C0 80.4498 80.45 0 179.33 0H900.66C999.55 0 1080 80.4498 1080 179.34V900.66C1080 999.55 999.55 1080 900.66 1080ZM179.33 56.8398C146.862 56.8901 115.739 69.8143 92.7862 92.7783C69.8334 115.742 56.9244 146.872 56.89 179.34V900.66C56.9244 933.136 69.8403 964.273 92.8039 987.239C115.767 1010.2 146.903 1023.12 179.38 1023.16H900.71C933.187 1023.12 964.323 1010.2 987.286 987.239C1010.25 964.273 1023.17 933.136 1023.2 900.66V179.34C1023.17 146.863 1010.25 115.726 987.286 92.7607C964.323 69.7953 933.187 56.8769 900.71 56.8398H179.33Z" fill="white"/><path id="Vector_2" d="M890.83 18.8599H189.17C95.1107 18.8599 18.8604 95.1102 18.8604 189.17V890.83C18.8604 984.89 95.1107 1061.14 189.17 1061.14H890.83C984.89 1061.14 1061.14 984.89 1061.14 890.83V189.17C1061.14 95.1102 984.89 18.8599 890.83 18.8599Z" fill="#F0549E"/><path id="Vector_3" d="M258.42 443.49L61.6997 278.86C61.6997 278.86 -13.5903 597.26 257.61 597.26L258.42 443.49Z" fill="#000002"/><path id="Vector_4" d="M272.15 597.22C211.15 597.11 162.32 577.02 126.97 537.49C83.9197 489.33 68.7196 420.43 63.5496 371.11C60.2021 339.329 59.8673 307.304 62.5496 275.46L267.44 434.24L272.15 597.22Z" fill="#FFCF06"/><path id="Vector_5" d="M62.8901 276.34L266.94 434.48L271.64 596.75C211 596.55 162.44 576.51 127.28 537.18C108.28 515.97 93.1401 488.99 82.1701 456.99C73.3801 431.35 67.2601 402.46 63.9701 371.11C60.6718 339.622 60.3102 307.895 62.8901 276.34V276.34ZM62.1401 274.59C62.1401 274.59 25.8901 597.68 272.63 597.68L267.89 434.01L62.1801 274.61L62.1401 274.59Z" fill="#FFCF06"/><path id="Vector_6" d="M625.64 440.78C625.64 528.38 699.79 599.39 791.25 599.39C882.71 599.39 956.87 528.39 956.87 440.78C956.87 353.17 882.72 282.17 791.25 282.17C743.04 282.17 699.63 301.91 669.37 333.4C642.22 361.61 625.64 399.36 625.64 440.78Z" fill="#000002"/><path id="Vector_7" d="M811.02 434.24L1015.89 275.45C1019.05 307.288 1019.19 339.355 1016.3 371.22C1011.84 420.56 997.62 489.49 955.2 537.62C920.45 577.07 871.94 597.12 811.01 597.22L811.02 434.24Z" fill="#FFCF06"/><path id="Vector_8" d="M1015.54 276.32C1018.59 307.868 1018.69 339.633 1015.84 371.2C1013.01 402.57 1007.3 431.48 998.84 457.12C988.32 489.12 973.52 516.12 954.84 537.32C920.27 576.56 872.03 596.55 811.46 596.75V434.47L1015.52 276.32H1015.54ZM1016.25 274.59L810.55 434.01V597.68C1057.28 597.68 1016.27 274.59 1016.27 274.59H1016.25Z" fill="#FFCF06"/><path id="Vector_9" d="M417.64 393.61C427.07 428.522 424.005 465.632 408.974 498.524C393.944 531.415 367.894 558.021 335.326 573.742C302.759 589.463 265.722 593.311 230.619 584.62C195.516 575.929 164.553 555.246 143.082 526.146C121.612 497.046 110.984 461.359 113.036 425.254C115.088 389.149 129.691 354.896 154.321 328.417C178.95 301.937 212.058 284.895 247.92 280.238C283.782 275.58 320.144 283.6 350.72 302.91C383.611 323.682 407.496 356.055 417.64 393.61Z" fill="#9105C6"/><path id="Vector_10" d="M267.89 598.15C195.56 598.15 129.16 549.9 109.41 476.81C103.663 455.963 102.092 434.186 104.788 412.73C107.484 391.275 114.393 370.563 125.119 351.786C135.845 333.009 150.176 316.537 167.288 303.317C184.4 290.096 203.956 280.387 224.832 274.748C245.709 269.11 267.493 267.652 288.935 270.459C310.376 273.267 331.051 280.284 349.772 291.107C368.493 301.93 384.89 316.346 398.022 333.527C411.153 350.708 420.76 370.314 426.29 391.219C449.89 478.579 398.01 568.859 310.64 592.449C296.705 596.228 282.33 598.145 267.89 598.15V598.15ZM267.73 287.929C245.313 287.956 223.202 293.142 203.111 303.085C183.019 313.029 165.486 327.463 151.868 345.271C138.251 363.078 128.915 383.782 124.584 405.777C120.252 427.772 121.042 450.469 126.89 472.11C147.89 549.89 228.26 596.11 306.04 575.11C383.82 554.11 430.04 473.74 409.04 395.96C400.676 364.929 382.306 337.526 356.78 317.999C331.254 298.472 299.999 287.913 267.86 287.96L267.73 287.929Z" fill="#FFCF06"/><path id="Vector_11" d="M653.89 393.61C644.459 428.524 647.523 465.637 662.554 498.531C677.585 531.425 703.637 558.034 736.206 573.757C768.776 589.479 805.815 593.327 840.921 584.636C876.027 575.945 906.993 555.26 928.465 526.158C949.937 497.056 960.565 461.366 958.513 425.259C956.46 389.151 941.856 354.896 917.224 328.414C892.593 301.933 859.482 284.891 823.617 280.234C787.753 275.577 751.388 283.597 720.81 302.909C687.92 323.682 664.035 356.055 653.89 393.61V393.61Z" fill="#9105C6"/><path id="Vector_12" d="M803.579 598.15C789.14 598.145 774.765 596.228 760.829 592.45C673.469 568.86 621.59 478.58 645.18 391.22L653.89 393.61L645.2 391.26C656.549 349.244 684.123 313.457 721.856 291.769C759.589 270.081 804.391 264.268 846.41 275.61C933.78 299.21 985.66 389.48 962.06 476.85C942.32 549.89 875.889 598.15 803.579 598.15ZM803.75 287.93C771.611 287.883 740.356 298.442 714.83 317.969C689.304 337.496 670.934 364.899 662.57 395.93C641.57 473.71 687.74 554.07 765.57 575.08C777.981 578.439 790.782 580.144 803.64 580.15C868.04 580.15 927.149 537.2 944.729 472.15C965.729 394.37 919.549 314 841.729 293C829.348 289.644 816.578 287.939 803.75 287.93V287.93Z" fill="#FFCF06"/><path id="Vector_13" d="M507.88 471.31L484.19 591.65L594.15 600.73L568.53 475.68L507.88 471.31Z" fill="#FFCF06"/><path id="Vector_14" d="M555.6 603.95H523.89L507.03 471.68C506.932 470.911 507.144 470.134 507.618 469.521C508.093 468.908 508.791 468.508 509.56 468.41C510.33 468.312 511.106 468.523 511.719 468.998C512.333 469.472 512.732 470.171 512.83 470.94L529.03 598.1H550.57L569.65 473.54C569.696 473.151 569.82 472.775 570.014 472.435C570.209 472.095 570.469 471.797 570.781 471.56C571.093 471.323 571.449 471.151 571.828 471.054C572.208 470.957 572.603 470.938 572.99 470.997C573.378 471.056 573.749 471.192 574.082 471.398C574.416 471.603 574.705 471.874 574.931 472.193C575.158 472.512 575.318 472.874 575.402 473.257C575.486 473.639 575.492 474.035 575.42 474.42L555.6 603.95Z" fill="#9105C6"/><path id="Vector_15" d="M484.19 591.65L504.56 621.65L567.13 627.03L594.15 600.73L484.19 591.65Z" fill="#000002"/><path id="Vector_16" d="M139.03 243.19C150.09 205.25 164.31 165.65 192.32 132.02C208.402 112.562 228.434 96.7429 251.09 85.6099C277.28 72.7799 308.09 65.6098 342.67 64.3398C345.67 64.2298 348.61 64.1699 351.46 64.1699C390.19 64.1699 415.88 74.4199 427.81 94.6299C448.71 130.03 420.26 185.08 417.88 189.55C390.195 185.501 362.25 183.495 334.27 183.55C271.89 183.61 187.71 193.95 139.03 243.19Z" fill="#FFCF06"/><path id="Vector_17" d="M351.48 64.6699C390.02 64.6699 415.56 74.8396 427.4 94.8896C433.61 105.4 439.19 124.52 430.57 156C427.389 167.437 423.054 178.521 417.63 189.08C390.02 185.056 362.152 183.05 334.25 183.08C272.36 183.08 188.96 193.31 139.98 241.57C150.98 204.21 165.14 165.35 192.68 132.29C208.722 112.898 228.699 97.1331 251.29 86.04C277.42 73.24 308.17 66.0998 342.69 64.8198C345.69 64.7098 348.61 64.6499 351.47 64.6499L351.48 64.6699ZM351.47 63.73C348.63 63.73 345.68 63.7296 342.67 63.8896C194.55 69.3896 157.15 178.89 138.08 244.82C186.26 194.74 270.68 184 334.28 184C382.09 184 418.14 190.08 418.14 190.08C418.14 190.08 487.86 63.72 351.47 63.73V63.73Z" fill="#FFCF06"/><path id="Vector_18" d="M948.28 269.9C893.5 208.07 784.56 198.79 724.21 198.79C695.76 198.79 675.57 200.79 672.78 201.11C670.67 196.56 645.78 141.21 667.33 106.91C678.86 88.5497 701.64 79.2397 735.04 79.2397C741.21 79.2397 747.84 79.5697 754.73 80.2397C789.19 83.4097 819.57 92.24 845.01 106.5C867.017 118.844 886.152 135.719 901.15 156.01C927.28 191.09 939.31 231.41 948.28 269.9Z" fill="#FFCF06"/><path id="Vector_19" d="M735.04 79.71C741.2 79.71 747.81 80.0297 754.69 80.6597C789.08 83.8297 819.4 92.6599 844.79 106.86C866.742 119.173 885.83 136.008 900.79 156.25C926.48 190.76 938.52 230.34 947.43 268.25C923.58 242.03 887.73 222.84 840.82 211.19C797.99 200.56 753.77 198.33 724.22 198.33C696.68 198.33 676.87 200.22 673.07 200.61C668.304 189.966 664.619 178.87 662.07 167.49C655.15 136.07 661.32 117.34 667.71 107.16C679.15 88.9397 701.8 79.71 735.03 79.71H735.04ZM735.03 78.7798C613.24 78.7798 672.49 201.6 672.49 201.6C689.676 199.943 706.934 199.159 724.2 199.25C788.27 199.25 895.5 209.37 949.13 271.6C933.7 204.75 902.35 93.3397 754.76 79.7397C747.72 79.0731 741.143 78.7397 735.03 78.7397V78.7798Z" fill="#FFCF06"/><path id="Vector_20" d="M489.67 25.5298C486.54 35.3698 554.73 291.66 554.73 291.66L630.73 3.83008L489.67 25.5298Z" fill="#FFCF06"/><path id="Vector_21" d="M504.67 145.95V145.81V145.71V145.61L504.61 145.39C504.606 145.36 504.606 145.33 504.61 145.3C504.606 145.273 504.606 145.246 504.61 145.22V145.17L504.51 144.75L504.37 144.21V144.15C502.93 138.457 501.507 132.79 500.1 127.15V127.04L499.1 123.04C498.869 122.119 498.337 121.301 497.589 120.716C496.841 120.131 495.92 119.813 494.97 119.81C494.633 119.816 494.298 119.86 493.97 119.94C493.427 120.076 492.916 120.317 492.466 120.65C492.016 120.983 491.637 121.402 491.349 121.882C491.061 122.362 490.87 122.894 490.788 123.448C490.706 124.002 490.734 124.567 490.87 125.11C493.87 136.89 497.02 149.57 500.39 162.81C500.625 163.727 501.159 164.54 501.906 165.121C502.654 165.702 503.573 166.019 504.52 166.02C504.878 166.021 505.234 165.977 505.58 165.89C506.672 165.609 507.609 164.908 508.186 163.939C508.763 162.971 508.933 161.814 508.66 160.72C507.247 155.813 505.917 150.89 504.67 145.95Z" fill="#9105C6"/><path id="Vector_22" d="M484.41 64.0401C483.05 58.3301 481.76 52.8397 480.55 47.6397C480.332 46.7025 479.803 45.8666 479.05 45.2676C478.296 44.6686 477.363 44.3418 476.4 44.3399C476.064 44.3343 475.728 44.3712 475.4 44.4498C474.854 44.5758 474.339 44.8086 473.883 45.1343C473.427 45.46 473.039 45.8726 472.743 46.3482C472.447 46.8238 472.247 47.353 472.156 47.9058C472.064 48.4587 472.083 49.0242 472.21 49.5699C474.75 60.4999 477.8 73.2397 481.27 87.4297C481.495 88.3561 482.024 89.1802 482.773 89.7696C483.522 90.359 484.447 90.6796 485.4 90.6797C485.737 90.6778 486.073 90.6379 486.4 90.5601C486.944 90.4277 487.456 90.189 487.908 89.8585C488.36 89.5279 488.742 89.1116 489.032 88.6334C489.323 88.1551 489.517 87.6245 489.602 87.0714C489.688 86.5182 489.663 85.9534 489.53 85.4097C487.76 77.9897 486.04 70.8501 484.41 64.0401Z" fill="#9105C6"/><path id="Vector_23" d="M632.08 40.7599C631.725 40.6643 631.358 40.617 630.99 40.6197C630.051 40.621 629.137 40.9328 628.393 41.506C627.648 42.0791 627.113 42.882 626.87 43.7901L616.951 81.3502C616.663 82.4387 616.816 83.5966 617.378 84.5724C617.94 85.5481 618.865 86.2627 619.951 86.5602C620.307 86.6509 620.673 86.6976 621.041 86.6998C621.982 86.6996 622.897 86.3875 623.643 85.8121C624.388 85.2368 624.922 84.431 625.161 83.5201L635.08 45.9698C635.371 44.8812 635.219 43.7222 634.656 42.7457C634.094 41.7693 633.168 41.055 632.08 40.7599Z" fill="#9105C6"/><path id="Vector_24" d="M592.41 190.98C592.052 190.882 591.682 190.831 591.31 190.83C590.369 190.834 589.456 191.147 588.711 191.722C587.967 192.297 587.432 193.101 587.19 194.01L577.27 231.56C576.979 232.649 577.132 233.808 577.694 234.784C578.257 235.761 579.183 236.475 580.27 236.77C580.625 236.869 580.992 236.919 581.36 236.92C582.301 236.918 583.215 236.605 583.961 236.03C584.706 235.455 585.24 234.65 585.48 233.74L595.4 196.19C595.691 195.103 595.54 193.944 594.98 192.968C594.419 191.992 593.496 191.277 592.41 190.98V190.98Z" fill="#9105C6"/><path id="Vector_25" d="M612.24 115.87C611.885 115.771 611.518 115.72 611.15 115.72C610.209 115.723 609.296 116.037 608.551 116.612C607.806 117.187 607.272 117.991 607.03 118.9L597.11 156.45C596.819 157.538 596.972 158.698 597.534 159.674C598.096 160.651 599.023 161.365 600.11 161.66C600.465 161.759 600.832 161.809 601.2 161.81C602.141 161.808 603.055 161.495 603.801 160.92C604.546 160.345 605.08 159.54 605.32 158.63L615.24 121.08C615.531 119.991 615.378 118.832 614.816 117.855C614.254 116.879 613.327 116.165 612.24 115.87V115.87Z" fill="#9105C6"/><path id="Vector_26" d="M572.57 266.08C572.211 265.99 571.841 265.943 571.47 265.94C570.529 265.942 569.615 266.255 568.87 266.83C568.125 267.405 567.59 268.21 567.35 269.12L557.43 306.67C557.14 307.759 557.292 308.918 557.854 309.895C558.417 310.871 559.343 311.585 560.43 311.88C560.786 311.975 561.152 312.023 561.52 312.02C562.46 312.019 563.373 311.707 564.118 311.134C564.863 310.561 565.398 309.758 565.64 308.85L575.56 271.29C575.849 270.203 575.696 269.046 575.136 268.07C574.577 267.095 573.654 266.38 572.57 266.08V266.08Z" fill="#9105C6"/><path id="Vector_27" d="M547.48 311.03V310.93V310.85C546.05 305.45 544.33 298.9 542.35 291.41L542.29 291.2V291.08V291.02C542.296 290.95 542.296 290.88 542.29 290.81V290.81C540.9 285.55 539.4 279.81 537.81 273.75C537.568 272.839 537.032 272.033 536.285 271.458C535.538 270.884 534.623 270.571 533.68 270.57C533.316 270.573 532.953 270.62 532.6 270.71C531.513 271.005 530.587 271.719 530.024 272.695C529.462 273.672 529.31 274.831 529.6 275.92C532.96 288.74 536.29 301.39 539.49 313.51C539.732 314.418 540.267 315.221 541.012 315.794C541.757 316.367 542.67 316.678 543.61 316.68C543.978 316.682 544.345 316.636 544.7 316.54C545.788 316.245 546.714 315.531 547.276 314.554C547.838 313.578 547.991 312.419 547.7 311.33L547.48 311.03Z" fill="#9105C6"/><path id="Vector_28" d="M522.22 214.45C522.22 214.33 522.15 214.18 522.11 214.06C522.115 214.03 522.115 214 522.11 213.97L518.11 198.37C517.97 197.828 517.724 197.319 517.387 196.873C517.05 196.426 516.628 196.05 516.145 195.767C515.663 195.483 515.129 195.297 514.575 195.219C514.021 195.142 513.457 195.174 512.915 195.315C512.373 195.455 511.865 195.701 511.418 196.039C510.971 196.376 510.595 196.797 510.312 197.28C510.028 197.762 509.842 198.295 509.765 198.85C509.687 199.404 509.72 199.968 509.86 200.51C512.98 212.62 516.26 225.28 519.6 238.14C519.84 239.051 520.374 239.857 521.119 240.434C521.864 241.011 522.778 241.326 523.72 241.33C524.084 241.328 524.447 241.281 524.8 241.19C525.343 241.05 525.852 240.805 526.3 240.467C526.747 240.13 527.123 239.707 527.407 239.224C527.69 238.741 527.875 238.206 527.951 237.651C528.027 237.096 527.993 236.531 527.85 235.99C525.99 229.01 524.12 221.81 522.22 214.45Z" fill="#9105C6"/><path id="Vector_29" d="M464.82 769.39C464.82 769.39 472.58 651.7 585.2 649.55C697.82 647.4 573.5 790.41 573.5 790.41C573.5 790.41 695.71 897.69 597.43 907.06C499.15 916.43 464.82 769.39 464.82 769.39Z" fill="#9105C6"/><path id="Vector_30" d="M568.49 784.24C566.67 783.66 564.897 783.137 563.17 782.67C562.731 782.529 562.33 782.289 561.999 781.968C561.668 781.647 561.415 781.254 561.26 780.82C559.39 776.28 562.71 766.29 565.32 760.82C574.82 749.35 579.92 735.42 580.32 719.52C580.344 718.486 579.956 717.484 579.242 716.736C578.527 715.988 577.545 715.554 576.51 715.53C575.476 715.506 574.475 715.894 573.726 716.608C572.978 717.323 572.544 718.306 572.52 719.34C572.19 733.65 567.73 745.93 559.24 756.07C559.069 756.241 558.915 756.428 558.78 756.63C552.993 763.185 546.06 768.63 538.32 772.7C527.634 778.378 516.07 782.222 504.11 784.07C503.389 784.155 502.705 784.44 502.138 784.893C501.57 785.346 501.14 785.95 500.898 786.635C500.655 787.32 500.609 788.059 500.765 788.769C500.921 789.478 501.273 790.13 501.78 790.65C500.047 792.2 498.53 793.976 497.27 795.93C496.74 796.818 496.584 797.881 496.837 798.884C497.091 799.888 497.732 800.749 498.62 801.28C499.509 801.81 500.572 801.966 501.575 801.713C502.578 801.46 503.44 800.818 503.97 799.93C504.56 798.93 518.91 776.73 566.17 791.66C566.659 791.814 567.173 791.871 567.683 791.826C568.194 791.782 568.69 791.638 569.145 791.401C569.6 791.165 570.003 790.842 570.332 790.449C570.662 790.057 570.911 789.603 571.065 789.115C571.22 788.626 571.276 788.112 571.232 787.602C571.187 787.092 571.043 786.595 570.807 786.14C570.57 785.686 570.247 785.282 569.854 784.953C569.462 784.623 569.009 784.374 568.52 784.22L568.49 784.24ZM553.15 780.36C549.793 779.735 546.405 779.285 543 779.01C546.64 776.987 550.129 774.704 553.44 772.18C552.923 774.875 552.825 777.635 553.15 780.36Z" fill="#000002"/><path id="Vector_31" d="M385.63 494.45L366.35 480.02C371.84 470.95 373.35 464.02 373.42 463.56C373.708 461.978 373.367 460.346 372.468 459.013C371.569 457.679 370.185 456.75 368.61 456.424C367.036 456.097 365.396 456.4 364.041 457.266C362.687 458.132 361.724 459.494 361.36 461.06C361.36 461.19 358.45 473.96 345.51 486.51C328.2 503.29 300.68 512.17 265.94 512.17C249.66 512.17 234.94 509.836 221.78 505.17C221.329 504.943 220.852 504.771 220.36 504.66C205.917 499.449 192.92 490.88 182.44 479.66C167.44 463.55 162.6 447.12 162.53 446.89C162.044 445.374 160.989 444.105 159.588 443.35C158.187 442.595 156.547 442.411 155.014 442.838C153.48 443.265 152.171 444.268 151.361 445.639C150.551 447.01 150.304 448.641 150.67 450.19C150.86 450.89 155.18 466.05 168.67 482.55L150.38 496.83C149.083 497.826 148.235 499.296 148.022 500.917C147.809 502.539 148.249 504.178 149.245 505.475C150.241 506.772 151.711 507.62 153.333 507.833C154.954 508.046 156.593 507.606 157.89 506.61L176.95 491.74C186.388 500.882 197.393 508.253 209.44 513.5L195.33 533.07C194.857 533.726 194.519 534.47 194.333 535.257C194.148 536.045 194.119 536.861 194.249 537.66C194.379 538.458 194.665 539.223 195.091 539.912C195.516 540.6 196.074 541.197 196.73 541.67C197.387 542.143 198.13 542.481 198.918 542.667C199.705 542.852 200.521 542.881 201.32 542.751C202.119 542.621 202.884 542.335 203.572 541.909C204.26 541.483 204.857 540.927 205.33 540.27L221.39 517.99C231.324 521.116 241.579 523.108 251.96 523.93V555.27C251.927 556.099 252.061 556.926 252.355 557.702C252.65 558.478 253.098 559.187 253.672 559.785C254.247 560.384 254.937 560.86 255.701 561.185C256.464 561.51 257.285 561.678 258.115 561.678C258.945 561.678 259.766 561.51 260.53 561.185C261.293 560.86 261.983 560.384 262.558 559.785C263.133 559.187 263.581 558.478 263.875 557.702C264.169 556.926 264.304 556.099 264.27 555.27V524.49H265.93C280.421 524.638 294.872 522.931 308.93 519.41L318 539.22C318.694 540.684 319.936 541.815 321.458 542.37C322.98 542.925 324.659 542.857 326.132 542.183C327.605 541.508 328.753 540.281 329.327 538.766C329.901 537.251 329.856 535.571 329.2 534.09L320.78 515.7C336.6 509.83 347.45 501.9 354.71 494.7C356.29 493.12 357.71 491.55 359.08 489.99L378.21 504.31C379.52 505.24 381.142 505.62 382.729 505.371C384.316 505.122 385.743 504.263 386.706 502.977C387.669 501.691 388.091 500.079 387.883 498.486C387.674 496.893 386.851 495.445 385.59 494.45H385.63Z" fill="#000002"/><path id="Vector_32" d="M919.1 496.88L900.81 482.61C914.25 466.11 918.57 450.95 918.76 450.25C919.126 448.701 918.878 447.07 918.069 445.699C917.259 444.328 915.95 443.325 914.416 442.898C912.883 442.471 911.243 442.655 909.842 443.41C908.441 444.165 907.386 445.434 906.9 446.95C906.9 447.11 902.07 463.57 886.99 479.72C876.507 490.943 863.506 499.512 849.06 504.72C848.571 504.833 848.098 505.004 847.65 505.23C834.51 509.85 819.79 512.183 803.49 512.23C768.75 512.23 741.23 503.35 723.92 486.57C710.98 474.02 708.1 461.25 708.08 461.15C707.752 459.549 706.802 458.144 705.439 457.244C704.075 456.344 702.41 456.022 700.81 456.35C699.209 456.678 697.804 457.627 696.904 458.991C696.004 460.354 695.682 462.019 696.01 463.62C696.1 464.05 697.59 471.01 703.08 480.08L683.8 494.51C683.129 494.985 682.561 495.591 682.128 496.289C681.695 496.988 681.406 497.767 681.279 498.579C681.151 499.391 681.188 500.221 681.386 501.019C681.584 501.817 681.94 502.567 682.432 503.225C682.925 503.883 683.545 504.436 684.254 504.851C684.964 505.266 685.749 505.535 686.565 505.641C687.38 505.748 688.208 505.691 689.001 505.473C689.793 505.254 690.534 504.879 691.18 504.37L710.31 490.05C711.65 491.61 713.1 493.18 714.68 494.76C721.94 501.95 732.79 509.88 748.61 515.76L740.19 534.15C739.534 535.631 739.489 537.311 740.063 538.826C740.637 540.34 741.785 541.568 743.258 542.243C744.73 542.917 746.41 542.985 747.932 542.43C749.454 541.876 750.696 540.744 751.39 539.28L760.46 519.47C774.517 522.991 788.968 524.698 803.46 524.55H805.12V555.33C805.086 556.159 805.221 556.986 805.515 557.762C805.809 558.538 806.257 559.247 806.832 559.845C807.407 560.444 808.097 560.92 808.86 561.245C809.624 561.57 810.445 561.738 811.275 561.738C812.104 561.738 812.926 561.57 813.689 561.245C814.453 560.92 815.142 560.444 815.717 559.845C816.292 559.247 816.74 558.538 817.034 557.762C817.329 556.986 817.463 556.159 817.43 555.33V523.99C827.811 523.168 838.066 521.176 848 518.05L864.06 540.33C864.532 540.987 865.13 541.543 865.818 541.969C866.506 542.395 867.271 542.681 868.07 542.811C868.868 542.941 869.685 542.912 870.472 542.727C871.26 542.541 872.003 542.203 872.66 541.73C873.316 541.257 873.873 540.66 874.299 539.972C874.725 539.284 875.011 538.518 875.141 537.72C875.271 536.921 875.242 536.105 875.057 535.317C874.871 534.53 874.532 533.786 874.06 533.13L859.95 513.56C871.995 508.31 883 500.94 892.44 491.8L911.5 506.67C912.132 507.206 912.867 507.609 913.659 507.854C914.452 508.099 915.285 508.182 916.11 508.097C916.936 508.012 917.735 507.762 918.461 507.361C919.187 506.96 919.824 506.416 920.335 505.762C920.846 505.109 921.219 504.359 921.433 503.558C921.647 502.756 921.696 501.92 921.579 501.099C921.462 500.278 921.18 499.489 920.751 498.779C920.321 498.07 919.753 497.454 919.08 496.97L919.1 496.88Z" fill="#000002"/><path id="Vector_33" d="M1050.66 715.16L622.89 999.74C601.59 1013.91 574.65 1021.74 547.02 1021.74C517.91 1021.74 489.87 1013.18 468.07 997.65L51.8896 701.07C41.6999 693.848 30.6048 687.998 18.8896 683.67V831.61L232.17 935.18C236.776 937.416 240.533 941.086 242.877 945.639C245.221 950.191 246.026 955.381 245.17 960.43C242.26 977.72 226.95 995.18 154.55 1037.89C146.37 1042.72 137.74 1047.7 128.79 1052.77C145.372 1058.34 162.749 1061.17 180.24 1061.15H899.79C914.914 1061.16 929.964 1059.05 944.5 1054.87C934.02 1048.27 923.96 1041.8 914.5 1035.53C848.82 991.99 836.37 974.16 836.37 956.48C836.381 951.725 837.823 947.083 840.509 943.159C843.195 939.235 847.001 936.211 851.43 934.48L1061.14 852.48V708.83C1057.55 710.8 1054.05 712.9 1050.66 715.16Z" fill="#FFCF06"/><path id="Vector_34" d="M58.7197 691.43L474.89 987.98C494.7 1002.1 520.3 1009.87 546.98 1009.87C572.29 1009.87 596.91 1002.78 616.28 989.87L1044.07 705.28C1049.53 701.649 1055.2 698.363 1061.07 695.44V682.33C1052.86 686.052 1044.97 690.429 1037.47 695.42L609.68 980.01C591.61 992.01 569.26 998.01 546.94 998.01C523.51 998.01 500.11 991.42 481.72 978.32L65.5897 681.78C51.3255 671.67 35.5686 663.853 18.8896 658.61V671.03C33.0799 675.875 46.4953 682.746 58.7197 691.43V691.43Z" fill="#F0549E"/><path id="Vector_35" d="M855.74 945.44C853.527 946.308 851.626 947.82 850.283 949.782C848.941 951.743 848.218 954.063 848.21 956.44C848.21 969.35 860.4 985.44 921.04 1025.62C932.85 1033.44 945.59 1041.62 958.95 1049.92C963.403 1048.16 967.737 1046.21 971.95 1044.08C910.08 1005.75 860 971.17 860 956.44L1061.09 877.8V865.11L855.74 945.44Z" fill="#F0549E"/><path id="Vector_36" d="M148.49 1027.68C216.03 987.84 231.31 971.19 233.49 958.45C233.914 955.924 233.509 953.329 232.335 951.052C231.162 948.776 229.283 946.94 226.98 945.82L18.8896 844.76V857.93L221.82 956.47C219.24 971.76 166.99 1004.47 101.76 1040.78C105.913 1043.1 110.173 1045.24 114.54 1047.2C126.42 1040.51 137.89 1033.97 148.49 1027.68Z" fill="#F0549E"/><path id="Vector_37" d="M154.51 1037.88C226.91 995.17 242.22 977.71 245.13 960.42C245.986 955.371 245.181 950.181 242.837 945.628C240.493 941.076 236.736 937.406 232.13 935.17L18.8896 831.61V844.77L226.99 945.83C229.293 946.95 231.172 948.785 232.345 951.062C233.519 953.339 233.924 955.934 233.5 958.46C231.35 971.2 216.07 987.85 148.5 1027.69C137.85 1033.98 126.43 1040.52 114.5 1047.21C119.166 1049.28 123.916 1051.13 128.75 1052.77C137.7 1047.69 146.33 1042.71 154.51 1037.88Z" fill="#F0549E"/><path id="Vector_38" d="M848.21 956.47C848.218 954.093 848.941 951.773 850.283 949.812C851.626 947.851 853.527 946.338 855.74 945.47L1061.14 865.14V852.43L851.43 934.43C847.001 936.161 843.196 939.185 840.51 943.109C837.824 947.033 836.381 951.674 836.37 956.43C836.37 974.11 848.82 991.94 914.5 1035.48C923.96 1041.75 934.02 1048.22 944.5 1054.82C949.42 1053.41 954.237 1051.78 958.95 1049.91C945.59 1041.57 932.85 1033.43 921.04 1025.61C860.4 985.45 848.21 969.38 848.21 956.47Z" fill="#F0549E"/><path id="Vector_39" d="M51.8896 701.07L468.05 997.61C489.85 1013.14 517.89 1021.7 547 1021.7C574.63 1021.7 601.57 1013.89 622.87 999.7L1050.66 715.12C1054.05 712.86 1057.55 710.76 1061.14 708.79V695.42C1055.27 698.343 1049.6 701.629 1044.14 705.26L616.35 989.85C596.98 1002.74 572.35 1009.85 547.05 1009.85C520.37 1009.85 494.77 1002.08 474.96 987.96L58.7596 691.41C46.5211 682.733 33.0921 675.873 18.8896 671.04V683.67C30.6048 687.998 41.6999 693.848 51.8896 701.07V701.07Z" fill="#F0549E"/><path id="Vector_40" d="M457.08 960.73L419.18 933.73C418.465 933.22 417.608 932.947 416.73 932.95C415.826 932.948 414.945 933.234 414.214 933.766C413.483 934.298 412.941 935.048 412.665 935.909C412.388 936.769 412.393 937.695 412.678 938.553C412.963 939.41 413.514 940.155 414.25 940.68L452.13 967.68C452.849 968.198 453.714 968.474 454.6 968.47C455.504 968.472 456.385 968.186 457.115 967.654C457.846 967.122 458.389 966.372 458.665 965.511C458.941 964.651 458.936 963.724 458.651 962.867C458.366 962.009 457.816 961.264 457.08 960.74V960.73Z" fill="#9105C6"/><path id="Vector_41" d="M783.89 865.04C783.061 865.037 782.25 865.281 781.56 865.74L742.79 891.53C741.851 892.16 741.201 893.137 740.983 894.246C740.764 895.355 740.995 896.506 741.625 897.445C742.255 898.384 743.232 899.034 744.341 899.252C745.451 899.471 746.601 899.24 747.54 898.61L786.26 872.85C787.024 872.344 787.604 871.604 787.914 870.742C788.224 869.879 788.248 868.94 787.982 868.063C787.716 867.186 787.174 866.418 786.437 865.874C785.7 865.329 784.807 865.037 783.89 865.04V865.04Z" fill="#9105C6"/><path id="Vector_42" d="M706.44 916.61C705.6 916.61 704.78 916.857 704.08 917.32L665.35 943.09C664.586 943.596 664.006 944.336 663.696 945.198C663.386 946.061 663.362 947 663.628 947.877C663.894 948.754 664.436 949.522 665.173 950.066C665.91 950.611 666.803 950.903 667.72 950.9C668.56 950.9 669.382 950.649 670.08 950.18L708.8 924.42C709.563 923.914 710.142 923.175 710.453 922.314C710.763 921.453 710.787 920.514 710.523 919.638C710.258 918.761 709.718 917.994 708.982 917.448C708.247 916.903 707.355 916.609 706.44 916.61V916.61Z" fill="#9105C6"/><path id="Vector_43" d="M628.99 968.08C628.157 968.079 627.342 968.327 626.65 968.79L609.75 980.03L609.66 980.09H609.6H609.55L609.46 980.15H609.4H609.34L609.1 980.3L609.03 980.35C602.994 984.224 596.569 987.455 589.86 989.99V989.99H589.76L589.39 990.13H589.3L589.02 990.24H588.94H588.86L588.59 990.34H588.52H588.44H588.37L588.22 990.39H588.16H588.11H588.05H587.99H587.89H587.81H587.74H587.66H587.55H587.45H587.36H587.25H587.14C586.611 990.573 586.123 990.859 585.704 991.23C585.285 991.602 584.944 992.053 584.699 992.557C584.454 993.06 584.311 993.607 584.278 994.167C584.245 994.726 584.322 995.286 584.505 995.815C584.688 996.344 584.974 996.832 585.346 997.251C585.717 997.67 586.168 998.011 586.672 998.256C587.176 998.501 587.723 998.644 588.282 998.677C588.841 998.71 589.401 998.633 589.93 998.45C598.899 995.378 607.441 991.178 615.35 985.95L632.23 974.72C632.994 974.213 633.574 973.474 633.884 972.611C634.194 971.749 634.218 970.81 633.952 969.933C633.686 969.056 633.144 968.288 632.407 967.744C631.67 967.199 630.777 966.906 629.86 966.91L628.99 968.08Z" fill="#9105C6"/><path id="Vector_44" d="M861.33 813.52C860.498 813.517 859.684 813.76 858.99 814.22L820.23 840C819.29 840.629 818.638 841.605 818.418 842.714C818.197 843.823 818.427 844.975 819.055 845.915C819.684 846.855 820.66 847.507 821.769 847.728C822.879 847.948 824.03 847.718 824.97 847.09L863.7 821.33C864.464 820.824 865.044 820.084 865.354 819.222C865.664 818.359 865.688 817.42 865.422 816.543C865.156 815.666 864.614 814.898 863.877 814.354C863.14 813.809 862.247 813.517 861.33 813.52V813.52Z" fill="#9105C6"/><path id="Vector_45" d="M938.779 761.99C937.943 761.989 937.125 762.236 936.43 762.7L897.68 788.48C896.739 789.109 896.087 790.085 895.867 791.194C895.647 792.303 895.876 793.455 896.504 794.395C897.133 795.335 898.109 795.987 899.219 796.208C900.328 796.428 901.479 796.198 902.42 795.57L941.139 769.81C941.9 769.302 942.477 768.562 942.786 767.701C943.095 766.84 943.119 765.902 942.855 765.026C942.59 764.15 942.051 763.383 941.318 762.836C940.584 762.289 939.694 761.992 938.779 761.99Z" fill="#9105C6"/><path id="Vector_46" d="M1016.22 710.47C1015.38 710.468 1014.56 710.719 1013.87 711.19L1003.76 717.91L1003.01 718.41L1002.88 718.49L1002.8 718.55L1002.69 718.62L1002.54 718.72L1002.44 718.79L1002.26 718.91L999.89 720.48L975.51 736.7C974.569 737.326 973.914 738.3 973.691 739.408C973.468 740.517 973.694 741.668 974.32 742.61C974.946 743.551 975.92 744.206 977.029 744.429C978.137 744.652 979.289 744.426 980.23 743.8L1018.96 718.04C1019.72 717.531 1020.3 716.791 1020.61 715.929C1020.92 715.066 1020.94 714.128 1020.67 713.251C1020.41 712.375 1019.87 711.607 1019.13 711.062C1018.4 710.516 1017.51 710.22 1016.59 710.22L1016.22 710.47Z" fill="#9105C6"/><path id="Vector_47" d="M78.2998 690.84L65.6398 681.84L65.5498 681.78H65.4898H65.4398H65.3898H65.3398H65.2798L65.2098 681.72H65.1598L65.0898 681.67H65.0399H64.9898H64.9398H64.8898H64.8398H64.7899H64.7398L64.6098 681.59H64.5598H64.5098H64.4598H64.4098H64.3598H64.2998H64.2498L64.1398 681.51H64.0898H64.0298H63.9799H63.9199H63.8598L63.7899 681.46L63.5399 681.29L63.4598 681.24L63.3898 681.19H63.3298L63.2598 681.14L63.1898 681.09H63.1198L63.0498 681.04L62.6098 680.75L62.5298 680.7L62.4598 680.65H62.3898L62.3198 680.6L62.2498 680.55L62.1699 680.5L61.6198 680.15L61.5298 680.09L61.4398 680.03L61.3598 679.97C54.9067 675.84 48.1737 672.164 41.2098 668.97C40.6557 668.723 40.0564 668.594 39.4498 668.59C38.48 668.595 37.5409 668.931 36.7872 669.541C36.0334 670.151 35.5099 671 35.3027 671.948C35.0955 672.895 35.217 673.885 35.6473 674.754C36.0775 675.623 36.7908 676.32 37.6699 676.73C46.5549 680.802 55.0358 685.704 62.9998 691.37L75.7098 700.42C76.4298 700.936 77.294 701.212 78.1798 701.21C79.0836 701.212 79.9646 700.926 80.6954 700.394C81.4262 699.862 81.9689 699.112 82.245 698.251C82.5211 697.391 82.5163 696.465 82.2314 695.607C81.9464 694.749 81.3961 694.004 80.6598 693.48L78.2998 690.84Z" fill="#9105C6"/><path id="Vector_48" d="M154.08 744.83L131.89 729L131.71 728.87L131.61 728.8H131.56L116.29 717.92C115.571 717.401 114.707 717.121 113.82 717.12C112.917 717.121 112.037 717.41 111.308 717.943C110.579 718.476 110.038 719.227 109.762 720.087C109.487 720.947 109.491 721.873 109.774 722.73C110.058 723.588 110.606 724.333 111.34 724.86L149.22 751.86C150.139 752.523 151.284 752.794 152.403 752.613C153.521 752.432 154.522 751.814 155.185 750.895C155.848 749.976 156.119 748.831 155.938 747.712C155.757 746.594 155.139 745.593 154.22 744.93L154.08 744.83Z" fill="#9105C6"/><path id="Vector_49" d="M229.82 798.8L191.91 771.8C190.982 771.146 189.832 770.888 188.713 771.082C187.594 771.276 186.599 771.907 185.945 772.835C185.291 773.763 185.033 774.913 185.227 776.032C185.421 777.15 186.052 778.146 186.98 778.8L224.86 805.8C225.316 806.128 225.832 806.364 226.378 806.493C226.925 806.622 227.492 806.641 228.046 806.551C228.6 806.461 229.131 806.263 229.609 805.967C230.087 805.672 230.502 805.286 230.83 804.83C231.158 804.374 231.394 803.858 231.523 803.312C231.652 802.765 231.671 802.198 231.581 801.644C231.491 801.09 231.293 800.558 230.998 800.081C230.702 799.603 230.316 799.188 229.86 798.86L229.82 798.8Z" fill="#9105C6"/><path id="Vector_50" d="M1051.28 692.01C1051.64 692.703 1052.18 693.285 1052.85 693.69C1053.52 694.096 1054.29 694.31 1055.07 694.31C1055.77 694.313 1056.45 694.148 1057.07 693.83C1058.43 693.12 1059.8 692.45 1061.18 691.78V682.38C1058.48 683.61 1055.79 684.89 1053.18 686.26C1052.68 686.511 1052.23 686.86 1051.86 687.286C1051.49 687.711 1051.21 688.205 1051.03 688.74C1050.86 689.274 1050.79 689.838 1050.83 690.399C1050.87 690.961 1051.03 691.508 1051.28 692.01V692.01Z" fill="#9105C6"/><path id="Vector_51" d="M381.34 906.76L362.78 893.54L343.51 879.81C342.589 879.154 341.446 878.889 340.331 879.076C339.216 879.263 338.221 879.884 337.565 880.805C336.908 881.725 336.644 882.868 336.831 883.983C337.018 885.098 337.639 886.093 338.56 886.75L376.44 913.75C377.16 914.266 378.024 914.542 378.91 914.54C379.813 914.543 380.693 914.259 381.424 913.729C382.155 913.2 382.699 912.451 382.977 911.592C383.256 910.733 383.254 909.808 382.972 908.95C382.69 908.092 382.143 907.346 381.41 906.82L381.34 906.76Z" fill="#9105C6"/><path id="Vector_52" d="M540.48 997.86C530.054 997.331 519.74 995.449 509.8 992.26V992.26L509.55 992.18L509.3 992.1L509.06 992.02L508.82 991.94L508.58 991.86H508.46H508.35H508.23H508.12H508.01H507.9L507.67 991.78H507.56H507.44H507.33H507.22H507.12H507.01H506.91H506.81H506.72H506.62H506.53H506.43H506.35H506.24H506.15H506.04H505.97H505.87H505.79H505.69H505.61H505.51H505.44H505.35H505.29H505.23H505.14H505.08H504.98H504.91H504.81H504.74H504.64H504.57H504.48H504.42H504.33H504.26H504.17H504.11H504.01H503.95H503.86H503.79H503.69H503.62H503.52H503.45H503.35H503.29H503.19H503.12H503.03H502.96L502.86 991.73H502.79H502.69H502.63L502.53 991.68H502.46H502.36H502.29H502.19H502.11L502.02 991.63H501.95L501.85 991.58H501.76L501.66 991.53H501.57L501.47 991.48H501.38H501.28H501.2H501.1L501 991.43L500.89 991.38H500.78L500.56 991.28H500.46L500.36 991.23L500.14 991.13L499.92 991.03L499.7 990.92L499.48 990.82L499.25 990.71L499.02 990.6L498.78 990.49C498.196 990.208 497.557 990.062 496.91 990.06C495.945 990.057 495.008 990.381 494.251 990.98C493.495 991.578 492.964 992.416 492.745 993.355C492.527 994.295 492.634 995.281 493.049 996.152C493.464 997.023 494.162 997.728 495.03 998.15C510.096 1005.36 526.448 1009.49 543.13 1010.3H543.36C544.49 1010.33 545.585 1009.91 546.404 1009.13C547.224 1008.35 547.701 1007.28 547.73 1006.15C547.759 1005.02 547.338 1003.93 546.56 1003.11C545.782 1002.29 544.709 1001.81 543.58 1001.78L540.48 997.86Z" fill="#9105C6"/><path id="Vector_53" d="M305.56 852.77L267.69 825.77C266.767 825.169 265.647 824.948 264.565 825.153C263.482 825.358 262.521 825.974 261.882 826.871C261.243 827.768 260.975 828.878 261.135 829.968C261.295 831.058 261.87 832.044 262.74 832.72L300.62 859.72C301.338 860.241 302.203 860.521 303.09 860.52C303.992 860.516 304.87 860.226 305.598 859.692C306.326 859.158 306.865 858.408 307.14 857.548C307.414 856.688 307.409 855.764 307.125 854.907C306.841 854.051 306.293 853.306 305.56 852.78V852.77Z" fill="#9105C6"/><path id="Vector_54" d="M900.66 0H179.33C80.45 0 0 80.4498 0 179.34V900.66C0 999.55 80.45 1080 179.33 1080H900.66C999.55 1080 1080 999.55 1080 900.66V179.34C1080 80.4498 999.55 0 900.66 0ZM1051.57 890.23C1051.58 911.421 1047.41 932.405 1039.3 951.984C1031.19 971.564 1019.31 989.354 1004.33 1004.34C989.346 1019.33 971.559 1031.21 951.981 1039.32C932.404 1047.44 911.421 1051.61 890.23 1051.61H189.77C146.977 1051.61 105.937 1034.61 75.6783 1004.35C45.4193 974.093 28.42 933.052 28.42 890.26V189.77C28.42 146.977 45.4193 105.937 75.6783 75.6782C105.937 45.4192 146.977 28.4199 189.77 28.4199H890.23C911.418 28.4199 932.399 32.5934 951.974 40.7021C971.55 48.8109 989.336 60.6958 1004.32 75.6787C1019.3 90.6616 1031.18 108.449 1039.29 128.024C1047.4 147.6 1051.57 168.582 1051.57 189.77V890.23Z" fill="white"/></g></g></svg>