<svg viewBox="114.39999999999998 183.5962732919255 613.6000000000001 394.16149068322983" xmlns="http://www.w3.org/2000/svg" overflow="visible" xmlns:xlink="http://www.w3.org/1999/xlink" width="613.6000000000001px" height="394.16149068322983px"><g id="Master/Spot Illustration/Entertainment" stroke="none" stroke-width="1" fill="none" fill-rule="evenodd"><g id="Sofa" transform="translate(71.000000, 200.740000) scale(1 1)"><g id="Sofa/Blanket" stroke="none" stroke-width="1" fill="none" fill-rule="evenodd"><g id="Sofa-With-Blanket" transform="translate(81.000000, 104.000000)"><path d="M421.0928,83.0632 L410.0428,83.0632 L410.0428,26.6612 C410.0428,16.3732 401.7018,8.0322 391.4128,8.0322 L219.8288,8.0322 C216.5038,8.0322 213.8078,10.7282 213.8078,14.0532 C213.8078,10.7282 211.1118,8.0322 207.7858,8.0322 L36.2008,8.0322 C25.9128,8.0322 17.5718,16.3732 17.5718,26.6612 L17.5718,83.0632 L6.5228,83.0632 C3.1968,83.0632 0.4998,85.7592 0.4998,89.0842 L0.4998,228.3642 C0.4998,231.6892 3.1968,234.3852 6.5218,234.3852 L35.9258,234.3852 C39.2518,234.3852 41.9468,231.6892 41.9468,228.3642 C41.9468,231.6892 44.6438,234.3852 47.9688,234.3852 L379.6458,234.3852 C382.9718,234.3852 385.6678,231.6892 385.6678,228.3642 C385.6678,231.6892 388.3638,234.3852 391.6898,234.3852 L421.0928,234.3852 C424.4188,234.3852 427.1148,231.6892 427.1148,228.3642 L427.1148,89.0842 C427.1148,85.7592 424.4188,83.0632 421.0928,83.0632" id="Sofa" fill="#F5E8A4"/><path d="M34.0811,235.7752 L24.1011,269.7422 C23.9921,270.1092 23.6851,270.2402 23.4351,270.2402 C23.1841,270.2402 22.8771,270.1092 22.7681,269.7422 L12.7881,235.7752 C12.7261,235.5632 12.7671,235.3392 12.8981,235.1632 C13.0301,234.9872 13.2321,234.8852 13.4531,234.8852 L33.4161,234.8852 C33.6371,234.8852 33.8391,234.9872 33.9711,235.1632 C34.1021,235.3392 34.1431,235.5632 34.0811,235.7752 L34.0811,235.7752 Z M33.4161,233.8852 L13.4531,233.8852 C12.9141,233.8852 12.4211,234.1322 12.0981,234.5642 C11.7751,234.9952 11.6771,235.5402 11.8291,236.0562 L21.8101,270.0232 C22.0261,270.7622 22.6641,271.2402 23.4351,271.2402 C24.2051,271.2402 24.8431,270.7622 25.0601,270.0232 L35.0401,236.0562 C35.1921,235.5402 35.0941,234.9952 34.7711,234.5642 C34.4481,234.1322 33.9551,233.8852 33.4161,233.8852 L33.4161,233.8852 Z M420.6891,235.7752 L410.7081,269.7422 C410.6001,270.1092 410.2931,270.2402 410.0421,270.2402 C409.7921,270.2402 409.4851,270.1092 409.3771,269.7422 L399.3951,235.7752 C399.3341,235.5632 399.3741,235.3402 399.5061,235.1642 C399.6391,234.9872 399.8411,234.8852 400.0611,234.8852 L420.0231,234.8852 C420.2441,234.8852 420.4461,234.9872 420.5791,235.1642 C420.7111,235.3402 420.7511,235.5632 420.6891,235.7752 L420.6891,235.7752 Z M385.1671,201.6052 C384.4431,200.4402 383.3741,199.5102 382.0981,198.9722 C383.3721,198.4532 384.4431,197.5412 385.1671,196.3872 L385.1671,201.6052 Z M211.2401,198.4552 C212.3791,197.7402 213.2851,196.6872 213.8081,195.4332 C214.3301,196.6872 215.2361,197.7402 216.3751,198.4552 L211.2401,198.4552 Z M42.4471,201.6062 L42.4471,196.3872 C43.1721,197.5412 44.2421,198.4532 45.5181,198.9722 C44.2401,199.5102 43.1711,200.4402 42.4471,201.6062 L42.4471,201.6062 Z M427.1151,88.5852 C426.8391,88.5852 426.6151,88.8082 426.6151,89.0852 L426.6151,228.3642 C426.6151,231.4092 424.1381,233.8852 421.0931,233.8852 L391.6891,233.8852 C388.6441,233.8852 386.1671,231.4092 386.1671,228.3642 L386.1671,89.0892 C386.1671,89.0882 386.1681,89.0872 386.1681,89.0852 C386.1681,86.2302 388.3451,83.8752 391.1261,83.5912 C391.3101,83.5732 391.4991,83.5632 391.6891,83.5632 L410.0431,83.5632 C410.3191,83.5632 410.5431,83.3392 410.5431,83.0632 C410.5431,82.7872 410.3191,82.5632 410.0431,82.5632 L391.6891,82.5632 C388.0931,82.5632 385.1671,85.4892 385.1671,89.0852 L385.1671,160.6622 C384.0131,158.8232 381.9731,157.5942 379.6451,157.5942 L219.8291,157.5942 C217.5021,157.5942 215.4621,158.8232 214.3081,160.6622 L214.3081,14.0532 C214.3081,13.7772 214.0841,13.5532 213.8081,13.5532 C213.5311,13.5532 213.3081,13.7772 213.3081,14.0532 L213.3081,160.6622 C212.1531,158.8232 210.1131,157.5942 207.7861,157.5942 L47.9701,157.5942 C45.6431,157.5942 43.6021,158.8232 42.4471,160.6622 L42.4471,89.0852 C42.4471,85.4892 39.5211,82.5632 35.9261,82.5632 L6.5211,82.5632 C2.9261,82.5632 0.000100000001,85.4892 0.000100000001,89.0852 C0.000100000001,89.3612 0.2241,89.5852 0.5001,89.5852 C0.7761,89.5852 1.0001,89.3612 1.0001,89.0852 C1.0001,86.0402 3.4771,83.5632 6.5211,83.5632 L35.9261,83.5632 C38.9711,83.5632 41.4471,86.0402 41.4471,89.0852 L41.4471,228.3642 C41.4471,231.4092 38.9711,233.8852 35.9261,233.8852 C35.6491,233.8852 35.4261,234.1092 35.4261,234.3852 C35.4261,234.6622 35.6491,234.8852 35.9261,234.8852 C38.6541,234.8852 40.9931,233.1992 41.9651,230.8162 C42.9711,233.2042 45.3351,234.8852 48.0851,234.8852 C48.3611,234.8852 48.5851,234.6622 48.5851,234.3852 C48.5851,234.1092 48.3611,233.8852 48.0851,233.8852 C44.9771,233.8852 42.4471,231.3572 42.4471,228.2492 L42.4471,205.0912 C42.4471,201.9832 44.9771,199.4552 48.0851,199.4552 L379.5301,199.4552 C382.6391,199.4552 385.1671,201.9832 385.1671,205.0912 L385.1671,228.2492 C385.1671,231.3572 382.6391,233.8852 379.5301,233.8852 C379.2541,233.8852 379.0301,234.1092 379.0301,234.3852 C379.0301,234.6622 379.2541,234.8852 379.5301,234.8852 C382.2791,234.8852 384.6431,233.2042 385.6491,230.8162 C386.6211,233.1992 388.9611,234.8852 391.6891,234.8852 L398.5181,234.8852 C398.3521,235.2512 398.3201,235.6612 398.4361,236.0562 L408.4181,270.0232 C408.6351,270.7622 409.2721,271.2402 410.0421,271.2402 C410.8121,271.2402 411.4501,270.7622 411.6671,270.0232 L421.6481,236.0562 C421.7681,235.6522 421.7281,235.2332 421.5531,234.8622 C424.9351,234.6252 427.6151,231.8042 427.6151,228.3642 L427.6151,89.0852 C427.6151,88.8082 427.3921,88.5852 427.1151,88.5852 L427.1151,88.5852 Z" id="Fill-3" fill="#000"/><path d="M207.7861,148.4552 C210.8311,148.4552 213.3081,151.562247 213.3081,155.38177 L213.3081,191.52863 C213.3081,195.348153 210.8311,198.4552 207.7861,198.4552 L47.9701,198.4552 C44.9251,198.4552 42.4471,195.348153 42.4471,191.52863 L42.4471,155.38177 C42.4471,151.562247 44.9251,148.4552 47.9701,148.4552 L207.7861,148.4552 Z M379.6451,148.4552 C382.6901,148.4552 385.1671,151.562247 385.1671,155.38177 L385.1671,191.52863 C385.1671,195.348153 382.6901,198.4552 379.6451,198.4552 L219.8291,198.4552 C216.7841,198.4552 214.3081,195.348153 214.3081,191.52863 L214.3081,155.38177 C214.3081,151.562247 216.7841,148.4552 219.8291,148.4552 L379.6451,148.4552 Z" id="Cushions" fill="#F5E8A4"/><path d="M207.7861,148.4552 C210.8311,148.4552 213.3081,151.562247 213.3081,155.38177 L213.3081,191.52863 C213.3081,195.348153 210.8311,198.4552 207.7861,198.4552 L47.9701,198.4552 C44.9251,198.4552 42.4471,195.348153 42.4471,191.52863 L42.4471,155.38177 C42.4471,151.562247 44.9251,148.4552 47.9701,148.4552 L207.7861,148.4552 Z M379.6451,148.4552 C382.6901,148.4552 385.1671,151.562247 385.1671,155.38177 L385.1671,191.52863 C385.1671,195.348153 382.6901,198.4552 379.6451,198.4552 L219.8291,198.4552 C216.7841,198.4552 214.3081,195.348153 214.3081,191.52863 L214.3081,155.38177 C214.3081,151.562247 216.7841,148.4552 219.8291,148.4552 L379.6451,148.4552 Z" id="Cushions" stroke="#000"/><path d="M145.7148,106.3494 L75.2588,106.3494 C69.6748,106.3494 65.8818,100.6764 68.0168,95.5164 C68.3458,94.7184 68.5418,93.8724 68.5958,93.0114 L73.6898,11.9364 C73.9288,8.1224 76.8828,5.0374 80.6828,4.6334 L100.9938,2.4714 C101.4748,2.4204 101.9488,2.3254 102.4118,2.1864 L106.8288,0.8644 C108.4658,0.3734 110.2188,0.4324 111.8188,1.0304 L137.4528,3.4954 C137.8828,3.6564 138.3268,3.7784 138.7778,3.8614 L145.6638,5.1264 C149.3678,5.8074 152.0648,9.0274 152.0848,12.7934 L152.4168,75.9014 C152.4188,76.2244 152.4408,76.5464 152.4818,76.8674 L154.8668,95.2824 C155.0998,97.0734 154.7058,98.8894 153.7528,100.4234 L152.3728,102.6464 C150.9438,104.9494 148.4248,106.3494 145.7148,106.3494" id="Blanket" fill="#F48569"/><path d="M152.417,75.9011 L152.383,69.4031 L70.079,69.4031 L69.639,76.4101 L152.451,76.4101 C152.439,76.2401 152.418,76.0711 152.417,75.9011 L152.417,75.9011 Z M153.853,87.4451 L68.945,87.4451 L68.596,93.0111 C68.565,93.5001 68.478,93.9791 68.356,94.4521 L154.76,94.4521 L153.853,87.4451 Z M152.192,33.3181 L72.347,33.3181 L71.906,40.3251 L152.23,40.3251 L152.192,33.3181 Z M152.098,15.2761 L73.479,15.2761 L73.04,22.2831 L152.135,22.2831 L152.098,15.2761 Z M152.288,51.3601 L71.213,51.3601 L70.772,58.3671 L152.324,58.3671 L152.288,51.3601 Z" id="Lines" fill="#F1EFEF"/><path d="M102.0234,2.4978 C102.0544,2.5358 102.0864,2.5638 102.1284,2.5908 C102.1864,2.6318 102.2524,2.6618 102.3274,2.6748 C102.3324,2.6758 102.3354,2.6808 102.3394,2.6808 C102.3744,2.6878 105.7744,3.6838 102.9654,21.5778 C102.9224,21.8508 103.1094,22.1058 103.3824,22.1488 C103.4094,22.1528 103.4344,22.1548 103.4604,22.1548 C103.7024,22.1548 103.9154,21.9788 103.9544,21.7318 C105.7694,10.1618 105.0794,5.1968 103.9904,3.0928 C106.8984,4.0258 112.7714,6.9098 114.1234,15.1678 C114.1634,15.4128 114.3754,15.5868 114.6154,15.5868 C114.6424,15.5868 114.6694,15.5848 114.6974,15.5798 C114.9694,15.5358 115.1544,15.2778 115.1094,15.0058 C113.6184,5.8918 106.9104,2.9158 103.9224,2.0318 C105.4954,1.3918 108.3044,0.5498 111.0114,1.2948 C111.4444,1.4138 111.9504,1.5448 112.4774,1.5958 L135.6804,3.8278 C135.9524,3.8428 136.2004,3.6538 136.2264,3.3778 C136.2524,3.1028 136.0514,2.8578 135.7764,2.8318 L112.5734,0.5998 C112.1254,0.5568 111.6694,0.4378 111.2774,0.3298 C106.8414,-0.8872 102.3514,1.6438 102.1634,1.7528 C102.1534,1.7588 102.1464,1.7678 102.1364,1.7738 C102.1204,1.7848 102.1054,1.7968 102.0904,1.8108 C101.9474,1.9288 101.8664,2.1098 101.9074,2.2948 C101.9194,2.3508 101.9604,2.3888 101.9874,2.4348 C102.0004,2.4558 102.0074,2.4778 102.0234,2.4978 M72.1644,93.5188 C71.9794,93.7238 71.9954,94.0388 72.2004,94.2238 C72.2944,94.3108 72.4154,94.3528 72.5354,94.3528 C72.6704,94.3528 72.8064,94.2978 72.9054,94.1888 C73.1124,93.9608 78.0794,88.6338 86.9994,91.2338 C89.7324,92.0318 92.2114,91.6198 94.3634,90.0078 C103.8504,82.8928 103.9604,54.6418 103.9604,53.4418 C103.9604,53.1658 103.7364,52.9418 103.4604,52.9418 C103.1834,52.9418 102.9604,53.1658 102.9604,53.4418 C102.9604,53.7308 102.8544,82.3898 93.7624,89.2078 C91.8514,90.6418 89.7304,90.9898 87.2784,90.2728 C77.7494,87.4928 72.2174,93.4578 72.1644,93.5188 M145.7144,105.8498 L75.2584,105.8498 C72.8034,105.8498 70.5234,104.6308 69.1584,102.5898 C67.7944,100.5488 67.5404,97.9768 68.4784,95.7078 L68.4784,95.7048 C68.8304,94.8528 69.0384,93.9568 69.0944,93.0428 L74.1884,11.9678 C74.2064,11.6918 73.9964,11.4548 73.7204,11.4368 C73.4194,11.4128 73.2074,11.6308 73.1904,11.9048 L68.0964,92.9798 C68.0464,93.7848 67.8644,94.5738 67.5554,95.3238 C67.5544,95.3238 67.5544,95.3248 67.5544,95.3248 C66.4884,97.9028 66.7774,100.8268 68.3274,103.1448 C69.8774,105.4648 72.4684,106.8498 75.2584,106.8498 L145.7144,106.8498 C145.9914,106.8498 146.2144,106.6258 146.2144,106.3498 C146.2144,106.0728 145.9914,105.8498 145.7144,105.8498" id="Fill-10" fill="#000"/><path d="M385.167,131.4998 C385.167,145.9118 373.484,157.5948 359.072,157.5948 C344.661,157.5948 332.978,145.9118 332.978,131.4998 C332.978,117.0888 344.661,105.4048 359.072,105.4048 C373.484,105.4048 385.167,117.0888 385.167,131.4998" id="Round-Pillow" fill="#83BB9E"/><path d="M359.0723,158.0945 C344.4083,158.0945 332.4773,146.1635 332.4773,131.4995 L333.4773,131.4995 C333.4773,145.6135 344.9593,157.0945 359.0723,157.0945 C373.1853,157.0945 384.6673,145.6135 384.6673,131.4995 L385.6673,131.4995 C385.6673,146.1635 373.7363,158.0945 359.0723,158.0945" id="Fill-15" fill="#231F20"/></g></g></g><g id="Object" transform="translate(525.000000, 137.740000) scale(1 1)"><g id="Object/Turntable" stroke="none" stroke-width="1" fill="none" fill-rule="evenodd"><g id="Turntable" transform="translate(31.000000, 335.000000)"><path d="M37,27 L37,41.7869677 L52.4585788,41.7869677 L95.338018,72.3934838 L52.4585788,103 L58.7835438,103 L98.5010009,74.6507773 L138.216456,103 L144.542422,103 L101.662983,72.3934838 L144.542422,41.7869677 L160,41.7869677 L160,27 L37,27 Z M59,42 L138,42 L98.5009955,71 L59,42 Z" id="Table" fill="#673A18"/><path d="M160.3557,41.2264993 L37.9717,41.2264993 L37.9717,26.9583387 C37.9717,26.6748654 37.7487,26.4448 37.4717,26.4448 C37.1957,26.4448 36.9717,26.6748654 36.9717,26.9583387 L36.9717,41.7400381 C36.9717,42.0235115 37.1957,42.2535768 37.4717,42.2535768 L59.0777,42.2535768 L143.3177,102.417723 L138.5927,102.417723 C138.3167,102.417723 138.0927,102.647788 138.0927,102.931261 C138.0927,103.215762 138.3167,103.4448 138.5927,103.4448 L144.9127,103.4448 C145.1307,103.4448 145.3247,103.299982 145.3897,103.085323 C145.4547,102.871691 145.3767,102.637517 145.1977,102.510159 L60.8287,42.2535768 L160.3557,42.2535768 C160.6317,42.2535768 160.8557,42.0235115 160.8557,41.7400381 C160.8557,41.4565647 160.6317,41.2264993 160.3557,41.2264993" id="Fill-2" fill="#000"/><polygon fill="#EC7068" points="44.295 26.945 153.569 26.945 153.569 10.016 44.295 10.016"/><path d="M145.551,23.6473 L113.091,23.6473 C110.768,23.6473 108.884,21.7633 108.884,19.4403 L108.884,19.3823 C108.884,17.0593 110.768,15.1763 113.091,15.1763 L145.551,15.1763 C147.874,15.1763 149.757,17.0593 149.757,19.3823 L149.757,19.4403 C149.757,21.7633 147.874,23.6473 145.551,23.6473" id="Fill-6" fill="#F1EFEF"/><path d="M109.7835,72.4813 C106.1165,88.1843 90.4135,100.9153 74.7105,100.9153 C59.0065,100.9153 49.2485,88.1843 52.9155,72.4813 C56.5825,56.7773 72.2845,44.0463 87.9885,44.0463 C103.6925,44.0463 113.4505,56.7773 109.7835,72.4813" id="Fill-7" fill="#000"/><path d="M88.6155,72.4813 C87.6785,76.4943 83.6655,79.7473 79.6525,79.7473 C75.6395,79.7473 73.1455,76.4943 74.0835,72.4813 C75.0195,68.4683 79.0325,65.2143 83.0465,65.2143 C87.0585,65.2143 89.5525,68.4683 88.6155,72.4813 M85.0055,56.8263 C76.3585,56.8263 67.7125,63.8353 65.6935,72.4813 C63.6755,81.1273 69.0475,88.1363 77.6935,88.1363 C86.3405,88.1363 94.9855,81.1273 97.0045,72.4813 C99.0235,63.8353 93.6505,56.8263 85.0055,56.8263" id="Disk-1" fill="#EC7068"/><path d="M142.4964,6.1171 L69.9054,6.1171 L70.1424,1.3711 C70.1424,1.3541 70.1424,1.3371 70.1424,1.3201 C70.1354,1.1941 70.0784,1.0841 69.9974,1.0001 L142.4964,1.0001 L142.4964,6.1171 Z M149.7814,6.1171 L143.4964,6.1171 L143.4964,0.5001 C143.4964,0.2231 143.2724,0.0001 142.9964,0.0001 L62.3304,0.0001 C62.0544,0.0001 61.8304,0.2231 61.8304,0.5001 C61.8304,0.7761 62.0544,1.0001 62.3304,1.0001 L69.2834,1.0001 C69.1904,1.0961 69.1354,1.2261 69.1424,1.3711 L69.3784,6.1171 L48.1424,6.1171 C47.5834,6.1171 47.1304,6.5701 47.1304,7.1301 C47.1304,7.6891 47.5834,8.1421 48.1424,8.1421 L92.6854,8.1421 L92.6854,10.0161 L105.1424,10.0161 L105.1424,8.1421 L142.4964,8.1421 L142.4964,10.0161 C142.4964,10.2931 142.7204,10.5161 142.9964,10.5161 C143.2724,10.5161 143.4964,10.2931 143.4964,10.0161 L143.4964,8.1421 L149.7814,8.1421 C150.3414,8.1421 150.7954,7.6891 150.7954,7.1301 C150.7954,6.5701 150.3414,6.1171 149.7814,6.1171 L149.7814,6.1171 Z M103.8914,17.2981 L65.3794,17.2981 C65.0524,17.2981 64.7874,17.5621 64.7874,17.8891 C64.7874,18.2171 65.0524,18.4811 65.3794,18.4811 L103.8914,18.4811 C104.2174,18.4811 104.4824,18.2171 104.4824,17.8891 C104.4824,17.5621 104.2174,17.2981 103.8914,17.2981 L103.8914,17.2981 Z" id="Fill-11" fill="#000"/><path d="M73.6907,103.2264 L2.6857,103.2264 C1.2237,103.2264 0.1747,101.8184 0.5937,100.4164 L18.4767,40.5834 C18.7527,39.6594 19.6037,39.0254 20.5687,39.0254 L91.5737,39.0254 C93.0357,39.0254 94.0847,40.4344 93.6667,41.8344 L75.7837,101.6674 C75.5067,102.5924 74.6557,103.2264 73.6907,103.2264" id="Fill-12" fill="#94B1EB"/><path d="M16.5266,47.1083 L0.5936,100.4173 C0.1746,101.8183 1.2236,103.2263 2.6856,103.2263 L32.2236,103.2263 C38.0396,97.1723 41.6306,88.8773 41.6306,79.7193 C41.6306,63.9043 30.9266,50.6523 16.5266,47.1083" id="Fill-13" fill="#F9E272"/><path d="M73.6907,103.7264 L2.6857,103.7264 C1.8297,103.7264 1.0447,103.3324 0.5337,102.6464 C0.0217,101.9584 -0.1303,101.0944 0.1147,100.2734 L17.9977,40.4404 C18.0777,40.1764 18.3537,40.0274 18.6207,40.1044 C18.8847,40.1834 19.0357,40.4624 18.9567,40.7274 L1.0737,100.5604 C0.9197,101.0754 1.0147,101.6184 1.3367,102.0484 C1.6567,102.4794 2.1487,102.7264 2.6857,102.7264 L73.6907,102.7264 C73.9667,102.7264 74.1907,102.9504 74.1907,103.2264 C74.1907,103.5024 73.9667,103.7264 73.6907,103.7264" id="Fill-14" fill="#000"/><polygon id="Fill-15" fill="#F1EFEF" points="81.304 68.3944 70.232 76.5974 72.95 80.2674 84.024 72.0654"/><polygon id="Fill-16" fill="#EC7068" points="92.3704 46.1698 55.6894 46.1698 55.6894 86.8538 90.6644 51.8788"/><polygon id="Fill-17" fill="#F1EFEF" points="72.3264 95.7938 44.2024 102.1008 43.1664 97.4788 71.2904 91.1718"/><polygon id="Fill-18" fill="#F1EFEF" points="64.9173 68.6288 46.8623 77.5278 43.8013 71.3178 61.8553 62.4178"/><polygon id="Fill-19" fill="#F1EFEF" points="56.7337 56.1835 33.3897 47.4535 35.4447 41.9585 58.7887 50.6895"/><path d="M70.2844,16.0126 C69.9304,16.0126 69.6414,16.3006 69.6414,16.6556 L69.6414,19.0826 C69.6414,19.4376 69.9304,19.7256 70.2844,19.7256 C70.6384,19.7256 70.9274,19.4376 70.9274,19.0826 L70.9274,16.6556 C70.9274,16.3006 70.6384,16.0126 70.2844,16.0126 M54.0904,15.1756 C51.5774,15.1756 49.5404,17.2126 49.5404,19.7256 C49.5404,22.2386 51.5774,24.2756 54.0904,24.2756 C56.6014,24.2756 58.6384,22.2386 58.6384,19.7256 C58.6384,17.2126 56.6014,15.1756 54.0904,15.1756" id="Fill-20" fill="#83BB9E"/></g></g></g><g transform="translate(46.826100, -287.860000) scale(1 1)" id="Master/Character/Sitting on Floor"><g id="Master/Character/Sitting on Floor" stroke="none" stroke-width="1" fill="none" fill-rule="evenodd"><g id="Lower Body/Sitting on Floor" transform="translate(71.000000, 391.000000) scale(1 1)"><g id="Lower Body/Sitting on Floor/Legs Extended Blue Long Pants" stroke="none" stroke-width="1" fill="none" fill-rule="evenodd"><g id="Group" transform="translate(139.000108, 278.000429)"><path d="M273.849892,45.6050707 C271.391892,45.6060707 272.793892,45.6770707 260.311892,51.2970707 C248.290892,56.7090707 230.796892,56.8400707 230.796892,56.8400707 L230.783892,65.1020707 C223.469892,61.4650707 217.917892,57.4940707 217.917892,57.4940707 L217.435892,57.0540707 L206.891892,65.6040707 L210.530892,67.6230707 C210.530892,67.6230707 210.178892,69.0890707 210.131892,71.0540707 L181.070892,73.4160707 L181.039892,73.5880707 L210.130892,71.1260707 C210.045892,75.3560707 211.392892,81.8190707 220.619892,81.0480707 C226.989892,80.5160707 235.625892,79.9850707 243.293892,79.5420707 C243.293892,79.5420707 255.321892,78.9690707 259.261892,78.2380707 C260.730892,77.2440707 261.008892,74.9200707 259.349892,73.7150707 C257.664892,72.4920707 258.187892,72.9370707 250.235892,71.4030707 C254.551892,67.7560707 259.637892,63.5650707 264.286892,59.7570707 C264.286892,59.7570707 273.679892,52.2240707 276.436892,49.3150707 C277.040892,47.6480707 275.899892,45.6050707 273.849892,45.6050707" id="Socks" fill="#F9E272"/><path d="M172.696592,50.3814707 L143.952592,45.3794707 C141.687592,45.2504707 139.417592,45.2644707 137.155592,45.4214707 L118.309592,47.7344707 L151.195592,33.7644707 C151.195592,33.7644707 154.533592,37.1244707 165.993592,42.9134707 L179.951592,51.1884707 L172.696592,50.3814707 Z M215.458592,55.1344707 L183.510592,26.2344707 L183.531592,26.2134707 L160.351592,5.1544707 C160.351592,5.1544707 149.805592,-4.2805293 135.928592,2.3794707 C122.052592,9.0404707 92.0165919,19.7864707 92.0165919,19.7864707 L90.6985919,13.8164707 L3.88859188,13.1514707 C3.88859188,13.1514707 -17.2034081,75.7484707 38.8575919,76.3044707 C94.9185919,76.8594707 149.525592,73.1484707 149.525592,73.1484707 L177.418592,73.5374707 L177.453592,73.7094707 L179.254592,73.5634707 L181.040592,73.5884707 L181.070592,73.4154707 L210.132592,71.0544707 C210.178592,69.0894707 210.530592,67.6224707 210.530592,67.6224707 L206.891592,65.6044707 L184.545592,53.2064707 L184.634592,52.6904707 L206.891592,65.6044707 L217.435592,57.0544707 L217.918592,57.4934707 C217.918592,57.4934707 223.469592,61.4654707 230.783592,65.1024707 L230.797592,56.8404707 L215.458592,55.1344707 Z" id="Pants" fill="#94B1EB"/><path d="M272.757092,50.7622707 C270.437092,50.7622707 268.419092,49.6452707 267.402092,48.0102707 C267.120092,48.1462707 266.817092,48.2902707 266.498092,48.4422707 C267.677092,50.4112707 270.037092,51.7622707 272.757092,51.7622707 C273.162092,51.7622707 273.558092,51.7262707 273.944092,51.6682707 C274.554092,51.1242707 275.107092,50.6172707 275.581092,50.1642707 C274.737092,50.5442707 273.777092,50.7622707 272.757092,50.7622707 L272.757092,50.7622707 Z M149.502092,72.6482707 C148.989092,72.6722707 99.6880919,74.9362707 46.6060919,75.7212707 C56.2820919,73.7662707 66.5070919,70.1042707 76.0130919,65.1432707 L151.410092,34.2152707 C151.659092,34.0962707 151.766092,33.7982707 151.647092,33.5492707 C151.527092,33.2982707 151.228092,33.1932707 150.981092,33.3132707 L75.5670919,64.2482707 C63.9210919,70.3252707 51.2150919,74.4342707 39.7890919,75.8162707 C39.7640919,75.8202707 39.7420919,75.8332707 39.7180919,75.8402707 C39.6870919,75.8492707 39.6550919,75.8562707 39.6270919,75.8702707 C39.5980919,75.8852707 39.5730919,75.9052707 39.5480919,75.9252707 C39.5230919,75.9452707 39.4980919,75.9622707 39.4780919,75.9862707 C39.4560919,76.0102707 39.4420919,76.0372707 39.4250919,76.0662707 C39.4090919,76.0932707 39.3930919,76.1192707 39.3820919,76.1512707 C39.3710919,76.1812707 39.3680919,76.2132707 39.3630919,76.2452707 C39.3610919,76.2712707 39.3500919,76.2932707 39.3500919,76.3192707 C39.3500919,76.3292707 39.3550919,76.3372707 39.3560919,76.3472707 C39.3570919,76.3562707 39.3530919,76.3642707 39.3540919,76.3722707 C39.3570919,76.4002707 39.3700919,76.4222707 39.3770919,76.4472707 C39.3850919,76.4752707 39.3900919,76.5032707 39.4020919,76.5302707 C39.4180919,76.5622707 39.4410919,76.5882707 39.4620919,76.6162707 C39.4790919,76.6372707 39.4910919,76.6582707 39.5100919,76.6762707 C39.5390919,76.7042707 39.5740919,76.7232707 39.6100919,76.7422707 C39.6280919,76.7532707 39.6440919,76.7682707 39.6630919,76.7762707 C39.7220919,76.7992707 39.7830919,76.8132707 39.8490919,76.8132707 L39.8500919,76.8132707 L39.8560919,76.8132707 C95.4530919,76.1322707 149.014092,73.6722707 149.519092,73.6482707 L181.033092,74.0882707 C182.026092,73.9082707 181.147092,73.0822707 181.147092,73.0822707 L149.502092,72.6482707 Z M259.815092,76.5002707 C259.540092,77.4802707 258.714092,78.1532707 257.711092,78.2142707 C256.744092,78.2732707 255.608092,78.3402707 254.335092,78.4122707 C253.864092,77.6802707 253.582092,76.8472707 253.582092,75.9542707 C253.582092,74.7502707 254.073092,73.6452707 254.889092,72.7672707 C254.931092,72.7742707 254.981092,72.7832707 255.021092,72.7892707 C257.825092,73.2832707 257.928092,73.3032707 258.943092,74.0382707 C258.944092,74.0402707 258.945092,74.0422707 258.947092,74.0432707 C259.907092,74.7102707 260.025092,75.7502707 259.815092,76.5002707 L259.815092,76.5002707 Z M220.194092,80.5682707 C216.777092,80.7792707 214.226092,79.9602707 212.635092,78.1082707 C211.253092,76.4992707 210.767092,74.3372707 210.657092,72.4032707 C211.442092,72.1062707 212.286092,71.9322707 213.173092,71.9322707 C217.137092,71.9322707 220.362092,75.1582707 220.362092,79.1212707 C220.362092,79.6192707 220.293092,80.0992707 220.194092,80.5682707 L220.194092,80.5682707 Z M259.694092,73.3662707 C259.677092,73.3492707 259.665092,73.3262707 259.644092,73.3112707 C258.329092,72.3562707 258.153092,72.3252707 255.194092,71.8052707 C253.372092,71.4842707 250.322092,70.9482707 245.153092,69.8712707 C232.502092,67.2362707 218.351092,57.1872707 218.209092,57.0862707 C217.986092,56.9262707 217.673092,56.9762707 217.512092,57.2012707 C217.351092,57.4262707 217.402092,57.7392707 217.627092,57.9002707 C217.771092,58.0022707 232.089092,68.1712707 244.950092,70.8502707 C249.117092,71.7182707 251.896092,72.2332707 253.780092,72.5702707 C253.037092,73.5442707 252.582092,74.6992707 252.582092,75.9542707 C252.582092,76.8552707 252.817092,77.7052707 253.216092,78.4772707 C252.250092,78.5322707 251.222092,78.5902707 250.141092,78.6512707 C241.432092,79.1442707 229.596092,79.8142707 221.227092,80.4972707 C221.306092,80.0482707 221.362092,79.5922707 221.362092,79.1212707 C221.362092,74.6062707 217.689092,70.9322707 213.173092,70.9322707 C212.285092,70.9322707 211.436092,71.0842707 210.635092,71.3482707 C210.652092,69.3312707 211.009092,67.7712707 211.017092,67.7392707 C211.069092,67.5212707 210.969092,67.2942707 210.773092,67.1852707 L166.236092,42.4772707 C165.995092,42.3422707 165.691092,42.4302707 165.556092,42.6712707 C165.422092,42.9122707 165.509092,43.2172707 165.751092,43.3512707 L209.964092,67.8802707 C209.663092,69.4102707 208.793092,75.1662707 211.873092,78.7562707 C213.501092,80.6542707 215.949092,81.6112707 219.163092,81.6112707 C219.646092,81.6112707 220.146092,81.5892707 220.662092,81.5452707 C229.044092,80.8462707 241.271092,80.1552707 250.197092,79.6502707 C253.215092,79.4792707 255.836092,79.3302707 257.772092,79.2122707 C259.206092,79.1242707 260.387092,78.1652707 260.778092,76.7702707 C261.137092,75.4872707 260.708092,74.1802707 259.694092,73.3662707 L259.694092,73.3662707 Z" id="Fill-7" fill="#000"/></g><path d="M199.2532,310.1287 C213.247539,304.942122 223.743294,301.052189 230.740464,298.4589 C233.547294,297.418633 233.447873,297.0999 230.4422,297.5027 L198.9052,309.1917 C198.6472,309.2867 198.5152,309.5757 198.6112,309.8337 C198.6852,310.0357 198.8762,310.1597 199.0792,310.1597 C199.1372,310.1597 199.1952,310.1507 199.2532,310.1287 Z" id="Path" fill="#000"/></g></g><g id="Upper Body" transform="translate(8.000000, 378.000000) scale(1 1)"><g id="Upper Body/Listen Music" stroke="none" stroke-width="1" fill="none" fill-rule="evenodd"><path d="M177.993,193.8302 C177.993,193.8302 184.794,203.4312 183.993,215.0332 C183.993,215.0332 204.796,181.8292 240.401,180.2282 C240.401,180.2282 246.401,185.8292 262.003,180.2282 C262.003,180.2282 297.207,176.2282 314.01,215.0332 C314.01,215.0332 318.01,197.8302 323.611,193.4302 C329.211,189.0292 349.694,196.2492 349.694,196.2492 C349.694,196.2492 342.786,252.3072 319.72,263.4972 C317.803,264.4272 315.558,264.4432 313.605,263.5892 C307.55,260.9392 294.556,251.9152 289.206,222.3752 C289.206,222.3752 299.958515,287.700593 299.958515,308.059877 C299.958515,311 295.116006,311 293.065119,311 C293.065119,311 217.493333,314.110366 204.81183,311 C204.81183,311 200.550181,311.89819 201.649318,305.115664 C203.64057,292.828094 210.176492,259.844202 211.471,241.9932 C211.471,241.9932 196.795,268.2392 177.993,268.2392 C159.191,268.2392 153.39,223.4342 155.39,202.6312 L177.993,193.8302 Z" id="Sweater" fill="#F0BE91"/><path d="M306.3465,258.8107 C309.1465,261.3117 311.7145,262.7617 313.6055,263.5887 C315.5575,264.4437 317.8025,264.4267 319.7195,263.4967 C323.3905,261.7157 326.7095,258.7847 329.6985,255.1197 C316.5295,248.1027 309.2785,254.7597 306.3465,258.8107 M164.5495,258.1947 C167.9755,264.2907 172.4115,268.2387 177.9925,268.2387 C182.4205,268.2387 186.5545,266.7867 190.2965,264.5817 C181.5925,250.7677 164.5535,258.1937 164.5495,258.1947 M212.3955,236.5597 L211.2445,244.5167 C248.4265,256.7887 291.7785,242.0857 291.7785,242.0857 L290.8345,233.9117 C254.5395,247.5307 212.3955,236.5597 212.3955,236.5597" id="Sweater-details" fill="#F1EFEF"/><path d="M163.8518,168.0579 C162.5088,160.2969 164.0008,156.4169 166.6878,158.2079 C169.3738,159.9979 173.5828,184.0469 179.1048,180.6139 C184.6268,177.1809 199.7658,175.8309 187.0798,182.6959 C174.3938,189.5619 176.9288,194.2449 176.9288,194.2449 L176.9288,194.2449 L159.6178,200.9849 C153.2948,187.7959 154.4428,186.1789 154.3638,178.7339 C152.5218,176.4969 150.9608,173.0259 151.9868,172.7339 C153.0278,172.4379 154.8878,174.3739 156.0858,175.7969 C155.9888,173.9479 156.0838,172.2749 156.0838,172.2749 C156.0838,172.2749 156.5618,168.5539 158.4728,169.0159 C158.9898,169.1409 159.3518,169.6159 159.5888,170.2999 C159.5978,169.8419 159.6088,169.5519 159.6088,169.5519 C159.6088,169.5519 159.5948,165.9749 162.0388,166.5669 C162.6568,166.7159 163.1208,167.2249 163.4598,167.9579 C163.7008,168.0079 163.8518,168.0579 163.8518,168.0579 Z M344.8763,172.2244 C349.5693,168.3244 356.2673,163.4634 358.5943,165.2944 C360.2573,166.6034 354.1973,170.4184 348.1823,176.3514 C348.1783,176.3654 348.1763,176.3814 348.1733,176.3944 C349.1723,175.6204 349.8953,175.1024 349.9383,175.0724 C351.5943,173.8984 354.4273,172.2544 356.1203,175.0724 C356.3943,175.5284 356.1583,176.2594 355.5703,177.1164 C356.7193,176.8214 357.9003,177.0174 358.7663,178.4584 C359.1313,179.0654 358.5353,180.1894 357.3963,181.4344 C358.4313,180.9374 359.5903,180.8624 360.5693,182.1334 C361.3593,183.1584 358.6873,186.5904 355.5733,188.8324 C355.3063,190.7014 353.7023,193.0594 349.6933,196.2494 C349.6933,196.2494 345.3273,194.7104 340.2403,193.5474 C338.3043,193.1524 332.8203,192.1144 328.4523,192.0404 C328.4523,192.0404 326.4143,182.8984 332.5543,177.7754 C336.4603,174.5164 341.7813,172.5054 344.8763,172.2244 Z M258.0129,172.8556 L258.0129,181.4806 C249.1229,183.8986 243.8939,181.9596 243.8939,181.9596 L243.8939,181.9596 L243.8939,172.8556 L258.0129,172.8556 Z" id="Skin" fill="#f4d4b8"/><path d="M181.8138,237.462 C181.7868,237.462 181.7598,237.46 181.7318,237.455 C181.4598,237.411 181.2748,237.153 181.3198,236.881 C184.0398,220.354 183.4878,211.139 183.4818,211.047 C183.4638,210.772 183.6728,210.534 183.9488,210.515768 C184.2198,210.508 184.4618,210.708 184.4798,210.983 C184.4858,211.075 185.0478,220.389 182.3068,237.043 C182.2668,237.288 182.0548,237.462 181.8138,237.462" id="Fill-7" fill="#000"/><path d="M210.3597,265.6837 C210.0837,265.6837 208.79509,265.927102 208.79509,265.651102 C208.79509,264.369102 209.9257,233.6627 215.7197,223.7367 C215.8597,223.4987 216.1657,223.4177 216.4027,223.5567 C216.6417,223.6957 216.7217,224.0017 216.5827,224.2407 C210.9257,233.9337 209.79509,265.339102 209.79509,265.651102 C209.79509,265.927102 209.57109,266.151102 209.29509,266.151102" id="Fill-9" fill="#000"/><path d="M177.993,268.7394 C177.717,268.7394 177.493,268.5154 177.493,268.2394 C177.493,267.9634 177.717,267.7394 177.993,267.7394 C196.29,267.7394 210.889,242.0094 211.034,241.7484 C211.169,241.5084 211.472,241.4214 211.715,241.5564 C211.955,241.6914 212.042,241.9954 211.907,242.2374 C211.87,242.3024 208.14,248.9254 202.151,255.4544 C194.179,264.1454 185.825,268.7394 177.993,268.7394" id="Fill-11" fill="#000"/><path d="M316.5794,264.7154 C315.5044,264.7154 314.4234,264.4934 313.4054,264.0474 C296.5844,256.6854 290.5344,232.5144 288.7144,222.4644 C288.6654,222.1924 288.8454,221.9324 289.1174,221.8824 C289.3864,221.8324 289.6494,222.0144 289.6984,222.2864 C291.4904,232.1784 297.4254,255.9614 313.8064,263.1314 C315.6514,263.9394 317.7274,263.9084 319.5014,263.0474 C319.7504,262.9274 320.0494,263.0294 320.1694,263.2784 C320.2904,263.5274 320.1864,263.8254 319.9384,263.9464 C318.8824,264.4584 317.7344,264.7154 316.5794,264.7154" id="Fill-13" fill="#000"/><path d="M314.0096,215.5328 C313.8116,215.5328 313.6306,215.4158 313.5506,215.2318 C304.9516,195.3728 291.4206,187.0508 281.5826,183.5658 C270.9086,179.7848 262.1466,180.7158 262.0596,180.7248 C261.7806,180.7558 261.5376,180.5588 261.5066,180.2848 C261.4756,180.0108 261.6726,179.7628 261.9466,179.7318 C262.2996,179.6908 296.8926,176.2198 313.8746,213.4978 C314.9746,209.2378 318.5236,196.7908 323.3016,193.0368 C323.5196,192.8648 323.8336,192.9048 324.0036,193.1208 C324.1746,193.3388 324.1366,193.6528 323.9196,193.8238 C318.5216,198.0648 314.5366,214.9758 314.4966,215.1458 C314.4476,215.3558 314.2696,215.5118 314.0546,215.5308 C314.0396,215.5328 314.0246,215.5328 314.0096,215.5328" id="Fill-15" fill="#000"/><path d="M183.994,215.5328 C183.982,215.5328 183.971,215.5328 183.959,215.5318 C183.683,215.5128 183.476,215.2738 183.494,214.9988 C184.273,203.7178 177.652,194.2138 177.585,194.1188 C177.426,193.8938 177.479,193.5818 177.704,193.4218 C177.93,193.2618 178.241,193.3158 178.401,193.5408 C178.47,193.6388 185.296,203.4228 184.493,215.0668 C184.474,215.3308 184.254,215.5328 183.994,215.5328" id="Fill-17" fill="#000"/><path d="M164.5496,258.6949 C164.3556,258.6949 164.1706,258.5809 164.0896,258.3899 C163.9816,258.1359 164.1006,257.8419 164.3546,257.7349 C164.7686,257.5599 174.5926,253.4809 183.1346,257.4559 C183.3856,257.5719 183.4936,257.8689 183.3776,258.1199 C183.2606,258.3699 182.9646,258.4789 182.7136,258.3619 C174.5686,254.5739 164.8426,258.6139 164.7446,258.6549 C164.6806,258.6819 164.6146,258.6949 164.5496,258.6949" id="Fill-21" fill="#000"/><path d="M311.8558,241.0177 C311.5968,241.0177 311.3778,240.8177 311.3578,240.5557 C309.6178,217.6077 319.9368,197.3067 320.0408,197.1037 C320.1668,196.8587 320.4688,196.7627 320.7138,196.8887 C320.9598,197.0157 321.0558,197.3167 320.9298,197.5617 C320.8268,197.7627 310.6368,217.8227 312.3548,240.4797 C312.3758,240.7547 312.1688,240.9957 311.8938,241.0167 C311.8808,241.0177 311.8688,241.0177 311.8558,241.0177" id="Fill-23" fill="#000"/><path d="M341.763,192.5401 C341.65,192.5401 341.536,192.5021 341.442,192.4231 C341.231,192.2461 341.203,191.9311 341.38,191.7191 C344.496,188.0011 343.426,186.0261 342.39,184.1161 C341.886,183.1861 341.409,182.3071 341.409,181.2771 C341.409,179.4531 342.862,178.0381 344.265,176.6691 C345.328,175.6341 346.427,174.5641 346.846,173.3651 C346.958,173.0461 346.849,172.9711 346.77,172.9161 C345.402,171.9671 338.105,173.7961 332.874,178.1591 C332.662,178.3361 332.347,178.3081 332.17,178.0961 C331.993,177.8841 332.022,177.5681 332.234,177.3921 C337.354,173.1191 345.338,170.7071 347.34,172.0941 C347.856,172.4531 348.021,173.0361 347.79,173.6951 C347.293,175.1161 346.109,176.2701 344.964,177.3861 C343.65,178.6651 342.409,179.8741 342.409,181.2771 C342.409,182.0531 342.808,182.7881 343.269,183.6401 C344.352,185.6371 345.7,188.1221 342.147,192.3611 C342.048,192.4791 341.906,192.5401 341.763,192.5401" id="Fill-25" fill="#000"/><path d="M344.7259,184.4781 C344.2749,184.4781 343.8409,184.4291 343.4279,184.3231 C342.5379,184.0951 342.2619,183.5721 342.1879,183.1741 C341.7019,180.5611 349.5679,174.7221 349.6479,174.6651 C349.8729,174.5051 350.1849,174.5581 350.3449,174.7821 C350.5049,175.0071 350.4529,175.3191 350.2279,175.4791 C348.1049,177.0191 342.8899,181.5121 343.1719,182.9931 C343.1839,183.0591 343.2179,183.2371 343.6759,183.3541 C347.0729,184.2261 352.6659,180.3241 354.8729,177.3621 C355.6529,176.3151 355.8459,175.5871 355.6909,175.3301 C355.5489,175.0931 355.6259,174.7861 355.8629,174.6441 C356.1009,174.5011 356.4069,174.5781 356.5489,174.8151 C356.9839,175.5391 356.6899,176.5971 355.6749,177.9591 C353.4549,180.9381 348.5349,184.4781 344.7259,184.4781" id="Fill-27" fill="#000"/><path d="M347.054,187.3302 C345.772,187.3302 345.31,186.7632 345.147,186.4172 C344.813,185.7062 345.118,184.7602 346.007,183.7522 C346.19,183.5452 346.507,183.5262 346.713,183.7082 C346.92,183.8912 346.94,184.2062 346.757,184.4132 C346.061,185.2042 345.942,185.7582 346.053,185.9922 C346.16,186.2212 346.573,186.3522 347.161,186.3282 C350.679,186.2232 356.458,181.8322 357.817,179.3442 C358.074,178.8732 358.163,178.4832 358.054,178.3022 C357.911,178.0652 357.988,177.7582 358.225,177.6162 C358.462,177.4742 358.769,177.5502 358.911,177.7872 C359.222,178.3052 359.15,178.9902 358.695,179.8232 C357.197,182.5652 351.2,187.2072 347.191,187.3282 C347.144,187.3292 347.098,187.3302 347.054,187.3302" id="Fill-29" fill="#000"/><path d="M351.4954,190.8922 C350.4214,190.8922 350.0164,190.4352 349.8664,190.0492 C349.0414,187.9302 354.7914,182.6222 354.8504,182.5692 C355.0544,182.3852 355.3704,182.4002 355.5564,182.6062 C355.7404,182.8112 355.7244,183.1262 355.5214,183.3112 C353.7184,184.9682 350.4164,188.7202 350.7984,189.6872 C350.8504,189.8192 351.1374,189.8932 351.5204,189.8922 C354.3264,189.8672 358.4044,186.4132 359.6504,183.7072 C360.0024,182.9442 360.0614,182.3372 359.8144,182.0422 C359.6364,181.8312 359.6634,181.5162 359.8754,181.3382 C360.0884,181.1602 360.4034,181.1882 360.5794,181.3992 C360.9434,181.8322 361.2354,182.6572 360.5584,184.1252 C359.3134,186.8292 354.9734,190.8622 351.5294,190.8922 L351.4954,190.8922 Z" id="Fill-31" fill="#000"/><path d="M174.078,126.8829 L183.741,119.0139 L183.425,118.6259 L183.834,119.0579 L183.834,121.2799 L174.075,128.8079 L174.078,126.8829 Z M170.491,143.1259 C172.483,142.3229 173.859,140.9169 174.047,139.6689 L174.057,139.6689 L174.057,139.5859 C174.072,139.4459 174.075,139.3079 174.058,139.1739 L174.073,130.0729 L183.834,122.5429 L183.834,134.4809 C182.763,133.9309 181,133.9589 179.218,134.6769 C176.729,135.6799 175.169,137.6269 175.733,139.0269 C176.297,140.4259 178.771,140.7489 181.26,139.7459 C183.569,138.8159 185.055,137.0769 184.81,135.7119 L184.834,135.7119 L184.834,119.0579 C184.834,118.6459 184.602,118.2799 184.23,118.1029 C183.858,117.9259 183.429,117.9779 183.109,118.2379 L173.447,126.1079 C173.199,126.3099 173.057,126.6089 173.057,126.9269 L173.057,137.8579 C171.985,137.3109 170.227,137.3399 168.448,138.0569 C165.96,139.0589 164.4,141.0069 164.964,142.4059 C165.528,143.8059 168.002,144.1279 170.491,143.1259 L170.491,143.1259 Z M140.215,167.2609 C139.144,166.7099 137.381,166.7379 135.599,167.4559 C133.111,168.4589 131.551,170.4059 132.115,171.8059 C132.679,173.2059 135.153,173.5279 137.641,172.5249 C139.951,171.5949 141.436,169.8559 141.192,168.4909 L141.215,168.4909 L141.215,151.8369 L140.215,151.8369 L140.215,167.2609 Z M190.373,165.4219 L175.167,154.2949 C173.959,153.4099 172.262,153.6729 171.377,154.8819 L162.622,166.8469 C165.567,169.0049 163.876,181.2719 161.6,180.2799 C160.546,179.8209 160.033,177.7159 159.789,175.4909 C159.415,178.3469 158.466,180.9779 157.536,180.5719 C156.538,180.1379 156.192,177.8459 156.085,175.7789 L146.854,188.3939 C145.97,189.6029 146.233,191.2999 147.441,192.1849 L162.647,203.3119 C163.856,204.1959 165.553,203.9329 166.437,202.7239 L190.96,169.2119 C191.845,168.0039 191.582,166.3059 190.373,165.4219 L190.373,165.4219 Z" id="Phone-Case-and-notes" fill="#E2A2B5"/><path d="M156.5423,194.7447 C156.0143,194.7447 155.5853,195.1737 155.5853,195.7017 C155.5853,196.2287 156.0143,196.6587 156.5423,196.6587 C157.0693,196.6587 157.4993,196.2287 157.4993,195.7017 C157.4993,195.1737 157.0693,194.7447 156.5423,194.7447 M156.5423,197.6587 C155.4633,197.6587 154.5853,196.7807 154.5853,195.7017 C154.5853,194.6227 155.4633,193.7447 156.5423,193.7447 C157.6213,193.7447 158.4993,194.6227 158.4993,195.7017 C158.4993,196.7807 157.6213,197.6587 156.5423,197.6587" id="Fill-38" fill="#000"/><path d="M173.5965,156.6495 L163.9915,169.7755 C164.7325,174.0785 163.3355,181.0365 161.5995,180.2795 C160.5495,179.8215 160.0365,177.7295 159.7925,175.5135 L159.7845,175.5245 C159.4075,178.3675 158.4625,180.9765 157.5355,180.5725 C157.2175,180.4335 156.9695,180.0945 156.7705,179.6435 L150.4075,188.3385 L165.4155,199.3215 L188.6005,167.6365 L173.5965,156.6495 Z" id="Fill-40" fill="#F1EFEF"/><path d="M157.7274,181.1134 C157.5954,181.1134 157.4624,181.0864 157.3364,181.0304 C156.9204,180.8494 156.5854,180.4624 156.3124,179.8454 C156.2014,179.5934 156.3154,179.2984 156.5684,179.1864 C156.8234,179.0764 157.1164,179.1894 157.2274,179.4414 C157.3874,179.8014 157.5674,180.0404 157.7354,180.1134 C158.0634,180.0434 158.9004,178.3814 159.2894,175.4584 C159.2954,175.4164 159.7424,172.5664 159.1104,170.4424 C159.0314,170.1774 159.1824,169.8994 159.4464,169.8204 C159.7124,169.7424 159.9894,169.8924 160.0684,170.1564 C160.7674,172.5024 160.2984,175.4784 160.2784,175.6044 C160.1784,176.3544 159.6034,180.2034 158.2414,180.9734 C158.0764,181.0664 157.9014,181.1134 157.7274,181.1134" id="Fill-42" fill="#000"/><path d="M161.8607,180.837 C161.7067,180.837 161.5517,180.804 161.4007,180.738 C160.3157,180.265 159.6277,178.574 159.2957,175.568 C159.2647,175.294 159.4637,175.047 159.7377,175.017 C160.0127,174.991 160.2587,175.185 160.2897,175.459 C160.6767,178.971 161.4747,179.68 161.7997,179.821 C161.8397,179.84 161.8907,179.862 162.0167,179.763 C163.1507,178.873 164.1257,173.504 163.4987,169.86 C163.4517,169.588 163.6337,169.33 163.9057,169.283 C164.1857,169.236 164.4367,169.419 164.4837,169.691 C165.0937,173.233 164.2907,179.25 162.6337,180.549 C162.3907,180.74 162.1267,180.837 161.8607,180.837" id="Fill-44" fill="#000"/><path d="M176.929,194.7447 C176.751,194.7447 176.579,194.6497 176.489,194.4827 C176.458,194.4257 175.747,193.0647 176.794,190.8327 C178.104,188.0407 181.485,185.1557 186.842,182.2557 C191.706,179.6237 191.512,178.6967 191.509,178.6877 C191.341,178.2507 188.874,177.9617 184.756,178.9687 C184.491,179.0327 184.217,178.8697 184.151,178.6017 C184.086,178.3337 184.25,178.0627 184.518,177.9967 C185.248,177.8187 191.666,176.3117 192.442,178.3277 C192.744,179.1117 192.435,180.3667 187.318,183.1357 C180.884,186.6177 178.536,189.4737 177.7,191.2577 C176.878,193.0087 177.363,193.9967 177.368,194.0067 C177.5,194.2497 177.409,194.5527 177.166,194.6847 C177.091,194.7247 177.009,194.7447 176.929,194.7447" id="Fill-46" fill="#000"/></g></g><g id="Hair" transform="translate(104.000000, 398.000000) scale(1 1)"><g id="Hair/Side Tail" stroke="none" stroke-width="1" fill="none" fill-rule="evenodd"><g id="Head" transform="translate(132.000000, 111.000000)"><path d="M44.1789,24.3663 C44.5879,35.6913 33.3599,45.0883 22.4569,45.0883 C11.5539,45.0883 0.4939,36.9643 0.0189,25.3903 C-0.4461,14.0673 7.7449,1.3583 15.9329,0.2613 C32.6079,-1.9747 43.6789,10.5083 44.1789,24.3663" id="Fill-1" fill="#000"/><path d="M22.4567,44.088 C12.4757,44.088 1.4787,36.559 1.0177,25.35 C0.5797,14.678 8.3147,2.291 16.0657,1.252 C17.3127,1.085 18.5577,1 19.7657,1 C34.4247,1 42.7697,13.058 43.1797,24.402 C43.3447,28.984 41.4627,33.553 37.8807,37.268 C33.7607,41.538 27.9947,44.088 22.4567,44.088" id="Fill-4" fill="#f4d4b8"/></g><path d="M174.8031,113.3184 C161.0591,112.4594 172.6561,104.0124 159.4841,102.4374 C159.4841,102.4374 136.5781,98.1424 128.5601,116.4674 C120.5431,134.7934 132.4261,149.1094 132.4261,149.1094 C132.4261,149.1094 113.7031,150.8604 119.7601,164.8374 C124.8631,176.6114 137.0301,173.2754 129.1801,189.9574 C121.3301,206.6374 132.9081,211.7404 143.7021,211.7404 C143.7021,211.7404 130.9461,198.9844 141.5441,190.7424 C152.1411,182.4994 151.9451,170.7244 142.1321,164.4444 C132.3201,158.1644 140.4921,149.1094 140.4921,149.1094 C140.4921,149.1094 134.4301,133.7904 142.3041,129.6394 C150.1781,125.4874 150.8941,123.4834 150.8941,119.1884 C150.8941,119.1884 151.7531,126.7764 158.0531,126.7764 L183.9661,126.7764 C183.9661,126.7764 182.7531,113.8154 174.8031,113.3184" id="Hair" fill="#372310"/><path d="M138.9793,148.9605 L132.6893,148.9605 C132.1623,148.9605 131.7353,148.5335 131.7353,148.0055 C131.7353,147.4795 132.1623,147.0515 132.6893,147.0515 L138.9793,147.0515 C139.5063,147.0515 139.9333,147.4795 139.9333,148.0055 C139.9333,148.5335 139.5063,148.9605 138.9793,148.9605" id="Fill-6" fill="#71BD9C"/><path d="M138.9795,148.7419 L132.6895,148.7419 C132.4555,148.7419 132.2655,148.5519 132.2655,148.3169 C132.2655,148.0829 132.4555,147.8929 132.6895,147.8929 L138.9795,147.8929 C139.2135,147.8929 139.4035,148.0829 139.4035,148.3169 C139.4035,148.5519 139.2135,148.7419 138.9795,148.7419 M142.4305,164.2889 C139.7595,162.5799 138.2425,160.5069 137.9205,158.1279 C137.4435,154.6059 139.7085,151.3069 140.5765,150.1919 C140.6725,150.2899 141.0125,149.2069 140.9575,149.1489 C140.9415,149.1209 140.9175,149.1009 140.8965,149.0769 C140.3585,147.6389 135.5165,134.0949 142.5385,130.3929 C148.6435,127.1729 150.5815,125.1169 151.1625,122.3839 C152.0805,124.6969 154.0325,127.5869 158.0525,127.5869 L173.2265,127.5869 C173.5505,127.4689 173.9385,127.7269 174.2785,127.3349 C174.2095,127.1809 174.1465,127.0259 174.0755,126.8729 C173.9925,126.6989 173.8165,126.5869 173.6235,126.5869 L158.0525,126.5869 C152.2795,126.5869 151.4245,119.7339 151.3915,119.4429 C151.3615,119.1799 151.1305,118.9939 150.8655,118.999759 C150.6015,119.0149 150.3945,119.2339 150.3945,119.4989 C150.3945,123.6629 149.7125,125.4789 142.0715,129.5079 C135.9235,132.7489 137.7135,142.0949 139.1045,146.8459 C139.0625,146.8419 139.0215,146.8329 138.9795,146.8329 L132.6895,146.8329 C131.8715,146.8329 131.2055,147.4989 131.2055,148.3169 C131.2055,148.5649 131.2715,148.7949 131.3795,148.9999 C128.8075,149.3959 121.9665,150.8679 119.1815,155.5759 C117.5835,158.2769 117.6065,161.5719 119.2525,165.3679 C119.3735,165.6479 119.6995,165.7759 119.9805,165.6559 C120.2605,165.5339 120.3895,165.2089 120.2685,164.9279 C118.7715,161.4759 118.7265,158.5199 120.1325,156.1419 C123.1365,151.0599 131.8055,150.0429 132.3725,149.9799 C129.7775,152.2119 124.8315,158.0029 129.9385,166.7399 C131.8115,169.9429 133.3125,171.9819 134.5195,173.6199 C137.3675,177.4879 138.0445,178.4069 136.6435,185.9969 C136.5875,186.2979 136.7865,186.5859 137.0865,186.6419 C137.1215,186.6479 137.1545,186.6509 137.1875,186.6509 C137.4495,186.6509 137.6825,186.4649 137.7315,186.1979 C139.2195,178.1369 138.3365,176.9369 135.4105,172.9639 C134.2195,171.3459 132.7365,169.3339 130.8935,166.1809 C125.1215,156.3079 133.0455,150.7089 134.1835,149.9739 L135.4305,149.9739 C134.0835,151.9169 131.3155,156.7509 133.5295,161.1239 C133.6265,161.3159 133.8215,161.4279 134.0235,161.4279 C134.1075,161.4279 134.1925,161.4079 134.2725,161.3669 C134.5455,161.2289 134.6545,160.8969 134.5165,160.6239 C132.2815,156.2089 136.0575,150.9429 136.8015,149.9739 L139.3505,149.9739 C138.2475,151.4989 136.3455,154.7199 136.8225,158.2699 C137.1875,160.9889 138.8745,163.3269 141.8335,165.2219 C146.2035,168.0179 148.7215,172.0059 148.9255,176.4499 C149.1585,181.5309 146.4165,186.5609 141.2035,190.6159 C138.4715,192.7409 136.9905,195.3519 136.8015,198.3759 C136.3645,205.4099 143.0275,212.1589 143.3115,212.4429 C143.4195,212.5509 143.5615,212.6049 143.7025,212.6049 C143.8445,212.6049 143.9855,212.5509 144.0935,212.4429 C144.3105,212.2269 144.3105,211.8769 144.0945,211.6599 C144.0275,211.5949 137.4985,204.9749 137.9065,198.4409 C138.0755,195.7499 139.4135,193.4109 141.8835,191.4889 C147.3875,187.2089 150.2815,181.8489 150.0315,176.3989 C149.8105,171.5859 147.1115,167.2849 142.4305,164.2889" id="Fill-1" fill="#000"/></g></g><g id="Expression" transform="translate(201.000000, 501.000000) scale(1 1)"><g id="Expression/Wink" stroke="none" stroke-width="1" fill="none" fill-rule="evenodd"><path d="M51.845,25.6138 C51.691,25.6138 51.538,25.5428 51.441,25.4088 C51.278,25.1858 51.326,24.8728 51.549,24.7108 C51.67,24.6218 54.556,22.5398 57.541,23.0938 C57.813,23.1438 57.992,23.4048 57.942,23.6758 C57.892,23.9478 57.626,24.1268 57.36,24.0768 C54.802,23.6018 52.165,25.4988 52.139,25.5178 C52.05,25.5828 51.947,25.6138 51.845,25.6138" id="Fill-1" fill="#000"/><path d="M51.844,31.4245 C51.641,31.4245 51.449,31.2995 51.375,31.0975 C51.28,30.8385 51.411,30.5515 51.671,30.4555 L55.03,29.2145 C53.553,28.7275 52.203,28.3085 51.89,28.2625 C51.689,28.2805 51.492,28.1785 51.397,27.9875 C51.274,27.7405 51.373,27.4405 51.62,27.3175 C51.841,27.2085 52.007,27.1205 56.695,28.7185 C56.895,28.7865 57.031,28.9735 57.0330508,29.1855 C57.036,29.3965 56.906,29.5875 56.706,29.6605 L52.017,31.3935 C51.96,31.4145 51.902,31.4245 51.844,31.4245" id="Fill-3" fill="#000"/><path d="M59.8049,44.662 C55.4209,44.662 53.3729,41.954 53.2759,41.822 C53.1129,41.6 53.1599,41.288 53.3819,41.124 C53.6029,40.961 53.9169,41.007 54.0799,41.228 C54.1789,41.359 56.5309,44.428 61.7429,43.48 C62.0089,43.431 62.2759,43.61 62.3259,43.883 C62.3739,44.154 62.1949,44.415 61.9229,44.464 C61.1639,44.602 60.4579,44.662 59.8049,44.662" id="Fill-5" fill="#000"/><path d="M67.5784,29.1983 C67.5784,30.1633 68.1114,30.9463 68.7694,30.9463 C69.4284,30.9463 69.9614,30.1633 69.9614,29.1983 C69.9614,28.2333 69.4284,27.4503 68.7694,27.4503 C68.1114,27.4503 67.5784,28.2333 67.5784,29.1983" id="Fill-7" fill="#000"/><path d="M71.9475,26.2019 C71.8195,26.2019 71.6925,26.1539 71.5945,26.0579 C71.5805,26.0429 70.1005,24.6139 67.5785,24.6139 C67.3015,24.6139 67.0785,24.3899 67.0785,24.1139 C67.0785,23.8379 67.3015,23.6139 67.5785,23.6139 C70.5315,23.6139 72.2295,25.2789 72.3015,25.3489 C72.4955,25.5439 72.4955,25.8589 72.3015,26.0549 C72.2045,26.1529 72.0755,26.2019 71.9475,26.2019" id="Fill-9" fill="#000"/><path d="M52.4996066,33 C54.4327301,33 56,33.8954741 56,35 C56,36.1045259 54.4327301,37 52.4996066,37 C50.5664831,37 49,36.1045259 49,35 C49,33.8954741 50.5664831,33 52.4996066,33 Z M70.5,33 C72.4329063,33 74,33.8954741 74,35 C74,36.1045259 72.4329063,37 70.5,37 C68.5670937,37 67,36.1045259 67,35 C67,33.8954741 68.5670937,33 70.5,33 Z" id="Cheeks" fill="#E2A2B5"/><path d="M61.7893,30.0117 C60.6373,31.5517 58.7333,34.5887 59.4293,36.0527 C59.7183,36.6617 60.5123,36.9707 61.7893,36.9707 C63.0663,36.9707 63.8603,36.6617 64.1493,36.0527 C64.8453,34.5887 62.9413,31.5517 61.7893,30.0117 M61.7893,37.9707 C60.0923,37.9707 58.9943,37.4697 58.5253,36.4817 C57.3363,33.9737 60.9823,29.3957 61.4023,28.8817 C61.5923,28.6497 61.9863,28.6497 62.1763,28.8817 C62.5963,29.3957 66.2423,33.9737 65.0533,36.4817 C64.5843,37.4697 63.4863,37.9707 61.7893,37.9707" id="Fill-13" fill="#000"/></g></g><g id="Facial Hair" transform="translate(200.000000, 500.000000) scale(1 1)" fill="#000"><g id="Facial Hair/Fancy Mustache" stroke="none" stroke-width="1" fill="none" fill-rule="evenodd"><path d="M69.6334,37.9323 C69.4414,37.6923 69.1964,37.4963 68.9254,37.3623 L68.1514,37.0103 C68.0994,36.9883 68.0354,37.0073 68.0084,37.0573 C67.9804,37.1103 67.9994,37.1773 68.0524,37.2053 C68.5484,37.4903 69.0774,37.7003 69.3484,38.1443 C69.6404,38.5673 69.7234,39.1133 69.5864,39.5863 C69.4544,40.0623 69.1114,40.4653 68.6784,40.6603 C68.2484,40.8803 67.7754,40.8033 67.2014,40.7323 C66.6574,40.6613 66.1204,40.5573 65.6014,40.4113 C65.3414,40.3393 65.0854,40.2563 64.8374,40.1613 C64.5804,40.0653 64.2534,39.9533 63.9484,39.8963 C62.7854,39.6753 61.6214,39.8943 60.5534,40.4723 C59.4844,39.8943 58.3204,39.6753 57.1564,39.8963 C56.8524,39.9533 56.5264,40.0653 56.2694,40.1613 C56.0204,40.2563 55.7654,40.3393 55.5054,40.4113 C54.9854,40.5573 54.4474,40.6613 53.9044,40.7323 C53.3304,40.8033 52.8584,40.8803 52.4274,40.6603 C51.9944,40.4653 51.6514,40.0623 51.5194,39.5863 C51.3824,39.1133 51.4654,38.5673 51.7584,38.1443 C52.0294,37.7003 52.5574,37.4903 53.0534,37.2053 C53.1014,37.1783 53.1244,37.1163 53.1004,37.0643 C53.0754,37.0093 53.0104,36.9853 52.9554,37.0103 L52.1804,37.3623 C51.9094,37.4963 51.6654,37.6923 51.4724,37.9323 C51.0824,38.4103 50.9154,39.0723 51.0404,39.6973 C51.1594,40.3213 51.5634,40.8973 52.1384,41.2163 C52.4234,41.3783 52.7464,41.4763 53.0774,41.5033 C53.4174,41.5193 53.6704,41.5043 53.9714,41.4933 C54.5514,41.4643 55.1314,41.4003 55.7104,41.2873 C55.9994,41.2313 56.2874,41.1633 56.5744,41.0793 C56.8544,41.0013 57.0684,40.9483 57.3214,40.9193 C58.2844,40.7923 59.3454,41.1383 60.0714,41.6733 L60.1194,41.7083 C60.1334,41.7183 60.1484,41.7283 60.1634,41.7373 C60.2664,41.8013 60.3784,41.8213 60.4904,41.8243 C60.6594,41.8523 60.8384,41.8163 60.9874,41.7073 L61.0334,41.6733 C61.7604,41.1383 62.8214,40.7923 63.7834,40.9193 C64.0384,40.9483 64.2514,41.0013 64.5314,41.0793 C64.8184,41.1633 65.1064,41.2313 65.3964,41.2873 C65.9744,41.4003 66.5554,41.4643 67.1344,41.4933 C67.4354,41.5043 67.6884,41.5193 68.0284,41.5033 C68.3594,41.4763 68.6834,41.3783 68.9674,41.2163 C69.5424,40.8973 69.9464,40.3213 70.0654,39.6973 C70.1904,39.0723 70.0234,38.4103 69.6334,37.9323" id="Mustache" fill="#372310"/></g></g><g id="Accesories" transform="translate(104.500000, 399.000000) scale(1 1)"><g id="Accesories/Earpods" stroke="none" stroke-width="1" fill="none" fill-rule="evenodd"><path d="M139.1182,138.9451 C139.6212,138.5371 139.9492,137.9221 139.9492,137.2241 C139.9492,135.9961 138.9532,135.0001 137.7242,135.0001 C136.4962,135.0001 135.5002,135.9961 135.5002,137.2241 C135.5002,138.4251 136.4532,139.3971 137.6432,139.4411 L138.6832,142.9921 C138.9542,143.9131 139.7992,144.5461 140.7592,144.5461 L139.1182,138.9451 Z" id="Earpods" fill="#F1EFEF"/><path d="M140.7588,144.0462 C140.0268,144.0462 139.3698,143.5552 139.1628,142.8512 L138.2948,139.8862 C139.5238,139.6232 140.4488,138.5312 140.4488,137.2242 C140.4488,136.9482 140.2258,136.7242 139.9488,136.7242 C139.6728,136.7242 139.4488,136.9482 139.4488,137.2242 C139.4488,138.1752 138.6758,138.9492 137.7248,138.9492 C136.7738,138.9492 135.9998,138.1752 135.9998,137.2242 C135.9998,136.9482 135.7768,136.7242 135.4998,136.7242 C135.2238,136.7242 134.9998,136.9482 134.9998,137.2242 C134.9998,138.5672 135.9788,139.6792 137.2578,139.9012 L138.2038,143.1322 C138.5338,144.2592 139.5848,145.0462 140.7588,145.0462 C141.0348,145.0462 141.2588,144.8222 141.2588,144.5462 C141.2588,144.2702 141.0348,144.0462 140.7588,144.0462" id="Fill-4" fill="#000"/></g></g></g></g><g id="Side-table" transform="translate(119.000000, 429.740000)"><path d="M24.3118,16.2632 L67.6438,76.4862 L110.9759,16.2632 L117.8769,16.2632 L71.0948,81.2822 L117.8768,146.3012 L110.9768,146.3012 L67.6438,86.0772 L24.3119,146.3012 L17.4109,146.3012 L64.1938,81.2822 L17.4108,16.2632 L24.3118,16.2632 Z M134.7423,0.5461 L134.7423,16.2631 L0.5463,16.2631 L0.5463,0.5461 L134.7423,0.5461 Z" id="Table" fill="#E2A2B5"/><path d="M134.742,15.717 C135.044,15.717 135.288,15.961 135.288,16.263 C135.288,16.565 135.044,16.809 134.742,16.809 L25.376,16.809 L118.3198,145.9821 C118.4398,146.1491 118.4568,146.3681 118.3628,146.5501 C118.2698,146.7331 118.0818,146.8471 117.8768,146.8471 L110.9768,146.8471 C110.6748,146.8471 110.4308,146.6031 110.4308,146.3011 C110.4308,145.9991 110.6748,145.7551 110.9768,145.7551 L116.8118,145.7551 L24.0318,16.8091 L0.546,16.809 C0.244,16.809 -4.40536496e-13,16.565 -4.40536496e-13,16.263 L-4.40536496e-13,0.546 C-4.40536496e-13,0.245 0.244,4.12114787e-13 0.546,4.12114787e-13 C0.848,4.12114787e-13 1.092,0.245 1.092,0.546 L1.092,15.717 L134.742,15.717 Z" id="Combined-Shape" fill="#000"/></g><g id="Table top" transform="translate(95.000000, 275.000000) scale(1 1)"><g id="Table top/Tea Cup" stroke="none" stroke-width="1" fill="none" fill-rule="evenodd"><g id="Tea-Cup" transform="translate(72.000000, 116.000000)"><path d="M18.4248,39.6089 L15.4658,39.6089 C9.1788,39.6089 3.9128,34.8489 3.2808,28.5939 L0.3958,0.0699 L33.4958,0.0699 L30.6108,28.5939 C29.9778,34.8489 24.7118,39.6089 18.4248,39.6089" id="Cup" fill="#EC7068"/><path d="M31.5225,31.2446 C30.5605,31.2446 29.5285,31.1966 28.4185,31.1146 C28.0865,31.0896 27.8375,30.8016 27.8625,30.4706 C27.8865,30.1386 28.2005,29.8926 28.5065,29.9136 C36.9305,30.5396 40.0665,29.1476 42.0875,19.7136 C43.2185,14.4406 43.0415,10.9136 41.5465,8.9316 C39.7545,6.5536 36.0225,6.2986 31.7005,6.0036 L30.2835,5.9046 C29.9515,5.8806 29.7025,5.5916 29.7265,5.2606 C29.7515,4.9286 30.0605,4.6826 30.3715,4.7036 L31.7815,4.8036 C36.3985,5.1176 40.3845,5.3896 42.5085,8.2066 C44.2495,10.5166 44.4895,14.2536 43.2655,19.9656 C41.3265,29.0136 38.0565,31.2446 31.5225,31.2446" id="Fill-9" fill="#000"/><path d="M28.4629,9.2476 C27.5509,9.2476 26.8129,9.9866 26.8129,10.8986 C26.8129,11.8106 27.5509,12.5506 28.4629,12.5506 C29.3749,12.5506 30.1139,11.8106 30.1139,10.8986 C30.1139,9.9866 29.3749,9.2476 28.4629,9.2476 M8.4889,26.4826 C7.5769,26.4826 6.8379,27.2226 6.8379,28.1346 C6.8379,29.0456 7.5769,29.7846 8.4889,29.7846 C9.4009,29.7846 10.1399,29.0456 10.1399,28.1346 C10.1399,27.2226 9.4009,26.4826 8.4889,26.4826 M20.2469,4.2956 C20.2469,3.3836 19.5079,2.6436 18.5969,2.6436 C17.6849,2.6436 16.9449,3.3836 16.9449,4.2956 C16.9449,5.2066 17.6849,5.9456 18.5969,5.9456 C19.5079,5.9456 20.2469,5.2066 20.2469,4.2956 M22.5429,20.9346 C21.6309,20.9346 20.8919,21.6736 20.8919,22.5846 C20.8919,23.4966 21.6309,24.2356 22.5429,24.2356 C23.4539,24.2356 24.1929,23.4966 24.1929,22.5846 C24.1929,21.6736 23.4539,20.9346 22.5429,20.9346 M20.2469,32.5626 C19.3359,32.5626 18.5969,33.3026 18.5969,34.2146 C18.5969,35.1266 19.3359,35.8656 20.2469,35.8656 C21.1589,35.8656 21.8989,35.1266 21.8989,34.2146 C21.8989,33.3026 21.1589,32.5626 20.2469,32.5626 M13.8049,12.3046 C12.8929,12.3046 12.1529,13.0436 12.1529,13.9556 C12.1529,14.8676 12.8929,15.6056 13.8049,15.6056 C14.7159,15.6056 15.4549,14.8676 15.4549,13.9556 C15.4549,13.0436 14.7159,12.3046 13.8049,12.3046 M5.1869,4.2956 C4.2759,4.2956 3.5359,5.0336 3.5359,5.9456 C3.5359,6.8576 4.2759,7.5976 5.1869,7.5976 C6.0989,7.5976 6.8379,6.8576 6.8379,5.9456 C6.8379,5.0336 6.0989,4.2956 5.1869,4.2956" id="Dots" fill="#F1EFEF"/></g></g></g></g></svg>