<svg viewBox="180 56.63288288288288 636 481.98198198198213" xmlns="http://www.w3.org/2000/svg" overflow="visible" xmlns:xlink="http://www.w3.org/1999/xlink" width="636px" height="481.98198198198213px"><g id="Master/Scene/Show" stroke="none" stroke-width="1" fill="none" fill-rule="evenodd"><g id="Background" transform="translate(78.000000, 143.000000) scale(1 1)"><g id="Background/None" stroke="none" stroke-width="1" fill="none" fill-rule="evenodd" fill-opacity="0"/></g><g id="Ground" transform="translate(118.000000, 344.000000) scale(1 1)"><g id="Ground/Rectangular Carpet" stroke="none" stroke-width="1" fill="none" fill-rule="evenodd"><g id="Group-10" transform="translate(75.000000, 156.000000)"><polygon id="Fill-1" fill="#C5CDFF" points="77.678 33.784 613.147 33.784 613.147 32.784 77.678 32.784"/><polygon id="Fill-2" fill="#C5CDFF" points="56.929 24.448 592.398 24.448 592.398 23.448 56.929 23.448"/><polygon id="Fill-3" fill="#C5CDFF" points="34.198 16.468 569.667 16.468 569.667 15.468 34.198 15.468"/><polygon id="Fill-4" fill="#C5CDFF" points="19.19 8.038 546.266 8.038 546.266 7.038 19.19 7.038"/><polygon id="Fill-5" fill="#C5CDFF" points="0 1.327 527.077 1.327 527.077 0.327 0 0.327"/><polygon id="Fill-6" fill="#D8DE17" points="33.5025 0.0002 125.8145 34.6342 579.2355 34.6342 486.9235 0.0002"/><polygon id="Fill-7" fill="#F857BD" points="120.5568 0.0002 212.8698 34.6342 265.1518 34.6342 172.8398 0.0002"/><polygon id="Fill-8" fill="#F857BD" points="245.1744 0.0002 337.4864 34.6342 389.7684 34.6342 297.4564 0.0002"/><polygon id="Fill-9" fill="#F857BD" points="360.774 0.0002 453.086 34.6342 505.369 34.6342 413.057 0.0002"/></g></g></g><g id="Floor Object" transform="translate(190.000000, 50.000000) scale(1 1)"><g id="Floor Object/Musical Score" stroke="none" stroke-width="1" fill="none" fill-rule="evenodd"><g id="Group-26" transform="translate(129.500000, 276.000000) scale(-1, 1) translate(-129.500000, -276.000000) translate(74.000000, 110.000000)"><polygon id="Fill-1" fill="#3F1A81" points="51.2112534 66 51.2112534 258.600932 0 329.971869 1.45620604 331 53 259.166404 53 66"/><g id="Group-25" transform="translate(3.000000, 0.000000)"><path d="M56.6617574,331 C56.2147082,331 55.832282,330.66369 55.7827082,330.209671 L48.0633639,258.711901 C48.0208721,258.321604 48.2412984,257.950778 48.6033639,257.800324 C48.9663148,257.650754 49.3850361,257.755187 49.6320197,258.059636 L107.55543,329.558291 C107.863495,329.937968 107.804184,330.495535 107.425298,330.802639 C107.043757,331.109743 106.486938,331.050447 106.179757,330.67254 L50.1463475,261.506816 L57.542577,330.020275 C57.5956918,330.50527 57.2433639,330.942473 56.7573639,330.99469 C56.7254951,330.99823 56.692741,331 56.6617574,331" id="Fill-2" fill="#3F1A81"/><path d="M30.0404656,289.115048 L72.1445311,290.425772 L51.2102361,277.867243 L30.0404656,289.115048 Z M75.5155475,292.302029 L75.4881049,292.302029 L26.6570557,290.781553 C26.2560393,290.768278 25.9134492,290.487724 25.8222689,290.096542 C25.7310885,289.706245 25.9152197,289.303558 26.2684328,289.115048 L50.8216131,276.069753 C51.0960393,275.923724 51.4253508,275.931689 51.6926951,276.091879 L75.9714492,290.657649 C76.3166951,290.86563 76.4786951,291.278938 76.3644984,291.66658 C76.2538426,292.044486 75.9077115,292.302029 75.5155475,292.302029 L75.5155475,292.302029 Z" id="Fill-4" fill="#3F1A81"/><g id="Group-8" fill="#FFB4EC"><polygon id="Fill-6" points="36.0218066 0.728288503 12.8929869 56.5141789 0.273806557 59.7188607 67.1665279 71.2879302 76.1960361 68.1097992 104.349511 6.01543824"/></g><polygon id="Fill-9" fill="#FFF" points="40.7441508 7.05277807 20.7676918 55.5053369 69.4712656 62.7988422 94.2209705 12.179738"/><path d="M84.5271738,19.7255644 C84.4944197,19.7255644 84.4616656,19.7237944 84.4289115,19.7202543 L43.7731082,15.2048479 C43.2871082,15.1499762 42.9374361,14.712773 42.9905508,14.2268933 C43.0454361,13.7401286 43.4898295,13.3993933 43.9687475,13.4445297 L84.6236656,17.9608211 C85.1096656,18.0148078 85.460223,18.452896 85.406223,18.9378906 C85.3566492,19.3910243 84.9724525,19.7255644 84.5271738,19.7255644" id="Fill-11" fill="#BEC2CB"/><path d="M81.7305049,25.8351695 C81.6977508,25.8351695 81.6641115,25.8333995 81.6304721,25.8289743 L41.3296525,21.2613513 C40.8436525,21.2073647 40.4948656,20.7683914 40.5497508,20.2833968 C40.6046361,19.7975171 41.0357508,19.4355412 41.5288328,19.5036882 L81.8287672,24.0713112 C82.3147672,24.1252979 82.6644393,24.5633861 82.6086689,25.0492658 C82.5582098,25.5015144 82.1748984,25.8351695 81.7305049,25.8351695" id="Fill-13" fill="#BEC2CB"/><path d="M78.8577934,32.1910775 C78.8214984,32.1910775 78.784318,32.1884225 78.7471377,32.1839973 L38.5605148,27.1712059 C38.0754,27.1110241 37.7310393,26.6685107 37.7912361,26.183516 C37.8532033,25.6985214 38.2975967,25.353361 38.7800557,25.4153128 L78.9666787,30.4281043 C79.4517934,30.4882861 79.7961541,30.9307995 79.7350721,31.4157941 C79.6793016,31.8636176 79.2977607,32.1910775 78.8577934,32.1910775" id="Fill-15" fill="#BEC2CB"/><path d="M75.5588361,38.4183027 C75.5172295,38.4183027 75.4747377,38.4156476 75.4313607,38.4094524 L35.9679836,32.737316 C35.4837541,32.6673989 35.1491311,32.2186904 35.2181803,31.7345807 C35.289,31.2513561 35.7307377,30.9185861 36.2202787,30.9849631 L75.684541,36.6570995 C76.1678852,36.7270166 76.5033934,37.1757251 76.4343443,37.6598348 C76.3706066,38.1005781 75.9917213,38.4183027 75.5588361,38.4183027" id="Fill-17" fill="#BEC2CB"/><path d="M72.7267574,45.1044142 C72.6851508,45.1044142 72.642659,45.1017591 72.599282,45.0955639 L33.1359049,39.4234275 C32.6516754,39.3535104 32.3170525,38.9048019 32.3861016,38.4206922 C32.4560361,37.9374676 32.9030852,37.6011575 33.3882,37.6710746 L72.8524623,43.343211 C73.3358066,43.4131281 73.6713148,43.8618366 73.6022656,44.3459463 C73.5385279,44.7866896 73.1596426,45.1044142 72.7267574,45.1044142" id="Fill-19" fill="#BEC2CB"/><path d="M70.304459,50.776639 C70.2628525,50.776639 70.2203607,50.773984 70.1769836,50.7677888 L30.7127213,45.0956524 C30.2284918,45.0257353 29.8938689,44.5770267 29.962918,44.0929171 C30.0328525,43.6096925 30.4701639,43.2751524 30.9659016,43.3432995 L70.4301639,49.0154358 C70.9135082,49.0853529 71.2490164,49.5340615 71.1799672,50.0181711 C71.1162295,50.4589144 70.7373443,50.776639 70.304459,50.776639" id="Fill-21" fill="#BEC2CB"/><path d="M67.1930852,56.7557912 C67.1514787,56.7557912 67.1089869,56.7531361 67.0656098,56.7469409 L27.6013475,51.0748045 C27.117118,51.0048874 26.7824951,50.5561789 26.8515443,50.0720693 C26.9223639,49.5888447 27.3658721,49.2560746 27.8545279,49.3224516 L67.3187902,54.994588 C67.8021344,55.0645051 68.1376426,55.5132136 68.0685934,55.9973233 C68.0048557,56.4380666 67.6259705,56.7557912 67.1930852,56.7557912" id="Fill-23" fill="#BEC2CB"/></g></g></g></g><g id="Floor Object" transform="translate(668.000000, 269.000000) scale(-1, 1) translate(-668.000000, -269.000000) translate(535.000000, 49.000000) scale(1 1)"><g id="Floor Object/Tall Microphone" stroke="none" stroke-width="1" fill="none" fill-rule="evenodd"><g id="Group-18" transform="translate(131.500000, 282.500000) scale(-1, 1) translate(-131.500000, -282.500000) translate(74.000000, 122.000000)"><g id="Group-3" transform="translate(24.000000, 0.000000)" fill="#FFC1FF"><path d="M9.79932353,27.1767353 L3.4755,20.3173235 C-1.04391176,15.4158529 -0.733323529,7.77820588 4.16814706,3.25967647 L4.16814706,3.25967647 C9.06961765,-1.25973529 16.7063824,-0.949147059 21.2257941,3.95232353 L27.5496176,10.8117353 C30.8213824,14.3605588 30.5972647,19.8902647 27.0484412,23.1620294 L22.1487353,27.6779118 C18.5999118,30.9496765 13.0710882,30.7255588 9.79932353,27.1767353" id="Fill-1"/></g><path d="M67.0302056,48.1293902 L70.9091143,44.6586547 C72.283906,43.428145 72.371123,41.3476237 71.1033295,40.0132625 L49.7567435,17.0594571 C48.4880509,15.7242232 46.3453899,15.6395711 44.969699,16.8709535 L41.0916895,20.3416889 C39.7159986,21.5721986 39.6287816,23.6518473 40.8965751,24.9870812 L62.2440602,47.9408866 C63.5118538,49.2761205 65.6545148,49.3598999 67.0302056,48.1293902" id="Fill-4" fill="#443389"/><g id="Group-8" transform="translate(0.000000, 39.000000)" fill="#B9C8FF"><polygon id="Fill-6" points="1.44499194 281.628803 -8.87096774e-05 280.603349 52.3545887 207.269204 52.3545887 0.822220063 54.1287823 0.822220063 54.1287823 207.833204"/></g><g id="Group-11" transform="translate(53.000000, 245.000000)" fill="#B9C8FF"><path d="M8.85625714,76 C8.40897143,76 8.02634286,75.664186 7.97674286,75.2108372 L0.0203714286,1.67111628 C-0.0212571429,1.28051163 0.199285714,0.910232558 0.561542857,0.76 C0.9238,0.610651163 1.34362857,0.715813953 1.58985714,1.01893023 L61.2878857,74.5595349 C61.5961143,74.9395349 61.5376571,75.4962791 61.1568,75.8029302 C60.7768286,76.1104651 60.2197143,76.0503721 59.9114857,75.6730233 L2.10445714,4.46190698 L9.73754286,75.0217209 C9.79068571,75.506 9.43817143,75.9425581 8.95191429,75.9946977 C8.92002857,75.9982326 8.88725714,76 8.85625714,76" id="Fill-9"/></g><path d="M34.2356193,277.724404 L77.7494106,279.099401 L56.1140717,265.927951 L34.2356193,277.724404 Z M81.1158704,281 L81.0884649,281 L30.8567828,279.413327 C30.4563084,279.399873 30.1141814,279.115545 30.0231243,278.719101 C29.9320672,278.323554 30.1159495,277.91545 30.4686851,277.724404 L55.7259741,264.105385 C55.9991453,263.956494 56.3288957,263.96636 56.5958786,264.128705 L81.5711558,279.334397 C81.9168191,279.544279 82.0777161,279.964043 81.9636737,280.3569 C81.8531676,280.738993 81.5075043,281 81.1158704,281 L81.1158704,281 Z" id="Fill-12" fill="#B9C8FF"/><path d="M51.9100147,42 C51.6687976,42 51.4284908,41.9078931 51.2491709,41.7236794 C50.904185,41.3685365 50.918749,40.8079244 51.2846708,40.4713801 L63.4638573,29.2431972 C63.829779,28.9066528 64.4059693,28.9208231 64.7500449,29.2768516 C65.0959411,29.6311088 65.0813771,30.1917209 64.7154553,30.5282653 L52.5353586,41.7573338 C52.3596797,41.9194065 52.1348472,42 51.9100147,42" id="Fill-14" fill="#B9C8FF"/><path d="M74.2787657,237.56919 C76.1768267,242.687605 78.5608052,246.544333 81.5254291,248.78104 C88.735254,254.219743 90.15266,253.349126 90.161431,253.338509 C90.2614213,253.25534 90.4438597,252.474085 89.4290461,250.433797 C87.0862916,245.718839 80.0799557,238.207997 74.2787657,237.56919 M77.345134,320 C76.2101567,320 75.4295309,319.861091 75.3523455,319.846049 L75.6689813,318.1057 C75.7093283,318.111893 79.8343656,318.834753 82.7867099,316.637861 C84.4567229,315.395639 85.4653967,313.425248 85.7820325,310.785084 C86.3547838,306.025887 82.7691678,301.557781 78.2301357,295.903193 C71.4509706,287.45626 63.0140722,276.943381 63,259.313384 C62.9877589,245.203901 65.9181756,237.347997 71.7079632,235.963326 C71.763221,235.950055 71.8184787,235.936783 71.8737365,235.926166 C60.1573325,199.93181 68.7301827,115.175815 72.7464586,75.4680645 C73.6612819,66.4168314 74.3234982,59.8757007 74.3191127,57.7902895 C74.3085874,52.3453933 73.1280005,48.3771841 70.9027784,46.3156618 C69.08278,44.6283987 67.1996299,44.7681929 67.1154275,44.7726168 L66.9514084,43.0110327 C67.0628011,43 69.6379891,42.7739134 72.0438954,44.9690365 C74.7059171,47.4003941 76.0619256,51.7118955 76.073328,57.7867505 C76.0777135,59.9641781 75.446196,66.2027162 74.4910258,75.6476735 C70.8027881,112.114499 61.8913744,200.229094 73.6437398,235.755405 C80.5685047,235.860693 88.4063386,244.428839 90.9981917,249.64104 C92.2287738,252.117521 92.3261327,253.818941 91.2876372,254.694867 C90.3035225,255.525669 88.1125076,255.960093 80.4746541,250.197563 C77.1486619,247.68923 74.5138306,243.350301 72.4517505,237.615199 C72.3377265,237.634664 72.2245796,237.658552 72.1123098,237.685096 C67.2873406,238.839725 64.7428513,246.317831 64.7542537,259.311615 C64.7682875,276.316077 72.9885403,286.5591 79.5940381,294.789263 C84.3935711,300.770332 88.1844304,305.494138 87.5248454,310.997429 C87.1459349,314.148108 85.8978107,316.527264 83.8164343,318.071194 C81.655241,319.673519 79.0835614,320 77.345134,320" id="Fill-16" fill="#443389"/></g></g></g><g transform="translate(323.000000, 94.000000) scale(1 1)" id="Master/Character/Standing"><g id="Master/Character/Standing" stroke="none" stroke-width="1" fill="none" fill-rule="evenodd"><g id="Head" transform="translate(64.000000, 9.000000) scale(1 1)"><g id="Head/Cap" stroke="none" stroke-width="1" fill="none" fill-rule="evenodd"><g id="Group-22" transform="translate(68.000000, 16.000000)"><polygon id="Fill-1" fill="#e1e4e7" points="25.8903 36.3121 25.8903 65.6881 46.7323 70.3181 39.9923 36.3121"/><g id="Group-21" transform="translate(0.000000, 0.317700)"><path d="M45.0536,61.4891 L44.1696,57.0591 L28.9146,43.5281 C28.9146,43.5281 31.3966,51.6641 36.5536,55.6691 C40.3526,58.6201 45.0536,61.4891 45.0536,61.4891" id="Fill-2" fill="#beb9c1"/><path d="M44.9837,57.0751 L44.9837,57.0751 C35.3767,57.0751 28.0667,46.0191 28.0667,38.9021 L28.0667,21.4171 C28.0667,14.3001 34.2167,12.3141 41.9887,12.3141 C49.7607,12.3141 53.2447,13.7441 54.9987,16.4861 L55.2657,40.6841 C55.2657,49.7521 52.7557,57.0751 44.9837,57.0751" id="Fill-4" fill="#e1e4e7"/><path d="M21.9943,38.3863 L21.4293,36.9273 C20.5423,34.6393 21.6773,32.0653 23.9653,31.1783 L23.9663,31.1783 C26.2543,30.2913 28.8283,31.4273 29.7153,33.7153 L30.2803,35.1743 C31.1673,37.4623 30.0313,40.0363 27.7433,40.9233 L27.7433,40.9233 C25.4553,41.8103 22.8813,40.6743 21.9943,38.3863" id="Fill-6" fill="#e1e4e7"/><path d="M23.6625,37.1734 C23.4565,37.1734 23.2645,37.0464 23.1915,36.8404 C23.1685,36.7754 22.6295,35.2194 23.4465,34.0604 C23.9795,33.3054 24.9265,32.9224 26.2605,32.9224 C26.5365,32.9224 26.7605,33.1464 26.7605,33.4224 C26.7605,33.6984 26.5365,33.9224 26.2605,33.9224 C25.2695,33.9224 24.5995,34.1624 24.2645,34.6364 C23.7495,35.3654 24.1295,36.4944 24.1335,36.5064 C24.2255,36.7664 24.0905,37.0514 23.8305,37.1444 C23.7745,37.1644 23.7185,37.1734 23.6625,37.1734" id="Fill-8" fill="#beb9c1"/><path d="M53.6933,11.3776 C53.6933,11.3776 51.4313,6.4106 48.0553,4.8056 C41.7643,1.8146 28.9153,1.3456 25.8863,8.5126 C25.5743,9.2516 20.9293,9.2676 19.1303,13.7796 C15.5113,22.8566 18.2143,26.9716 20.7693,30.7066 L19.5153,32.5396 C19.5153,32.5396 17.5643,40.8566 23.3513,43.5276 C25.5373,44.5366 23.0413,45.8086 23.0413,45.8086 C23.0413,45.8086 25.8193,46.7766 25.8543,45.5536 C25.8893,44.3316 25.8543,41.2116 25.8543,41.2116 C25.8543,41.2116 25.8363,41.2066 25.8073,41.1976 C24.1533,41.0726 22.6343,40.0366 21.9943,38.3866 L21.6653,37.5386 C21.6133,37.4206 21.5683,37.2906 21.5213,37.1656 L21.4293,36.9276 C20.5413,34.6396 21.6773,32.0656 23.9653,31.1786 C25.7963,30.4686 27.7953,31.0686 28.9813,32.5036 C28.9903,32.5066 29.0123,32.5146 29.0183,32.5176 C29.0963,32.6136 29.1633,32.7196 29.2343,32.8216 C29.2643,32.8656 29.2983,32.9066 29.3263,32.9516 C29.4753,33.1786 29.6113,33.4166 29.7133,33.6806 L29.8623,34.0656 C30.8663,33.3446 31.6613,32.3776 31.7113,31.0966 C31.8233,28.1926 25.7013,13.8466 47.2603,16.8336 C56.8463,18.1616 55.6613,17.5826 53.6933,11.3776" id="Fill-10" fill="#7d3b58"/><path d="M54.1018,12.3119 C51.5468,10.4939 43.2608,12.3139 43.2608,12.3139 C42.1738,12.0839 40.7758,8.7389 44.0188,7.2639 C46.1788,6.2799 49.3568,6.9169 51.2428,7.4519 C46.7688,2.0169 38.1578,-2.7861 24.8548,4.0689 C24.8548,4.0689 3.6668,15.8899 18.5398,33.8759 C18.5398,33.8759 37.8148,11.7959 54.9988,15.9689 C54.9988,15.9689 54.8868,14.4009 54.1018,12.3119" id="Fill-12" fill="#B9C8FF"/><path d="M21.5209,37.1651 C21.5679,37.2911 21.6129,37.4201 21.6659,37.5391 L21.9939,38.3861 C22.0879,38.6281 22.2049,38.8511 22.3339,39.0661 L21.3949,36.8051 C21.4099,36.8461 21.4129,36.8871 21.4289,36.9271 L21.5209,37.1651 Z" id="Fill-14" fill="#FFDEE3"/><g id="Group-18" transform="translate(0.000000, 32.000000)" fill="#643FE1"><path d="M19.4581,0.8858 C16.5401,4.1598 10.3051,7.7578 3.0781,11.5278 C-5.2939,15.8948 5.2361,16.1398 12.9731,14.7878 C17.4391,14.0068 21.7191,12.2468 23.3511,11.5278 C18.9181,9.4808 19.1651,3.2808 19.4581,0.8858" id="Fill-16"/></g><path d="M21.8647,8.9452 C21.8647,7.9592 21.9227,6.9862 22.0287,6.0282 C16.7137,10.1752 7.1567,20.1102 18.5397,33.8752 C18.5397,33.8752 21.9367,30.0042 27.6807,25.4572 C24.0377,20.8882 21.8647,15.1642 21.8647,8.9452" id="Fill-19" fill="#8069FF"/></g></g></g></g><g id="Expression" transform="translate(164.000000, 42.000000) scale(1 1)"><g id="Expression/Grinning" stroke="none" stroke-width="1" fill="none" fill-rule="evenodd"><g id="Group-20" transform="translate(6.000000, 6.000000)"><path d="M1,4.662 C0.761,4.662 0.521,4.577 0.33,4.404 C-0.08,4.034 -0.112,3.402 0.258,2.992 C0.363,2.874 2.915,0.125 7.197,1.478 C7.724,1.645 8.016,2.207 7.849,2.734 C7.683,3.26 7.125,3.554 6.594,3.386 C3.519,2.413 1.76,4.313 1.742,4.332 C1.545,4.551 1.272,4.662 1,4.662" id="Fill-1" fill="#7d3b58"/><g id="Group-5" transform="translate(13.000000, 0.109400)" fill="#7d3b58"><path d="M3.2754,3.6117 C2.9824,3.6117 2.6934,3.4837 2.4964,3.2397 C2.4464,3.1837 2.0744,2.8107 1.2734,2.9067 C0.7304,2.9767 0.2284,2.5787 0.1644,2.0297 C0.0994,1.4817 0.4924,0.9847 1.0414,0.9207 C2.9964,0.6907 3.9654,1.8697 4.0694,2.0047 C4.4044,2.4437 4.3204,3.0707 3.8814,3.4057 C3.7004,3.5447 3.4874,3.6117 3.2754,3.6117" id="Fill-3"/></g><path d="M8.1364,11.0666 C8.1364,13.2796 6.6734,15.0726 4.8694,15.0726 C3.0654,15.0726 1.6024,13.2796 1.6024,11.0666 C1.6024,8.8536 3.0654,7.0606 4.8694,7.0606 C6.6734,7.0606 8.1364,8.8536 8.1364,11.0666" id="Fill-6" fill="#FFF"/><path d="M4.8694,7.0602 L4.8694,15.0732 C6.6734,15.0732 8.1364,13.2792 8.1364,11.0662 C8.1364,8.8542 6.6734,7.0602 4.8694,7.0602" id="Fill-8" fill="#1D1D1B"/><path d="M15.8598,10.927 C15.8598,12.953 14.9848,14.595 13.9048,14.595 C12.8248,14.595 11.9498,12.953 11.9498,10.927 C11.9498,8.901 12.8248,7.259 13.9048,7.259 C14.9848,7.259 15.8598,8.901 15.8598,10.927" id="Fill-10" fill="#FFF"/><path d="M13.9048,7.259 L13.9048,14.595 C14.9848,14.595 15.8598,12.953 15.8598,10.927 C15.8598,8.901 14.9848,7.259 13.9048,7.259" id="Fill-12" fill="#1D1D1B"/><path d="M13.7779,18.665 L7.9039,18.815 C6.9679,18.839 6.2529,19.655 6.3529,20.586 C6.5769,22.679 7.3949,26.04 10.2979,26.995 C12.7869,27.813 14.7949,24.068 14.4499,19.281 C14.4249,18.929 14.1309,18.656 13.7779,18.665" id="Fill-14" fill="#3F1A81"/><path d="M7.8285,18.7465 L13.6475,18.5965 C14.1515,18.5835 14.5615,19.0005 14.5375,19.5045 L14.4615,21.1555 L6.4735,21.4585 C6.4735,21.4585 6.3695,20.9695 6.3405,20.4475 C6.2815,19.7135 7.0275,18.7675 7.8285,18.7465" id="Fill-16" fill="#FFF"/><path d="M6.4733,21.4584 L11.7543,21.2584 C11.7543,21.2584 14.5273,22.2834 14.0403,23.7304 C13.5573,25.1624 12.9253,27.0494 11.0443,27.1074 C7.1993,27.2264 6.4733,21.4584 6.4733,21.4584" id="Fill-18" fill="#EA477F"/></g></g></g><g id="Beard" transform="translate(154.000000, 58.000000) scale(1 1)" fill="#000"><g id="Beard/None" stroke="none" stroke-width="1" fill="none" fill-rule="evenodd" fill-opacity="0"/></g><g id="Accesories" transform="translate(152.000000, 50.000000) scale(1 1)"><g id="Accesories/None" stroke="none" stroke-width="1" fill="none" fill-rule="evenodd" fill-opacity="0"/></g><g id="Standing/Lower Body" transform="translate(14.000000, 164.000000) scale(1 1)"><g id="Standing/Lower Body/Blue Pants" stroke="none" stroke-width="1" fill="none" fill-rule="evenodd"><g id="Lower-Body" transform="translate(21.000000, -0.000000)"><polygon id="Fill-30" fill="#e1e4e7" points="21.8486 159.642495 47.9016 141.655495 95.5216 172.995495 67.8106 200.755495 33.9236 195.601495"/><polyline id="Fill-32" fill="#e1e4e7" points="162.4839 205.789995 166.1389 174.418995 220.6469 168.777995 227.6509 200.643995 200.7389 221.870995 166.2289 206.125995"/><path d="M96.1387,228.546895 L48.5477,229.490895 L2.5927,170.539895 L29.3637,154.254895 C29.3637,154.254895 56.6857,191.872895 61.5907,191.872895 C87.1657,191.872895 97.8637,207.075895 96.1367,224.785895 L96.1387,228.546895 Z" id="Fill-34" fill="#FF8187"/><path d="M30.9717,196.576195 C30.9037,196.576195 30.8327,196.562195 30.7667,196.532195 C30.5147,196.418195 30.4027,196.122195 30.5157,195.870195 C30.5847,195.716195 37.3487,180.153195 28.0067,156.347195 C27.9067,156.090195 28.0337,155.800195 28.2897,155.699195 C28.5447,155.599195 28.8367,155.725195 28.9387,155.982195 C33.9007,168.629195 34.3207,178.893195 33.7977,185.277195 C33.2297,192.222195 31.5007,196.119195 31.4277,196.282195 C31.3437,196.467195 31.1617,196.576195 30.9717,196.576195" id="Fill-36" fill="#F85786"/><path d="M263.063619,226.454495 L156.658,226.454495 L162.893,200.606495 C162.893,200.606495 208.112,203.296495 210.852,201.076495 C239.574,177.800495 263.203,203.755495 263.063619,223.006495 L263.063619,226.454495 Z" id="Fill-38" fill="#FF8187"/><path d="M259.416,218.702595 C259.174,218.702595 258.961,218.525595 258.923,218.278595 C255.831,198.108595 237.187,194.848595 236.999,194.817595 C236.727,194.773595 236.542,194.516595 236.586,194.244595 C236.63,193.970595 236.891,193.786595 237.159,193.830595 C237.354,193.862595 256.707,197.223595 259.911,218.126595 C259.953,218.399595 259.766,218.654595 259.493,218.696595 C259.467,218.700595 259.441,218.702595 259.416,218.702595" id="Fill-40" fill="#FFF"/><path d="M192.6533,226.322795 C192.4203,226.322795 192.2123,226.158795 192.1633,225.922795 C192.1303,225.758795 188.4933,209.391795 164.0393,204.636795 C163.7683,204.583795 163.5913,204.321795 163.6433,204.050795 C163.6963,203.778795 163.9603,203.600795 164.2303,203.655795 C177.3443,206.204795 184.5003,212.045795 188.1933,216.495795 C192.2183,221.345795 193.1073,225.546795 193.1433,225.722795 C193.1983,225.993795 193.0233,226.257795 192.7533,226.312795 C192.7193,226.319795 192.6853,226.322795 192.6533,226.322795" id="Fill-42" fill="#F85786"/><g id="Group-46" transform="translate(0.000000, 166.454495)" fill="#3F1A81"><path d="M8.6779,0.3835 L48.5999,52.7425 C50.3799,55.2655 52.2749,56.7675 55.3619,56.7675 L96.7179,56.7675 L97.0949,65.0005 L50.8179,64.6365 C46.6919,64.6085 43.0369,63.1045 40.6669,59.7275 L20.2189,32.6915 L17.8169,22.5055 L14.4689,25.0895 L-0.0001,5.9595 L8.6779,0.3835 Z" id="Fill-44"/></g><g id="Group-49" transform="translate(156.000000, 221.454495)" fill="#3F1A81"><polygon id="Fill-47" points="0.6578 0.9344 0.2018 10.0004 30.8948 10.0004 30.8948 5.9224 39.8918 10.0004 108.1028 10.0004 108.1028 0.9344"/></g><path d="M162.26,191.544395 C164.154,160.412395 157.093,87.1433947 116.249,44.3803947 L111.518,40.1083947 C110.898,39.3433947 116.069,32.3693947 116.808,31.7193947 L129.904,11.0123947 L150.051,11.0123947 C150.051,11.0123947 226.234,85.7633947 243.054,173.220395 L162.26,191.544395 Z" id="Fill-50" fill="#643FE1"/><path d="M186.8945,169.853495 C186.6495,169.853495 186.4355,169.673495 186.4005,169.423495 C174.0255,82.2694947 129.1065,45.9134947 128.6545,45.5564947 C128.4375,45.3854947 128.4005,45.0704947 128.5715,44.8544947 C128.7435,44.6384947 129.0575,44.6014947 129.2735,44.7714947 C129.7295,45.1314947 174.9595,81.7374947 187.3905,169.283495 C187.4295,169.556495 187.2395,169.809495 186.9655,169.848495 C186.9425,169.853495 186.9175,169.853495 186.8945,169.853495" id="Fill-52" fill="#8069FF"/><path d="M105.9635,11.0128947 C105.9635,11.0128947 110.1295,1.97789474 127.8705,1.02989474 C145.6115,0.0808947372 151.4925,11.0128947 151.4925,11.0128947 C151.4925,11.0128947 192.0135,120.719895 114.4475,195.601895 L41.3895,143.961895 C77.4955,118.364895 100.3665,80.1738947 104.5845,31.7378947 L105.9635,11.0128947 Z" id="Fill-54" fill="#8069FF"/><path d="M83.5606,151.018095 C83.4316,151.018095 83.3026,150.968095 83.2056,150.869095 C83.0106,150.673095 83.0126,150.356095 83.2086,150.162095 C83.3516,150.021095 97.5656,135.834095 108.5816,111.044095 C118.7426,88.1780947 128.1826,51.3510947 115.4556,5.76009474 C115.3806,5.49409474 115.5366,5.21809474 115.8016,5.14409474 C116.0656,5.06809474 116.3436,5.22509474 116.4176,5.49109474 C129.2316,51.3880947 119.7156,88.4660947 109.4776,111.489095 C98.3826,136.439095 84.0546,150.732095 83.9126,150.874095 C83.8146,150.970095 83.6876,151.018095 83.5606,151.018095" id="Fill-56" fill="#643FE1"/><path d="M164.9063,174.898395 C164.6773,174.898395 164.4713,174.741395 164.4193,174.510395 C164.3573,174.241395 164.5253,173.972395 164.7953,173.911395 L236.8583,157.377395 C237.1273,157.313395 237.3953,157.485395 237.4573,157.753395 C237.5183,158.022395 237.3503,158.291395 237.0813,158.352395 L165.0173,174.885395 C164.9803,174.894395 164.9423,174.898395 164.9063,174.898395" id="Fill-58" fill="#8069FF"/><path d="M126.0283,180.300795 C125.9333,180.300795 125.8393,180.274795 125.7543,180.218795 L55.9313,134.384795 C55.7013,134.233795 55.6363,133.923795 55.7883,133.692795 C55.9393,133.461795 56.2493,133.397795 56.4803,133.549795 L126.3023,179.382795 C126.5333,179.533795 126.5973,179.843795 126.4463,180.074795 C126.3503,180.220795 126.1903,180.300795 126.0283,180.300795" id="Fill-60" fill="#643FE1"/><path d="M152.8537,15.1299947 L105.6177,15.1299947 C105.6177,15.1299947 103.1857,0.630994737 127.8697,0.000994737187 C127.8697,0.000994737187 150.8117,-0.404005263 152.8537,15.1299947" id="Fill-62" fill="#FFC1FF"/><path d="M93.9902,220.410195 C93.7232,220.410195 93.5022,220.200195 93.4902,219.931195 C92.7202,201.381195 76.5662,196.603195 76.4032,196.557195 C76.1372,196.482195 75.9822,196.206195 76.0572,195.940195 C76.1332,195.674195 76.4082,195.518195 76.6752,195.595195 C76.8442,195.643195 93.6902,200.624195 94.4902,219.889195 C94.5012,220.165195 94.2872,220.398195 94.0112,220.410195 C94.0042,220.410195 93.9972,220.410195 93.9902,220.410195" id="Fill-64" fill="#FFF"/></g></g></g><g id="Upper Body" transform="translate(34.000000, 28.000000) scale(1 1)"><g id="Upper Body/Singing Pink" stroke="none" stroke-width="1" fill="none" fill-rule="evenodd"><g id="Group-31" transform="translate(88.000000, 9.000000)"><polygon id="Fill-1" fill="#FFB4EC" points="119.0412 -0.0001 113.6572 10.9369 99.9732 9.6419 94.5982 20.3559 83.0852 19.1629 79.2752 28.2289 80.1972 28.6169 83.7202 20.2339 95.1812 21.4219 100.5602 10.7019 114.2492 11.9969 119.9372 0.4409"/><polygon id="Fill-2" fill="#FFB4EC" points="113.0157 35.426 103.6147 29.519 95.9237 35.089 88.0937 30.073 82.6277 34.631 81.9877 33.864 88.0157 28.836 95.8887 33.879 103.5757 28.313 112.9707 34.217 120.6897 28.537 121.2817 29.343"/><g id="Group-30" transform="translate(0.000000, 28.888000)"><path d="M56.2979,26.6454 L77.1699,41.3264 C82.0979,44.0694 84.7619,45.4284 89.3169,42.9114 L96.0309,37.2694 C98.9389,34.0534 100.8009,28.5774 110.7449,32.0414 C120.6889,35.5054 118.8629,44.6244 113.5759,53.4134 C113.5759,53.4134 109.0899,60.0894 100.8039,73.2914 C83.4199,100.9884 55.8489,77.7424 55.8489,77.7424 L56.2979,26.6454 Z" id="Fill-3" fill="#ED9CF7"/><g id="Group-7" transform="translate(6.000000, 11.000000)" fill="#ED9CF7"><path d="M8.139,91.4304 L8.858,89.0994 C8.936,88.7334 8.942,88.3564 8.876,87.9884 L0.91,30.0214 C-4.378,6.7754 14.542,-4.5186 29.368,2.5764 L34.264,5.5814 L47.785,13.8774 C58.877,21.1554 64.874,34.1004 63.255,47.2674 L60.629,77.7044 C59.524,83.6824 62.836,88.6414 62.939,93.7554 C62.99,96.3334 60.41,97.8884 59.008,97.9184 L10.963,98.0000086 C8.382,98.0574 7.605,93.9564 8.139,91.4304" id="Fill-5"/></g><path d="M60.1248,98.5519 C60.1248,100.6069 58.8838,102.2739 57.3528,102.2739 C55.8208,102.2739 54.5798,100.6069 54.5798,98.5519 C54.5798,96.4969 55.8208,94.8299 57.3528,94.8299 C58.8838,94.8299 60.1248,96.4969 60.1248,98.5519" id="Fill-8" fill="#5A629D"/><path d="M60.1248,82.1016 C60.1248,84.1566 58.8838,85.8236 57.3528,85.8236 C55.8208,85.8236 54.5798,84.1566 54.5798,82.1016 C54.5798,80.0466 55.8208,78.3796 57.3528,78.3796 C58.8838,78.3796 60.1248,80.0466 60.1248,82.1016" id="Fill-10" fill="#5A629D"/><path d="M59.7916,64.7861 C59.7916,66.8411 58.5506,68.5081 57.0196,68.5081 C55.4876,68.5081 54.2466,66.8411 54.2466,64.7861 C54.2466,62.7311 55.4876,61.0641 57.0196,61.0641 C58.5506,61.0641 59.7916,62.7311 59.7916,64.7861" id="Fill-12" fill="#5A629D"/><path d="M58.8472,48.4639 C58.8472,50.5189 57.6062,52.1859 56.0752,52.1859 C54.5432,52.1859 53.3022,50.5189 53.3022,48.4639 C53.3022,46.4089 54.5432,44.7419 56.0752,44.7419 C57.6062,44.7419 58.8472,46.4089 58.8472,48.4639" id="Fill-14" fill="#5A629D"/><path d="M56.2911,33.5708 C56.7211,35.5808 55.8551,37.4698 54.3581,37.7898 C52.8601,38.1098 51.2981,36.7398 50.8691,34.7298 C50.4391,32.7198 51.3051,30.8308 52.8021,30.5108 C54.2991,30.1908 55.8611,31.5608 56.2911,33.5708" id="Fill-16" fill="#5A629D"/><path d="M75.146,14.989 L75.201,14.939 C77.94,12.413 78.114,8.144 75.588,5.405 L73.252,2.871 C70.727,0.132 66.458,-0.042 63.719,2.484 L63.664,2.535 C60.924,5.06 60.751,9.329 63.277,12.069 L65.612,14.602 C68.138,17.341 72.406,17.515 75.146,14.989" id="Fill-18" fill="#8069FF"/><path d="M89.054,30.647 L89.679,30.071 C90.856,28.986 90.93,27.153 89.845,25.976 L76.245,11.224 C75.16,10.047 73.327,9.973 72.15,11.057 L71.525,11.634 C70.348,12.718 70.274,14.552 71.359,15.728 L84.959,30.481 C86.044,31.657 87.877,31.732 89.054,30.647" id="Fill-20" fill="#C3C5DB"/><path d="M79.3078,37.9093 C79.1858,36.0963 79.3168,34.9313 80.5128,33.3243 C80.5128,33.3243 84.1958,28.5983 84.9388,27.3113 C85.9418,25.5723 84.9788,24.1013 84.0368,24.7373 C82.8508,25.5363 80.7638,27.1463 80.7638,27.1463 C80.7638,27.1463 85.6338,22.5013 85.3528,21.0263 C85.0718,19.5513 83.3998,19.9013 83.3998,19.9013 C83.3998,19.9013 83.9408,17.8853 81.8698,17.8033 C80.7238,17.7573 73.3998,23.2793 73.3998,23.2793 C73.3998,23.2793 76.9228,19.1773 77.5998,17.0883 C78.0918,15.5713 76.8768,15.0503 76.8768,15.0503 L69.5168,21.1823 C66.6188,24.4123 64.4658,30.3403 67.1898,36.4363 L61.7148,45.3103 C63.2578,49.6033 64.0118,57.3193 67.0138,53.8853 L76.2688,44.5903 C77.6508,43.0093 79.5678,41.7783 79.3078,37.9093" id="Fill-22" fill="#e1e4e7"/><g id="Group-26" transform="translate(107.000000, 10.000000)" fill="#e1e4e7"><path d="M33.805,15.1202 C33.805,15.1202 26.968,16.8662 21.481,18.8812 C15.994,20.8962 7.055,30.7572 7.055,30.7572 C6.193,32.2282 -0.003,27.2132 0.237,24.5392 L8.753,1.8122 C9.239,0.5162 11.082,0.5812 11.471,1.9082 L13.617,9.6332 L20.379,9.8522 C25.965,9.9582 28.424,10.7802 30.469,12.0142 C30.469,12.0142 35.97,11.4042 37.771,12.8372 C39.572,14.2702 35.204,14.6932 33.805,15.1202" id="Fill-24"/></g><g id="Group-29" transform="translate(0.000000, 11.000000)" fill="#FFC1FF"><path d="M26.6761,0.209 C26.6761,0.209 11.6841,-1.343 3.9931,18.083 C-8.4239,49.447 10.1021,77.816 32.2691,77.7800342 C56.9471,77.74 66.2731,64.637 75.9421,48.297 C81.6671,38.621 74.5121,32.677 71.4811,30.123 L68.1301,27.68 C65.7321,25.09 58.6001,25.165 54.9471,30.149 C51.6181,34.691 32.1191,43.273 32.8671,42.379 C38.1491,36.068 31.0291,36.269 30.8291,30.022 C30.2401,11.641 31.9581,2.048 26.6761,0.209" id="Fill-27"/></g></g></g></g></g></g></g><g id="Musical Notes" transform="translate(290.000000, 149.500000) scale(-1, 1) translate(-290.000000, -149.500000) translate(230.000000, 92.000000) scale(1 1)"><g id="Musical Notes/Melody 2" stroke="none" stroke-width="1" fill="none" fill-rule="evenodd"><g id="Group-10" transform="translate(9.000000, 21.000000)"><path d="M40.736397,64.1902508 C40.7425507,64.1726073 40.7551513,64.1587865 40.7618911,64.141437 L40,36 L65.2505349,38.5706629 L65.9980673,66.1798533 C67.3413398,65.1377086 69.5596149,64.870409 71.7594289,65.6608394 C74.7741732,66.7438583 76.5936276,69.3853894 75.8232386,71.5605431 C75.0528495,73.7356968 71.9841867,74.6208141 68.9697354,73.5377952 C66.7139518,72.7270748 65.1286324,71.0441757 64.7957446,69.3371638 L64.6972848,69.3398103 L63.9969311,43.4696843 L41.5267125,41.1816119 L42.1051636,62.5496962 C43.4648461,61.6692838 45.530743,61.4731465 47.5901932,62.2129987 C50.6049375,63.2963117 52.4240989,65.9375488 51.6537098,68.1127025 C50.8836138,70.2878562 47.814951,71.1732676 44.8002067,70.0899546 C41.7857554,69.0066416 39.9660079,66.3654045 40.736397,64.1902508" id="Fill-1" fill="#FFC1FF"/><path d="M91,33 L98.8969445,35.3664102 L96.3667256,57.174485 C97.5728178,56.5044438 99.3998452,56.5420681 101.09145,57.4097192 C103.41001,58.5989769 104.583333,60.8806504 103.712285,62.506351 C102.841571,64.1317244 100.256181,64.4853936 97.9376214,63.2961359 C96.2032161,62.4062374 95.1104772,60.9048609 95.0345739,59.5245367 L94.9546582,59.515376 L97.32538,39.0814092 C97.32538,39.0814092 91.7085415,37.8362057 91,33" id="Fill-3" fill="#D1DDF0"/><g id="Group-7" transform="translate(70.000000, 3.000000)" fill="#FFDEE3"><path d="M0.186933333,0.223566667 L6.48026667,1.3959 L6.48026667,18.7822333 C7.34926667,18.1495667 8.7596,18.0192333 10.1399333,18.5545667 C12.0316,19.2879 13.1392667,20.9812333 12.6136,22.3365667 C12.0882667,23.6922333 10.1286,24.1965667 8.23693333,23.4632333 C6.8216,22.9145667 5.84593333,21.8282333 5.66426667,20.7482333 L5.6016,20.7482333 L5.6016,4.45723333 C5.6016,4.45723333 1.1646,3.96823333 0.186933333,0.223566667" id="Fill-5"/></g><path d="M18.7555462,47.9446565 C17.6797369,43.6091246 16.5796963,39.2795513 15.4789917,34.9503091 C16.8259938,34.9542814 18.1637017,35.3260309 19.2458178,36.13375 C21.4973495,37.8147328 22.2913438,41.1862982 21.5278877,43.8090682 C20.9785312,45.6956221 20.1669442,46.9876417 18.7555462,47.9446565 M17.461654,48.6596866 C11.8280118,51.1871193 5.14644304,47.6986994 3.92889651,41.6033991 C2.72827878,35.592843 7.22337561,29.6660382 9.86393795,24.6525519 C10.0504868,24.2986782 10.2294011,23.9428183 10.4016766,23.5853033 C11.3954973,26.8671589 12.495538,30.3006274 13.4737576,33.5447453 C11.0124415,34.358092 9.04438441,36.2837077 8.9866273,39.1901726 C8.96903461,40.072043 9.16056252,40.9678168 9.63257756,41.7189294 C10.1221853,42.4981798 11.2301925,41.5828751 10.7439041,40.8092522 C10.8165984,40.9247826 10.537771,40.2537798 10.495283,40.0588017 C10.2569519,38.960105 10.5805909,37.7157541 11.1787422,36.7812495 C11.6766483,36.0029922 11.6431226,35.9165928 12.4822605,35.5570915 C12.9459771,35.3588031 13.4369126,35.2095075 13.9391339,35.1068874 C14.3882453,36.6352642 14.8018393,38.1086896 15.1503736,39.4837983 C15.9254476,42.5398898 16.7078241,45.5956503 17.4663012,48.6573694 C17.4646415,48.6580314 17.4629818,48.6586935 17.461654,48.6596866 M9.59340894,11.2477242 C9.24952175,9.79316763 8.59693274,8.12343999 8.53054525,6.62949058 C8.4910447,5.7317306 9.05069122,5.39639474 9.87621964,5.82640588 C11.529932,6.68841436 11.874815,9.25226062 11.9481731,10.8739885 C12.0248507,12.572516 11.47649,14.266409 10.7193407,15.9268677 C10.3399362,14.368036 9.96252337,12.8088732 9.59340894,11.2477242 M20.3090134,34.1670863 C18.7718111,33.2507885 16.851553,32.9412732 15.0312081,33.1875613 C14.6026769,31.500951 14.1748095,29.8140097 13.7489338,28.1264063 C13.0867186,25.500657 12.4311421,22.8732525 11.7805447,20.2445239 C12.3030143,18.735347 12.7083099,17.185122 12.9987551,15.5792837 C13.4598163,13.0323201 13.3532643,8.27207356 12.5506396,5.7674821 C11.9707449,3.95772775 7.86169131,-1.70160287 5.7897378,0.501749057 C4.66214632,1.70141062 5.80965405,5.5950142 6.12067943,6.93404043 C6.87318161,10.1731929 7.65622203,13.4050626 8.45121221,16.6342841 C8.64605948,17.4257826 8.86447432,18.2517086 9.0974944,19.0991516 C8.65203436,19.9307051 8.22018375,20.7483552 7.8606955,21.5477986 C6.46157918,24.6578484 4.59874626,27.5361755 3.08245603,30.5882946 C1.68831878,33.3937945 -0.0566763476,36.8325595 0.00141270455,40.0147744 C0.0628211312,43.3826984 2.78669977,47.1730199 5.74691787,48.8583061 C9.16421383,50.8037837 14.0224502,51.2880842 17.7819737,49.9404511 C18.209841,51.6883024 18.6310696,53.4381399 19.0303904,55.1922808 C19.4257279,56.9302011 20.2021296,59.133222 19.4244001,60.8426735 C18.8451693,62.1154933 17.4580027,62.6997655 16.1183032,62.6037661 C16.8376117,62.0655074 17.2419115,61.1588095 17.090216,60.2117257 C16.8721331,58.8495272 15.5881991,57.9219743 14.2226085,58.1394626 C13.2662967,58.2917375 12.5254124,58.9657196 12.240942,59.8230936 C12.1177932,59.9240585 12.0341449,60.0786507 12.0301617,60.2954769 C11.9518245,64.5475886 18.2669343,65.1163024 20.348514,62.1197967 C21.6105401,60.3034217 21.1302266,58.0626631 20.6943928,56.061572 C20.2061128,53.8198203 19.658416,51.5906478 19.1080638,49.3631305 C19.817746,48.9930363 20.4680114,48.5441563 21.0362883,48.0121871 C24.9292507,44.3691751 25.2850876,37.133799 20.3090134,34.1670863" id="Fill-8" fill="#B9C8FF"/></g></g></g><g id="Musical Notes" transform="translate(652.000000, 64.000000) scale(1 1)"><g id="Musical Notes/Melody 1" stroke="none" stroke-width="1" fill="none" fill-rule="evenodd"><g id="Musical-Notes"><g id="Group-3" transform="translate(88.000000, 80.436000)" fill="#D1DDF0"><path d="M1.0773,24.7207 C1.0833,24.7057 1.0943,24.6937 1.1003,24.6787 L1.1003,0.1457 L23.1893,2.9847 L23.1893,27.0537 C24.3923,26.1777 26.3453,25.9977 28.2553,26.7387 C30.8743,27.7537 32.4083,30.0977 31.6803,31.9747 C30.9533,33.8507 28.2403,34.5487 25.6213,33.5337 C23.6623,32.7747 22.3113,31.2707 22.0603,29.7757 L21.9733,29.7757 L21.9733,7.2227 L2.3173,4.6967 L2.3173,23.3237 C3.5303,22.5897 5.3473,22.4677 7.1363,23.1607 C9.7553,24.1767 11.2883,26.5207 10.5613,28.3967 C9.8333,30.2737 7.1213,30.9717 4.5023,29.9567 C1.8833,28.9417 0.3503,26.5977 1.0773,24.7207" id="Fill-1"/></g><g id="Group-6" transform="translate(60.000000, 0.436000)" fill="#B9C8FF"><path d="M0.369,25.1382 C0.375,25.1232 0.386,25.1112 0.392,25.0962 L0.392,0.5632 L22.481,3.4022 L22.481,27.4712 C23.684,26.5952 25.637,26.4152 27.547,27.1562 C30.166,28.1712 31.7,30.5152 30.972,32.3922 C30.245,34.2682 27.532,34.9662 24.913,33.9512 C22.954,33.1922 21.603,31.6882 21.352,30.1932 L21.265,30.1932 L21.265,7.6402 L1.609,5.1142 L1.609,23.7412 C2.822,23.0072 4.639,22.8852 6.428,23.5782 C9.047,24.5942 10.58,26.9382 9.853,28.8142 C9.125,30.6912 6.413,31.3892 3.794,30.3742 C1.175,29.3592 -0.358,27.0152 0.369,25.1382" id="Fill-4"/></g><path d="M38.2986,49.5159 L47.0106,51.1389 L47.0106,75.2069 C48.2136,74.3319 50.1656,74.1509 52.0766,74.8919 C54.6956,75.9069 56.2286,78.2519 55.5016,80.1279 C54.7736,82.0049 52.0616,82.7029 49.4426,81.6879 C47.4836,80.9279 46.1326,79.4239 45.8806,77.9289 L45.7946,77.9289 L45.7946,55.3769 C45.7946,55.3769 39.6516,54.6999 38.2986,49.5159" id="Fill-7" fill="#FFC1FF"/><path d="M0,29.0618 L8.712,30.6848 L8.712,54.7528 C9.915,53.8778 11.867,53.6968 13.778,54.4378 C16.397,55.4528 17.93,57.7978 17.203,59.6738 C16.475,61.5508 13.763,62.2488 11.144,61.2338 C9.185,60.4738 7.834,58.9698 7.582,57.4748 L7.496,57.4748 L7.496,34.9228 C7.496,34.9228 1.353,34.2458 0,29.0618" id="Fill-9" fill="#8069FF"/></g></g></g></g></svg>