<svg viewBox="144 189.17792792792795 624 361.48648648648634" xmlns="http://www.w3.org/2000/svg" overflow="visible" xmlns:xlink="http://www.w3.org/1999/xlink" width="624px" height="361.48648648648634px"><g id="Master/Scene/Music Practice" stroke="none" stroke-width="1" fill="none" fill-rule="evenodd"><g id="Background" transform="translate(54.000000, 140.000000) scale(1 1)"><g id="Background/None" stroke="none" stroke-width="1" fill="none" fill-rule="evenodd" fill-opacity="0"/></g><g id="Chair" transform="translate(219.000000, 278.000000) scale(1 1)"><g id="Chair/Pink" stroke="none" stroke-width="1" fill="none" fill-rule="evenodd"><g id="Group-38" transform="translate(62.000000, 0.000000)"><path d="M96.3579,125.2972 C95.9239,125.2972 95.5259,125.0132 95.3979,124.5772 L59.9369,3.2802 C59.7819,2.7502 60.0869,2.1952 60.6169,2.0402 C61.1489,1.8832 61.7019,2.1892 61.8569,2.7192 L97.3179,124.0162 C97.4729,124.5462 97.1689,125.1012 96.6379,125.2562 C96.5449,125.2842 96.4509,125.2972 96.3579,125.2972" id="Fill-1" fill="#443389"/><polygon id="Fill-3" fill="#443389" points="38.3901 256.6967 36.3921 256.6177 41.6591 123.4147 43.6571 123.4937"/><polygon id="Fill-5" fill="#443389" points="65.8394 256.6644 63.8394 256.6494 64.7774 126.2394 66.7774 126.2534"/><polygon id="Fill-7" fill="#443389" points="146.1528 256.745 134.4138 123.542 136.4058 123.366 148.1448 256.569"/><polygon id="Fill-9" fill="#443389" points="114.4595 256.6884 110.3145 123.4854 112.3145 123.4224 116.4575 256.6264"/><polygon id="Fill-11" fill="#443389" points="40.7856 129.0126 137.5006 129.0126 137.5006 121.1826 41.0826 121.6896"/><path d="M137.5005,129.0126 C137.5005,125.6816 115.8505,122.9816 89.1435,122.9816 C62.4355,122.9816 40.7855,125.6816 40.7855,129.0126 C40.7855,132.3436 62.4355,135.0436 89.1435,135.0436 C115.8505,135.0436 137.5005,132.3436 137.5005,129.0126" id="Fill-13" fill="#443389"/><path d="M137.5005,122.9815 C137.5005,122.9815 130.5775,127.9815 89.1435,127.9815 C47.7085,127.9815 41.0245,122.9815 41.0245,122.9815 L41.0245,122.9815 C41.0245,115.0575 47.4485,108.6325 55.3735,108.6325 L123.1515,108.6325 C131.0765,108.6325 137.5005,115.0575 137.5005,122.9815 Z" id="Fill-15" fill="#FFC1FF"/><path d="M43.7856,130.0131 C43.3566,130.0131 42.9616,129.7361 42.8296,129.3051 L4.2496,3.2931 C4.0876,2.7641 4.3846,2.2051 4.9126,2.0441 C5.4396,1.8801 5.9996,2.1801 6.1616,2.7071 L44.7416,128.7201 C44.9036,129.2481 44.6066,129.8071 44.0786,129.9691 C43.9806,129.9981 43.8826,130.0131 43.7856,130.0131" id="Fill-17" fill="#443389"/><g id="Group-21" transform="translate(0.000000, 0.745000)" fill="#FFC1FF"><path d="M0.2772,8.0105 L13.9022,51.5065 C14.6982,54.0495 17.0832,55.7565 19.7462,55.6915 L75.0512,54.3155 C78.9302,54.2205 81.6892,50.5095 80.6632,46.7675 L68.1172,4.6475 C67.4062,2.0535 65.0482,0.2545 62.3592,0.2545 L5.9752,0.2545 C1.9452,0.2545 -0.9278,4.1645 0.2772,8.0105" id="Fill-19"/></g><path d="M6.9782,6.2861 C6.9782,6.7441 6.6072,7.1161 6.1482,7.1161 C5.6902,7.1161 5.3192,6.7441 5.3192,6.2861 C5.3192,5.8281 5.6902,5.4561 6.1482,5.4561 C6.6072,5.4561 6.9782,5.8281 6.9782,6.2861" id="Fill-22" fill="#443389"/><path d="M8.0819,10.3918 C8.0819,10.8498 7.7109,11.2218 7.2519,11.2218 C6.7939,11.2218 6.4229,10.8498 6.4229,10.3918 C6.4229,9.9338 6.7939,9.5618 7.2519,9.5618 C7.7109,9.5618 8.0819,9.9338 8.0819,10.3918" id="Fill-24" fill="#443389"/><path d="M19.0794,46.6869 C19.0794,47.1449 18.7084,47.5169 18.2494,47.5169 C17.7914,47.5169 17.4204,47.1449 17.4204,46.6869 C17.4204,46.2289 17.7914,45.8569 18.2494,45.8569 C18.7084,45.8569 19.0794,46.2289 19.0794,46.6869" id="Fill-26" fill="#443389"/><path d="M20.5527,50.7926 C20.5527,51.2506 20.1817,51.6226 19.7227,51.6226 C19.2647,51.6226 18.8937,51.2506 18.8937,50.7926 C18.8937,50.3346 19.2647,49.9626 19.7227,49.9626 C20.1817,49.9626 20.5527,50.3346 20.5527,50.7926" id="Fill-28" fill="#443389"/><path d="M62.5561,5.2861 C62.5561,5.7441 62.1851,6.1161 61.7261,6.1161 C61.2681,6.1161 60.8971,5.7441 60.8971,5.2861 C60.8971,4.8281 61.2681,4.4561 61.7261,4.4561 C62.1851,4.4561 62.5561,4.8281 62.5561,5.2861" id="Fill-30" fill="#443389"/><path d="M63.6598,9.3918 C63.6598,9.8498 63.2888,10.2218 62.8298,10.2218 C62.3718,10.2218 62.0008,9.8498 62.0008,9.3918 C62.0008,8.9338 62.3718,8.5618 62.8298,8.5618 C63.2888,8.5618 63.6598,8.9338 63.6598,9.3918" id="Fill-32" fill="#443389"/><path d="M74.6573,45.6869 C74.6573,46.1449 74.2863,46.5169 73.8273,46.5169 C73.3693,46.5169 72.9983,46.1449 72.9983,45.6869 C72.9983,45.2289 73.3693,44.8569 73.8273,44.8569 C74.2863,44.8569 74.6573,45.2289 74.6573,45.6869" id="Fill-34" fill="#443389"/><path d="M76.1306,49.7926 C76.1306,50.2506 75.7596,50.6226 75.3006,50.6226 C74.8426,50.6226 74.4716,50.2506 74.4716,49.7926 C74.4716,49.3346 74.8426,48.9626 75.3006,48.9626 C75.7596,48.9626 76.1306,49.3346 76.1306,49.7926" id="Fill-36" fill="#443389"/></g></g></g><g id="Floor Object" transform="translate(80.000000, 96.000000) scale(1 1)"><g id="Floor Object/Musical Score" stroke="none" stroke-width="1" fill="none" fill-rule="evenodd"><g id="Group-26" transform="translate(129.500000, 276.000000) scale(-1, 1) translate(-129.500000, -276.000000) translate(74.000000, 110.000000)"><polygon id="Fill-1" fill="#3F1A81" points="51.2112534 66 51.2112534 258.600932 0 329.971869 1.45620604 331 53 259.166404 53 66"/><g id="Group-25" transform="translate(3.000000, 0.000000)"><path d="M56.6617574,331 C56.2147082,331 55.832282,330.66369 55.7827082,330.209671 L48.0633639,258.711901 C48.0208721,258.321604 48.2412984,257.950778 48.6033639,257.800324 C48.9663148,257.650754 49.3850361,257.755187 49.6320197,258.059636 L107.55543,329.558291 C107.863495,329.937968 107.804184,330.495535 107.425298,330.802639 C107.043757,331.109743 106.486938,331.050447 106.179757,330.67254 L50.1463475,261.506816 L57.542577,330.020275 C57.5956918,330.50527 57.2433639,330.942473 56.7573639,330.99469 C56.7254951,330.99823 56.692741,331 56.6617574,331" id="Fill-2" fill="#3F1A81"/><path d="M30.0404656,289.115048 L72.1445311,290.425772 L51.2102361,277.867243 L30.0404656,289.115048 Z M75.5155475,292.302029 L75.4881049,292.302029 L26.6570557,290.781553 C26.2560393,290.768278 25.9134492,290.487724 25.8222689,290.096542 C25.7310885,289.706245 25.9152197,289.303558 26.2684328,289.115048 L50.8216131,276.069753 C51.0960393,275.923724 51.4253508,275.931689 51.6926951,276.091879 L75.9714492,290.657649 C76.3166951,290.86563 76.4786951,291.278938 76.3644984,291.66658 C76.2538426,292.044486 75.9077115,292.302029 75.5155475,292.302029 L75.5155475,292.302029 Z" id="Fill-4" fill="#3F1A81"/><g id="Group-8" fill="#FFB4EC"><polygon id="Fill-6" points="36.0218066 0.728288503 12.8929869 56.5141789 0.273806557 59.7188607 67.1665279 71.2879302 76.1960361 68.1097992 104.349511 6.01543824"/></g><polygon id="Fill-9" fill="#FFF" points="40.7441508 7.05277807 20.7676918 55.5053369 69.4712656 62.7988422 94.2209705 12.179738"/><path d="M84.5271738,19.7255644 C84.4944197,19.7255644 84.4616656,19.7237944 84.4289115,19.7202543 L43.7731082,15.2048479 C43.2871082,15.1499762 42.9374361,14.712773 42.9905508,14.2268933 C43.0454361,13.7401286 43.4898295,13.3993933 43.9687475,13.4445297 L84.6236656,17.9608211 C85.1096656,18.0148078 85.460223,18.452896 85.406223,18.9378906 C85.3566492,19.3910243 84.9724525,19.7255644 84.5271738,19.7255644" id="Fill-11" fill="#BEC2CB"/><path d="M81.7305049,25.8351695 C81.6977508,25.8351695 81.6641115,25.8333995 81.6304721,25.8289743 L41.3296525,21.2613513 C40.8436525,21.2073647 40.4948656,20.7683914 40.5497508,20.2833968 C40.6046361,19.7975171 41.0357508,19.4355412 41.5288328,19.5036882 L81.8287672,24.0713112 C82.3147672,24.1252979 82.6644393,24.5633861 82.6086689,25.0492658 C82.5582098,25.5015144 82.1748984,25.8351695 81.7305049,25.8351695" id="Fill-13" fill="#BEC2CB"/><path d="M78.8577934,32.1910775 C78.8214984,32.1910775 78.784318,32.1884225 78.7471377,32.1839973 L38.5605148,27.1712059 C38.0754,27.1110241 37.7310393,26.6685107 37.7912361,26.183516 C37.8532033,25.6985214 38.2975967,25.353361 38.7800557,25.4153128 L78.9666787,30.4281043 C79.4517934,30.4882861 79.7961541,30.9307995 79.7350721,31.4157941 C79.6793016,31.8636176 79.2977607,32.1910775 78.8577934,32.1910775" id="Fill-15" fill="#BEC2CB"/><path d="M75.5588361,38.4183027 C75.5172295,38.4183027 75.4747377,38.4156476 75.4313607,38.4094524 L35.9679836,32.737316 C35.4837541,32.6673989 35.1491311,32.2186904 35.2181803,31.7345807 C35.289,31.2513561 35.7307377,30.9185861 36.2202787,30.9849631 L75.684541,36.6570995 C76.1678852,36.7270166 76.5033934,37.1757251 76.4343443,37.6598348 C76.3706066,38.1005781 75.9917213,38.4183027 75.5588361,38.4183027" id="Fill-17" fill="#BEC2CB"/><path d="M72.7267574,45.1044142 C72.6851508,45.1044142 72.642659,45.1017591 72.599282,45.0955639 L33.1359049,39.4234275 C32.6516754,39.3535104 32.3170525,38.9048019 32.3861016,38.4206922 C32.4560361,37.9374676 32.9030852,37.6011575 33.3882,37.6710746 L72.8524623,43.343211 C73.3358066,43.4131281 73.6713148,43.8618366 73.6022656,44.3459463 C73.5385279,44.7866896 73.1596426,45.1044142 72.7267574,45.1044142" id="Fill-19" fill="#BEC2CB"/><path d="M70.304459,50.776639 C70.2628525,50.776639 70.2203607,50.773984 70.1769836,50.7677888 L30.7127213,45.0956524 C30.2284918,45.0257353 29.8938689,44.5770267 29.962918,44.0929171 C30.0328525,43.6096925 30.4701639,43.2751524 30.9659016,43.3432995 L70.4301639,49.0154358 C70.9135082,49.0853529 71.2490164,49.5340615 71.1799672,50.0181711 C71.1162295,50.4589144 70.7373443,50.776639 70.304459,50.776639" id="Fill-21" fill="#BEC2CB"/><path d="M67.1930852,56.7557912 C67.1514787,56.7557912 67.1089869,56.7531361 67.0656098,56.7469409 L27.6013475,51.0748045 C27.117118,51.0048874 26.7824951,50.5561789 26.8515443,50.0720693 C26.9223639,49.5888447 27.3658721,49.2560746 27.8545279,49.3224516 L67.3187902,54.994588 C67.8021344,55.0645051 68.1376426,55.5132136 68.0685934,55.9973233 C68.0048557,56.4380666 67.6259705,56.7557912 67.1930852,56.7557912" id="Fill-23" fill="#BEC2CB"/></g></g></g></g><g id="Floor Object" transform="translate(708.000000, 316.000000) scale(-1, 1) translate(-708.000000, -316.000000) translate(575.000000, 96.000000) scale(1 1)"><g id="Floor Object/Tall Microphone" stroke="none" stroke-width="1" fill="none" fill-rule="evenodd"><g id="Group-18" transform="translate(131.500000, 282.500000) scale(-1, 1) translate(-131.500000, -282.500000) translate(74.000000, 122.000000)"><g id="Group-3" transform="translate(24.000000, 0.000000)" fill="#FFC1FF"><path d="M9.79932353,27.1767353 L3.4755,20.3173235 C-1.04391176,15.4158529 -0.733323529,7.77820588 4.16814706,3.25967647 L4.16814706,3.25967647 C9.06961765,-1.25973529 16.7063824,-0.949147059 21.2257941,3.95232353 L27.5496176,10.8117353 C30.8213824,14.3605588 30.5972647,19.8902647 27.0484412,23.1620294 L22.1487353,27.6779118 C18.5999118,30.9496765 13.0710882,30.7255588 9.79932353,27.1767353" id="Fill-1"/></g><path d="M67.0302056,48.1293902 L70.9091143,44.6586547 C72.283906,43.428145 72.371123,41.3476237 71.1033295,40.0132625 L49.7567435,17.0594571 C48.4880509,15.7242232 46.3453899,15.6395711 44.969699,16.8709535 L41.0916895,20.3416889 C39.7159986,21.5721986 39.6287816,23.6518473 40.8965751,24.9870812 L62.2440602,47.9408866 C63.5118538,49.2761205 65.6545148,49.3598999 67.0302056,48.1293902" id="Fill-4" fill="#443389"/><g id="Group-8" transform="translate(0.000000, 39.000000)" fill="#B9C8FF"><polygon id="Fill-6" points="1.44499194 281.628803 -8.87096774e-05 280.603349 52.3545887 207.269204 52.3545887 0.822220063 54.1287823 0.822220063 54.1287823 207.833204"/></g><g id="Group-11" transform="translate(53.000000, 245.000000)" fill="#B9C8FF"><path d="M8.85625714,76 C8.40897143,76 8.02634286,75.664186 7.97674286,75.2108372 L0.0203714286,1.67111628 C-0.0212571429,1.28051163 0.199285714,0.910232558 0.561542857,0.76 C0.9238,0.610651163 1.34362857,0.715813953 1.58985714,1.01893023 L61.2878857,74.5595349 C61.5961143,74.9395349 61.5376571,75.4962791 61.1568,75.8029302 C60.7768286,76.1104651 60.2197143,76.0503721 59.9114857,75.6730233 L2.10445714,4.46190698 L9.73754286,75.0217209 C9.79068571,75.506 9.43817143,75.9425581 8.95191429,75.9946977 C8.92002857,75.9982326 8.88725714,76 8.85625714,76" id="Fill-9"/></g><path d="M34.2356193,277.724404 L77.7494106,279.099401 L56.1140717,265.927951 L34.2356193,277.724404 Z M81.1158704,281 L81.0884649,281 L30.8567828,279.413327 C30.4563084,279.399873 30.1141814,279.115545 30.0231243,278.719101 C29.9320672,278.323554 30.1159495,277.91545 30.4686851,277.724404 L55.7259741,264.105385 C55.9991453,263.956494 56.3288957,263.96636 56.5958786,264.128705 L81.5711558,279.334397 C81.9168191,279.544279 82.0777161,279.964043 81.9636737,280.3569 C81.8531676,280.738993 81.5075043,281 81.1158704,281 L81.1158704,281 Z" id="Fill-12" fill="#B9C8FF"/><path d="M51.9100147,42 C51.6687976,42 51.4284908,41.9078931 51.2491709,41.7236794 C50.904185,41.3685365 50.918749,40.8079244 51.2846708,40.4713801 L63.4638573,29.2431972 C63.829779,28.9066528 64.4059693,28.9208231 64.7500449,29.2768516 C65.0959411,29.6311088 65.0813771,30.1917209 64.7154553,30.5282653 L52.5353586,41.7573338 C52.3596797,41.9194065 52.1348472,42 51.9100147,42" id="Fill-14" fill="#B9C8FF"/><path d="M74.2787657,237.56919 C76.1768267,242.687605 78.5608052,246.544333 81.5254291,248.78104 C88.735254,254.219743 90.15266,253.349126 90.161431,253.338509 C90.2614213,253.25534 90.4438597,252.474085 89.4290461,250.433797 C87.0862916,245.718839 80.0799557,238.207997 74.2787657,237.56919 M77.345134,320 C76.2101567,320 75.4295309,319.861091 75.3523455,319.846049 L75.6689813,318.1057 C75.7093283,318.111893 79.8343656,318.834753 82.7867099,316.637861 C84.4567229,315.395639 85.4653967,313.425248 85.7820325,310.785084 C86.3547838,306.025887 82.7691678,301.557781 78.2301357,295.903193 C71.4509706,287.45626 63.0140722,276.943381 63,259.313384 C62.9877589,245.203901 65.9181756,237.347997 71.7079632,235.963326 C71.763221,235.950055 71.8184787,235.936783 71.8737365,235.926166 C60.1573325,199.93181 68.7301827,115.175815 72.7464586,75.4680645 C73.6612819,66.4168314 74.3234982,59.8757007 74.3191127,57.7902895 C74.3085874,52.3453933 73.1280005,48.3771841 70.9027784,46.3156618 C69.08278,44.6283987 67.1996299,44.7681929 67.1154275,44.7726168 L66.9514084,43.0110327 C67.0628011,43 69.6379891,42.7739134 72.0438954,44.9690365 C74.7059171,47.4003941 76.0619256,51.7118955 76.073328,57.7867505 C76.0777135,59.9641781 75.446196,66.2027162 74.4910258,75.6476735 C70.8027881,112.114499 61.8913744,200.229094 73.6437398,235.755405 C80.5685047,235.860693 88.4063386,244.428839 90.9981917,249.64104 C92.2287738,252.117521 92.3261327,253.818941 91.2876372,254.694867 C90.3035225,255.525669 88.1125076,255.960093 80.4746541,250.197563 C77.1486619,247.68923 74.5138306,243.350301 72.4517505,237.615199 C72.3377265,237.634664 72.2245796,237.658552 72.1123098,237.685096 C67.2873406,238.839725 64.7428513,246.317831 64.7542537,259.311615 C64.7682875,276.316077 72.9885403,286.5591 79.5940381,294.789263 C84.3935711,300.770332 88.1844304,305.494138 87.5248454,310.997429 C87.1459349,314.148108 85.8978107,316.527264 83.8164343,318.071194 C81.655241,319.673519 79.0835614,320 77.345134,320" id="Fill-16" fill="#443389"/></g></g></g><g transform="translate(268.000000, 140.000000) scale(1 1)" id="Master/Character/Sitting"><g id="Master/Character/Sitting" stroke="none" stroke-width="1" fill="none" fill-rule="evenodd"><g id="Sitting/Lower Body" transform="translate(77.000000, 128.000000) scale(1 1)"><g id="Sitting/Lower Body/Pink Pants" stroke="none" stroke-width="1" fill="none" fill-rule="evenodd"><g id="Group-31" transform="translate(0.000000, 74.000000)"><polygon id="Fill-1" fill="#b67831" points="141.2237 170.5989 127.8597 116.9209 187.2917 93.6959 217.4637 167.1859 170.4807 186.8039"/><polygon id="Fill-2" fill="#b67831" points="21.9073 167.247 31.4643 120.136 99.7613 92.696 100.6853 179.003 40.2713 183.627"/><g id="Group-30" transform="translate(0.000000, 0.733000)"><path d="M127.7445,131.0104 C113.6005,70.4844 105.1805,60.1164 11.4275,45.7054 L6.6965,41.4334 C6.0765,40.6684 8.2475,33.6944 8.9865,33.0454 L22.0815,12.3384 L42.2285,12.3384 C42.2285,12.3384 92.7455,14.9724 124.6165,22.0884 C169.4245,32.0924 188.3605,78.6074 206.1525,122.5254 L127.7445,131.0104 Z" id="Fill-3" fill="#ED9CF7"/><path d="M1.1418,12.3382 C1.1418,12.3382 0.3688,3.7062 23.3598,2.9232 C46.3518,2.1402 46.6708,12.3382 46.6708,12.3382 C46.6708,12.3382 89.7158,12.9252 105.3168,43.2452 C114.1618,60.4372 116.7888,80.9772 116.7388,101.2772 C116.7148,111.3322 118.0338,122.3282 117.1278,131.8282 L27.1608,139.7882 C27.1608,139.7882 34.4468,76.9282 34.7868,67.8512 C35.5338,47.9062 18.3788,50.4502 11.4278,45.7052 C1.7998,39.1332 -0.9522,27.9612 0.2738,18.8142 L1.1418,12.3382 Z" id="Fill-5" fill="#FFC1FF"/><path d="M3.0499,32.1502 C2.8069,32.1502 2.5939,31.9712 2.5569,31.7232 C2.5169,31.4502 2.7049,31.1962 2.9779,31.1552 C3.0149,31.1502 6.7489,30.5472 10.3569,26.5152 C14.0509,22.3862 14.8669,15.8762 14.8749,15.8112 C14.9079,15.5362 15.1599,15.3452 15.4309,15.3732 C15.7039,15.4062 15.9009,15.6542 15.8669,15.9292 C15.8339,16.2082 15.0099,22.8142 11.1029,27.1822 C7.2369,31.5022 3.2889,32.1212 3.1229,32.1452 C3.0989,32.1492 3.0739,32.1502 3.0499,32.1502" id="Fill-7" fill="#ED9CF7"/><g id="Group-11" fill="#5A629D"><path d="M46.6706,12.3382 L0.273430425,18.8142 C0.273430425,18.8142 -0.0004,-3.6738 21.4796,0.8742 C42.1596,5.2532 46.7966,4.8832 46.6706,12.3382" id="Fill-9"/></g><polygon id="Fill-12" fill="#E1C321" points="15.371 194 124.914 194 124.914 185.001 15.371 185.001"/><path d="M85.0568,163.7219 C84.7978,163.7219 84.5388,163.6219 84.3428,163.4219 C83.9568,163.0279 83.9618,162.3969 84.3558,162.0099 C84.5178,161.8499 88.4078,158.0869 95.2668,156.7619 C101.9928,155.4629 104.7008,156.3719 104.9868,156.4799 C105.5028,156.6749 105.7648,157.2519 105.5698,157.7689 C105.3748,158.2859 104.7978,158.5449 104.2818,158.3519 C104.2698,158.3479 101.8168,157.5339 95.6458,158.7249 C89.4098,159.9299 85.7918,163.4019 85.7568,163.4369 C85.5618,163.6269 85.3098,163.7219 85.0568,163.7219" id="Fill-14" fill="#FF9B8F"/><path d="M91.5021,169.1677 C91.2431,169.1677 90.9841,169.0677 90.7881,168.8677 C90.4021,168.4737 90.4071,167.8427 90.8011,167.4557 C90.9631,167.2957 94.8541,163.5327 101.7121,162.2077 C108.4381,160.9097 111.1461,161.8187 111.4321,161.9257 C111.9481,162.1207 112.2101,162.6977 112.0151,163.2147 C111.8201,163.7317 111.2421,163.9917 110.7271,163.7977 C110.7161,163.7937 108.2621,162.9797 102.0911,164.1707 C95.8551,165.3757 92.2371,168.8487 92.2021,168.8827 C92.0071,169.0727 91.7551,169.1677 91.5021,169.1677" id="Fill-15" fill="#FF9B8F"/><polygon id="Fill-16" fill="#F0DB00" points="124.9143 194 110.3853 194 99.4963 190.841 99.6383 194 87.7643 194 78.5283 190.553 79.0683 194 67.4093 194 59.0543 190.553 59.3043 194 43.8913 194 33.4773 190.553 33.4773 194 15.3713 194 15.3713 185.001 124.9143 185.001"/><path d="M81.1851,185.0005 C81.1851,185.0005 90.0751,171.1365 116.6181,170.5325 C116.6181,170.5325 121.7581,177.0715 122.4641,185.0005 L81.1851,185.0005 Z" id="Fill-17" fill="#B9C8FF"/><path d="M24.454,152.2782 L15.371,194.0002 L123.397,194.0002 L123.397,194.0002 C123.397,184.5892 122.822,179.1962 119.618,172.5332 C112.35,157.4212 101.12,150.3312 101.12,150.3312 C101.12,150.3312 71.969,150.3312 40.901,166.9722 C30.065,172.7762 24.454,152.2782 24.454,152.2782" id="Fill-18" fill="#8069FF"/><polygon id="Fill-19" fill="#E1C321" points="15.371 194 124.914 194 124.914 185.001 15.371 185.001"/><path d="M88.0568,162.7219 C87.7978,162.7219 87.5388,162.6219 87.3428,162.4219 C86.9568,162.0279 86.9618,161.3969 87.3558,161.0099 C87.5178,160.8499 91.4078,157.0869 98.2668,155.7619 C104.9918,154.4639 107.7008,155.3729 107.9868,155.4799 C108.5028,155.6749 108.7648,156.2519 108.5698,156.7689 C108.3748,157.2849 107.7958,157.5449 107.2818,157.3519 C107.2698,157.3479 104.8168,156.5349 98.6458,157.7249 C92.4098,158.9299 88.7918,162.4019 88.7568,162.4369 C88.5618,162.6269 88.3098,162.7219 88.0568,162.7219" id="Fill-20" fill="#FF9B8F"/><path d="M93.5021,169.1677 C93.2431,169.1677 92.9841,169.0677 92.7881,168.8677 C92.4021,168.4737 92.4071,167.8427 92.8011,167.4557 C92.9631,167.2957 96.8541,163.5327 103.7121,162.2077 C110.4371,160.9097 113.1471,161.8187 113.4321,161.9257 C113.9481,162.1207 114.2101,162.6977 114.0151,163.2147 C113.8201,163.7317 113.2411,163.9917 112.7271,163.7977 C112.7161,163.7937 110.2621,162.9797 104.0911,164.1707 C97.8551,165.3757 94.2371,168.8487 94.2021,168.8827 C94.0071,169.0727 93.7551,169.1677 93.5021,169.1677" id="Fill-21" fill="#FF9B8F"/><polygon id="Fill-22" fill="#F0DB00" points="124.9143 194 110.3853 194 99.4963 188.841 99.6383 194 87.7643 194 78.5283 188.553 79.0683 194 67.4093 194 59.0543 188.553 59.3043 194 43.8913 194 33.4773 188.553 33.4773 194 15.3713 194 15.3713 185.001 124.9143 185.001"/><path d="M81.1851,185.0005 C81.1851,185.0005 91.7081,170.4695 118.2521,169.8655 C118.2521,169.8655 122.7581,177.0715 123.4641,185.0005 L81.1851,185.0005 Z" id="Fill-23" fill="#643FE1"/><path d="M137.5246,157.2782 L143.4416,194.0002 L246.4676,194.0002 L246.4676,194.0002 C246.4676,184.5892 243.6136,176.7982 239.6886,170.5332 C231.0406,156.7302 210.3526,148.4452 210.3526,148.4452 C210.3526,148.4452 192.0396,147.3312 160.9716,163.9722 C150.1356,169.7762 137.5246,157.2782 137.5246,157.2782" id="Fill-24" fill="#8069FF"/><polygon id="Fill-25" fill="#E1C321" points="142.442 194 247.985 194 247.985 185.001 142.442 185.001"/><path d="M204.1271,160.7219 C203.8681,160.7219 203.6091,160.6219 203.4131,160.4219 C203.0271,160.0279 203.0321,159.3969 203.4261,159.0099 C203.5881,158.8499 207.4781,155.0869 214.3371,153.7619 C221.0631,152.4629 223.7721,153.3729 224.0571,153.4799 C224.5731,153.6749 224.8351,154.2519 224.6401,154.7689 C224.4451,155.2859 223.8701,155.5459 223.3521,155.3519 C223.3401,155.3479 220.8871,154.5349 214.7161,155.7249 C208.4801,156.9299 204.8621,160.4019 204.8271,160.4369 C204.6321,160.6269 204.3801,160.7219 204.1271,160.7219" id="Fill-26" fill="#FF9B8F"/><path d="M210.5724,166.1677 C210.3134,166.1677 210.0544,166.0677 209.8584,165.8677 C209.4724,165.4737 209.4774,164.8427 209.8714,164.4557 C210.0334,164.2957 213.9244,160.5327 220.7824,159.2077 C227.5104,157.9097 230.2174,158.8187 230.5034,158.9257 C231.0194,159.1207 231.2814,159.6977 231.0864,160.2147 C230.8924,160.7317 230.3144,160.9907 229.7984,160.7977 C229.7874,160.7937 227.3324,159.9797 221.1614,161.1707 C214.9254,162.3757 211.3074,165.8487 211.2724,165.8827 C211.0774,166.0727 210.8254,166.1677 210.5724,166.1677" id="Fill-27" fill="#FF9B8F"/><polygon id="Fill-28" fill="#F0DB00" points="247.985 194 233.456 194 222.567 188.841 222.709 194 210.835 194 201.599 188.553 202.139 194 190.48 194 182.125 188.553 182.375 194 166.962 194 156.548 188.553 156.548 194 141.442 194 141.442 185.001 247.985 185.001"/><path d="M204.2557,185.0005 C204.2557,185.0005 211.9357,169.3475 238.4787,168.7435 C238.4787,168.7435 244.8287,177.0715 245.5347,185.0005 L204.2557,185.0005 Z" id="Fill-29" fill="#643FE1"/></g></g></g></g><g id="Head" transform="translate(0.000000, 45.000000) scale(1 1)"><g id="Head/Cap" stroke="none" stroke-width="1" fill="none" fill-rule="evenodd"><g id="Group-22" transform="translate(68.000000, 16.000000)"><polygon id="Fill-1" fill="#b67831" points="25.8903 36.3121 25.8903 65.6881 46.7323 70.3181 39.9923 36.3121"/><g id="Group-21" transform="translate(0.000000, 0.317700)"><path d="M45.0536,61.4891 L44.1696,57.0591 L28.9146,43.5281 C28.9146,43.5281 31.3966,51.6641 36.5536,55.6691 C40.3526,58.6201 45.0536,61.4891 45.0536,61.4891" id="Fill-2" fill="#8f5830"/><path d="M44.9837,57.0751 L44.9837,57.0751 C35.3767,57.0751 28.0667,46.0191 28.0667,38.9021 L28.0667,21.4171 C28.0667,14.3001 34.2167,12.3141 41.9887,12.3141 C49.7607,12.3141 53.2447,13.7441 54.9987,16.4861 L55.2657,40.6841 C55.2657,49.7521 52.7557,57.0751 44.9837,57.0751" id="Fill-4" fill="#b67831"/><path d="M21.9943,38.3863 L21.4293,36.9273 C20.5423,34.6393 21.6773,32.0653 23.9653,31.1783 L23.9663,31.1783 C26.2543,30.2913 28.8283,31.4273 29.7153,33.7153 L30.2803,35.1743 C31.1673,37.4623 30.0313,40.0363 27.7433,40.9233 L27.7433,40.9233 C25.4553,41.8103 22.8813,40.6743 21.9943,38.3863" id="Fill-6" fill="#b67831"/><path d="M23.6625,37.1734 C23.4565,37.1734 23.2645,37.0464 23.1915,36.8404 C23.1685,36.7754 22.6295,35.2194 23.4465,34.0604 C23.9795,33.3054 24.9265,32.9224 26.2605,32.9224 C26.5365,32.9224 26.7605,33.1464 26.7605,33.4224 C26.7605,33.6984 26.5365,33.9224 26.2605,33.9224 C25.2695,33.9224 24.5995,34.1624 24.2645,34.6364 C23.7495,35.3654 24.1295,36.4944 24.1335,36.5064 C24.2255,36.7664 24.0905,37.0514 23.8305,37.1444 C23.7745,37.1644 23.7185,37.1734 23.6625,37.1734" id="Fill-8" fill="#8f5830"/><path d="M53.6933,11.3776 C53.6933,11.3776 51.4313,6.4106 48.0553,4.8056 C41.7643,1.8146 28.9153,1.3456 25.8863,8.5126 C25.5743,9.2516 20.9293,9.2676 19.1303,13.7796 C15.5113,22.8566 18.2143,26.9716 20.7693,30.7066 L19.5153,32.5396 C19.5153,32.5396 17.5643,40.8566 23.3513,43.5276 C25.5373,44.5366 23.0413,45.8086 23.0413,45.8086 C23.0413,45.8086 25.8193,46.7766 25.8543,45.5536 C25.8893,44.3316 25.8543,41.2116 25.8543,41.2116 C25.8543,41.2116 25.8363,41.2066 25.8073,41.1976 C24.1533,41.0726 22.6343,40.0366 21.9943,38.3866 L21.6653,37.5386 C21.6133,37.4206 21.5683,37.2906 21.5213,37.1656 L21.4293,36.9276 C20.5413,34.6396 21.6773,32.0656 23.9653,31.1786 C25.7963,30.4686 27.7953,31.0686 28.9813,32.5036 C28.9903,32.5066 29.0123,32.5146 29.0183,32.5176 C29.0963,32.6136 29.1633,32.7196 29.2343,32.8216 C29.2643,32.8656 29.2983,32.9066 29.3263,32.9516 C29.4753,33.1786 29.6113,33.4166 29.7133,33.6806 L29.8623,34.0656 C30.8663,33.3446 31.6613,32.3776 31.7113,31.0966 C31.8233,28.1926 25.7013,13.8466 47.2603,16.8336 C56.8463,18.1616 55.6613,17.5826 53.6933,11.3776" id="Fill-10" fill="#ff9c17"/><path d="M54.1018,12.3119 C51.5468,10.4939 43.2608,12.3139 43.2608,12.3139 C42.1738,12.0839 40.7758,8.7389 44.0188,7.2639 C46.1788,6.2799 49.3568,6.9169 51.2428,7.4519 C46.7688,2.0169 38.1578,-2.7861 24.8548,4.0689 C24.8548,4.0689 3.6668,15.8899 18.5398,33.8759 C18.5398,33.8759 37.8148,11.7959 54.9988,15.9689 C54.9988,15.9689 54.8868,14.4009 54.1018,12.3119" id="Fill-12" fill="#B9C8FF"/><path d="M21.5209,37.1651 C21.5679,37.2911 21.6129,37.4201 21.6659,37.5391 L21.9939,38.3861 C22.0879,38.6281 22.2049,38.8511 22.3339,39.0661 L21.3949,36.8051 C21.4099,36.8461 21.4129,36.8871 21.4289,36.9271 L21.5209,37.1651 Z" id="Fill-14" fill="#FFDEE3"/><g id="Group-18" transform="translate(0.000000, 32.000000)" fill="#643FE1"><path d="M19.4581,0.8858 C16.5401,4.1598 10.3051,7.7578 3.0781,11.5278 C-5.2939,15.8948 5.2361,16.1398 12.9731,14.7878 C17.4391,14.0068 21.7191,12.2468 23.3511,11.5278 C18.9181,9.4808 19.1651,3.2808 19.4581,0.8858" id="Fill-16"/></g><path d="M21.8647,8.9452 C21.8647,7.9592 21.9227,6.9862 22.0287,6.0282 C16.7137,10.1752 7.1567,20.1102 18.5397,33.8752 C18.5397,33.8752 21.9367,30.0042 27.6807,25.4572 C24.0377,20.8882 21.8647,15.1642 21.8647,8.9452" id="Fill-19" fill="#8069FF"/></g></g></g></g><g id="Expression" transform="translate(100.000000, 78.000000) scale(1 1)"><g id="Expression/Confident" stroke="none" stroke-width="1" fill="none" fill-rule="evenodd"><g id="Group-16" transform="translate(7.000000, 4.000000)"><g id="Group-3" transform="translate(0.000000, 0.824700)" fill="#ff9c17"><path d="M0.999,4.6169 C0.814,4.6169 0.628,4.5659 0.462,4.4589 C-0.002,4.1619 -0.14,3.5489 0.155,3.0839 C1.036,1.6959 3.62,-0.6371 7.085,0.4599 C7.611,0.6269 7.903,1.1879 7.736,1.7149 C7.57,2.2409 7.012,2.5339 6.481,2.3669 C3.623,1.4629 1.913,4.0479 1.842,4.1589 C1.65,4.4549 1.328,4.6169 0.999,4.6169" id="Fill-1"/></g><g id="Group-6" transform="translate(11.000000, 5.824700)" fill="#ff9c17"><path d="M3.0967,2.7717 C2.8667,2.7717 2.6357,2.6917 2.4507,2.5347 C2.3877,2.4967 2.0907,2.3357 1.2897,2.1267 C0.7557,1.9867 0.4357,1.4407 0.5757,0.9067 C0.7147,0.3717 1.2597,0.0527 1.7957,0.1907 C2.8427,0.4647 3.5267,0.7667 3.8267,1.0887 C4.2037,1.4927 4.1827,2.1257 3.7797,2.5027 C3.5867,2.6827 3.3417,2.7717 3.0967,2.7717" id="Fill-4"/></g><path d="M3.8047,17.5959 C2.9187,17.5959 2.0167,17.0789 1.1177,16.0559 C0.9367,15.8479 0.9567,15.5329 1.1637,15.3499 C1.3697,15.1689 1.6877,15.1879 1.8697,15.3959 C2.6317,16.2629 3.3357,16.6609 3.9617,16.5869 C4.8107,16.4819 5.3327,15.5069 5.3387,15.4969 C5.4647,15.2519 5.7687,15.1559 6.0117,15.2809 C6.2567,15.4069 6.3547,15.7089 6.2277,15.9539 C6.1977,16.0129 5.4667,17.4079 4.0837,17.5789 C3.9917,17.5909 3.8987,17.5959 3.8047,17.5959" id="Fill-7" fill="#8f5830"/><path d="M13.1738,18.1096 C12.3888,18.1096 11.8798,17.1636 11.5628,16.4406 C11.4518,16.1876 11.5668,15.8926 11.8198,15.7816 C12.0708,15.6736 12.3668,15.7856 12.4788,16.0386 C12.9148,17.0336 13.1848,17.1096 13.1868,17.1096 C13.3068,17.0596 13.5688,16.5566 13.6818,16.1146 C13.7508,15.8476 14.0268,15.6876 14.2898,15.7556 C14.5578,15.8236 14.7188,16.0966 14.6508,16.3636 C14.5498,16.7546 14.1528,18.0326 13.2548,18.1066 C13.2278,18.1086 13.1998,18.1096 13.1738,18.1096" id="Fill-9" fill="#8f5830"/><path d="M13.0933,25.8759 C13.0933,23.9799 11.6393,23.2349 9.8463,23.2349 C8.0523,23.2349 6.5983,23.9799 6.5983,25.8759" id="Fill-11" fill="#8f5830"/><g id="Group-15" transform="translate(6.000000, 25.824700)" fill="#8f5830"><path d="M0.5984,0.6701 C0.5984,3.0611 2.0524,4.0001 3.8454,4.0001 C5.6394,4.0001 7.0934,3.0611 7.0934,0.6701" id="Fill-13"/></g></g></g></g><g id="Beard" transform="translate(90.000000, 94.000000) scale(1 1)" fill="#000"><g id="Beard/None" stroke="none" stroke-width="1" fill="none" fill-rule="evenodd" fill-opacity="0"/></g><g id="Accesories" transform="translate(88.000000, 86.000000) scale(1 1)" fill="#000"><g id="Accesories/None" stroke="none" stroke-width="1" fill="none" fill-rule="evenodd" fill-opacity="0"/></g><g id="Upper Body" transform="translate(-30.000000, 64.000000) scale(1 1)"><g id="Upper Body/Playing the Guitar" stroke="none" stroke-width="1" fill="none" fill-rule="evenodd"><g id="Upper-Body" transform="translate(60.000000, 39.000000)"><path d="M152.142617,9.67632983 L138.083617,23.7353298 C137.862617,23.9563298 137.573617,24.0663298 137.283617,24.0663298 C136.993617,24.0663298 136.704617,23.9563298 136.482617,23.7353298 C136.040617,23.2923298 136.040617,22.5763298 136.482617,22.1343298 L150.541617,8.07532983 C150.983617,7.63332983 151.700617,7.63332983 152.142617,8.07532983 C152.584617,8.51732983 152.584617,9.23432983 152.142617,9.67632983 M133.013617,20.3173298 C132.724617,20.3173298 132.434617,20.2073298 132.213617,19.9863298 C131.771617,19.5433298 131.771617,18.8273298 132.213617,18.3853298 L146.271617,4.32632983 C146.714617,3.88432983 147.430617,3.88432983 147.872617,4.32632983 C148.315617,4.76832983 148.315617,5.48532983 147.872617,5.92732983 L133.814617,19.9863298 C133.593617,20.2073298 133.303617,20.3173298 133.013617,20.3173298 M155.847617,6.87632983 L150.938617,1.48532983 C149.069617,-0.565670167 145.815617,-0.480670167 144.056617,1.66632983 L140.556617,5.93832983 C139.438617,7.35232983 138.102617,8.58132983 136.596617,9.58032983 L131.259617,13.1223298 C129.613617,14.2143298 127.969617,15.8643298 127.825617,17.7193298 C127.681617,19.5733298 128.201617,20.9873298 128.201617,20.9873298 L77.1216166,71.2233298 C76.2556166,72.0753298 76.2636166,73.4743298 77.1396166,74.3153298 L84.3896166,81.2793298 C85.1926166,82.0513298 86.4716166,82.0183298 87.2336166,81.2053298 L136.473617,29.2153298 C136.473617,29.2153298 138.359617,29.0463298 140.353617,28.2533298 C142.347617,27.4603298 143.300617,25.9393298 144.182617,24.2933298 L146.690617,19.6093298 C147.537617,18.0283298 148.687617,16.6293298 150.075617,15.4923298 L155.546617,11.0093298 C156.812617,9.97232983 156.949617,8.08632983 155.847617,6.87632983" id="Fill-94" fill="#FFB4EC"/><path d="M152.142617,9.67632983 L138.083617,23.7353298 C137.862617,23.9563298 137.573617,24.0663298 137.283617,24.0663298 C136.993617,24.0663298 136.704617,23.9563298 136.482617,23.7353298 C136.040617,23.2923298 136.040617,22.5763298 136.482617,22.1343298 L150.541617,8.07532983 C150.983617,7.63332983 151.700617,7.63332983 152.142617,8.07532983 C152.584617,8.51732983 152.584617,9.23432983 152.142617,9.67632983 M133.013617,20.3173298 C132.724617,20.3173298 132.434617,20.2073298 132.213617,19.9863298 C131.771617,19.5433298 131.771617,18.8273298 132.213617,18.3853298 L146.271617,4.32632983 C146.714617,3.88432983 147.430617,3.88432983 147.872617,4.32632983 C148.315617,4.76832983 148.315617,5.48532983 147.872617,5.92732983 L133.814617,19.9863298 C133.593617,20.2073298 133.303617,20.3173298 133.013617,20.3173298 M155.847617,6.87632983 L150.938617,1.48532983 C149.069617,-0.565670167 145.815617,-0.480670167 144.056617,1.66632983 L140.556617,5.93832983 C139.438617,7.35232983 138.102617,8.58132983 136.596617,9.58032983 L131.259617,13.1223298 C129.613617,14.2143298 127.969617,15.8643298 127.825617,17.7193298 C127.681617,19.5733298 128.201617,20.9873298 128.201617,20.9873298 L77.1216166,71.2233298 C76.2556166,72.0753298 76.2636166,73.4743298 77.1396166,74.3153298 L84.3896166,81.2793298 C85.1926166,82.0513298 86.4716166,82.0183298 87.2336166,81.2053298 L136.473617,29.2153298 C136.473617,29.2153298 138.359617,29.0463298 140.353617,28.2533298 C142.347617,27.4603298 143.300617,25.9393298 144.182617,24.2933298 L146.690617,19.6093298 C147.537617,18.0283298 148.687617,16.6293298 150.075617,15.4923298 L155.546617,11.0093298 C156.812617,9.97232983 156.949617,8.08632983 155.847617,6.87632983" id="Fill-126" fill="#FFB4EC"/><path d="M152.142617,9.67632983 L138.083617,23.7353298 C137.862617,23.9563298 137.573617,24.0663298 137.283617,24.0663298 C136.993617,24.0663298 136.704617,23.9563298 136.482617,23.7353298 C136.040617,23.2923298 136.040617,22.5763298 136.482617,22.1343298 L150.541617,8.07532983 C150.983617,7.63332983 151.700617,7.63332983 152.142617,8.07532983 C152.584617,8.51732983 152.584617,9.23432983 152.142617,9.67632983 M133.013617,20.3173298 C132.724617,20.3173298 132.434617,20.2073298 132.213617,19.9863298 C131.771617,19.5433298 131.771617,18.8273298 132.213617,18.3853298 L146.271617,4.32632983 C146.714617,3.88432983 147.430617,3.88432983 147.872617,4.32632983 C148.315617,4.76832983 148.315617,5.48532983 147.872617,5.92732983 L133.814617,19.9863298 C133.593617,20.2073298 133.303617,20.3173298 133.013617,20.3173298 M155.847617,6.87632983 L150.938617,1.48532983 C149.069617,-0.565670167 145.815617,-0.480670167 144.056617,1.66632983 L140.556617,5.93832983 C139.438617,7.35232983 138.102617,8.58132983 136.596617,9.58032983 L131.259617,13.1223298 C129.613617,14.2143298 127.969617,15.8643298 127.825617,17.7193298 C127.681617,19.5733298 128.201617,20.9873298 128.201617,20.9873298 L77.1216166,71.2233298 C76.2556166,72.0753298 76.2636166,73.4743298 77.1396166,74.3153298 L84.3896166,81.2793298 C85.1926166,82.0513298 86.4716166,82.0183298 87.2336166,81.2053298 L136.473617,29.2153298 C136.473617,29.2153298 138.359617,29.0463298 140.353617,28.2533298 C142.347617,27.4603298 143.300617,25.9393298 144.182617,24.2933298 L146.690617,19.6093298 C147.537617,18.0283298 148.687617,16.6293298 150.075617,15.4923298 L155.546617,11.0093298 C156.812617,9.97232983 156.949617,8.08632983 155.847617,6.87632983" id="Fill-158" fill="#FFB4EC"/><path d="M152.142617,9.67632983 L138.083617,23.7353298 C137.862617,23.9563298 137.573617,24.0663298 137.283617,24.0663298 C136.993617,24.0663298 136.704617,23.9563298 136.482617,23.7353298 C136.040617,23.2923298 136.040617,22.5763298 136.482617,22.1343298 L150.541617,8.07532983 C150.983617,7.63332983 151.700617,7.63332983 152.142617,8.07532983 C152.584617,8.51732983 152.584617,9.23432983 152.142617,9.67632983 M133.013617,20.3173298 C132.724617,20.3173298 132.434617,20.2073298 132.213617,19.9863298 C131.771617,19.5433298 131.771617,18.8273298 132.213617,18.3853298 L146.271617,4.32632983 C146.714617,3.88432983 147.430617,3.88432983 147.872617,4.32632983 C148.315617,4.76832983 148.315617,5.48532983 147.872617,5.92732983 L133.814617,19.9863298 C133.593617,20.2073298 133.303617,20.3173298 133.013617,20.3173298 M155.847617,6.87632983 L150.938617,1.48532983 C149.069617,-0.565670167 145.815617,-0.480670167 144.056617,1.66632983 L140.556617,5.93832983 C139.438617,7.35232983 138.102617,8.58132983 136.596617,9.58032983 L131.259617,13.1223298 C129.613617,14.2143298 127.969617,15.8643298 127.825617,17.7193298 C127.681617,19.5733298 128.201617,20.9873298 128.201617,20.9873298 L77.1216166,71.2233298 C76.2556166,72.0753298 76.2636166,73.4743298 77.1396166,74.3153298 L84.3896166,81.2793298 C85.1926166,82.0513298 86.4716166,82.0183298 87.2336166,81.2053298 L136.473617,29.2153298 C136.473617,29.2153298 138.359617,29.0463298 140.353617,28.2533298 C142.347617,27.4603298 143.300617,25.9393298 144.182617,24.2933298 L146.690617,19.6093298 C147.537617,18.0283298 148.687617,16.6293298 150.075617,15.4923298 L155.546617,11.0093298 C156.812617,9.97232983 156.949617,8.08632983 155.847617,6.87632983" id="Fill-190" fill="#FFB4EC"/><path d="M152.142617,9.67632983 L138.083617,23.7353298 C137.862617,23.9563298 137.573617,24.0663298 137.283617,24.0663298 C136.993617,24.0663298 136.704617,23.9563298 136.482617,23.7353298 C136.040617,23.2923298 136.040617,22.5763298 136.482617,22.1343298 L150.541617,8.07532983 C150.983617,7.63332983 151.700617,7.63332983 152.142617,8.07532983 C152.584617,8.51732983 152.584617,9.23432983 152.142617,9.67632983 M133.013617,20.3173298 C132.724617,20.3173298 132.434617,20.2073298 132.213617,19.9863298 C131.771617,19.5433298 131.771617,18.8273298 132.213617,18.3853298 L146.271617,4.32632983 C146.714617,3.88432983 147.430617,3.88432983 147.872617,4.32632983 C148.315617,4.76832983 148.315617,5.48532983 147.872617,5.92732983 L133.814617,19.9863298 C133.593617,20.2073298 133.303617,20.3173298 133.013617,20.3173298 M155.847617,6.87632983 L150.938617,1.48532983 C149.069617,-0.565670167 145.815617,-0.480670167 144.056617,1.66632983 L140.556617,5.93832983 C139.438617,7.35232983 138.102617,8.58132983 136.596617,9.58032983 L131.259617,13.1223298 C129.613617,14.2143298 127.969617,15.8643298 127.825617,17.7193298 C127.681617,19.5733298 128.201617,20.9873298 128.201617,20.9873298 L77.1216166,71.2233298 C76.2556166,72.0753298 76.2636166,73.4743298 77.1396166,74.3153298 L84.3896166,81.2793298 C85.1926166,82.0513298 86.4716166,82.0183298 87.2336166,81.2053298 L136.473617,29.2153298 C136.473617,29.2153298 138.359617,29.0463298 140.353617,28.2533298 C142.347617,27.4603298 143.300617,25.9393298 144.182617,24.2933298 L146.690617,19.6093298 C147.537617,18.0283298 148.687617,16.6293298 150.075617,15.4923298 L155.546617,11.0093298 C156.812617,9.97232983 156.949617,8.08632983 155.847617,6.87632983" id="Fill-222" fill="#643FE1"/><path d="M86.9783166,28.7309298 L111.036317,45.0469298 C117.583317,48.7049298 121.414317,53.1179298 126.959317,50.6729298 L135.098317,44.9799298 C138.190317,42.8169298 142.122317,42.2439298 145.703317,43.4349298 L145.703317,43.4349298 C151.599317,45.3959298 150.964317,50.2669298 152.480317,58.0609298 C152.480317,58.0609298 154.481317,68.9759298 145.015317,83.2089298 C129.679317,106.27093 94.2703166,84.5739298 94.2703166,84.5739298 L86.9783166,28.7309298 Z" id="Fill-66" fill="#443389"/><path d="M141.798417,56.6529298 C141.798417,56.6529298 137.011417,54.5219298 136.934417,48.1919298 C136.857417,41.8619298 139.637417,41.2859298 142.543417,41.8049298 C145.448417,42.3239298 150.040417,40.5479298 151.696417,44.4559298 C152.149417,45.5239298 152.015417,54.8329298 150.040417,56.0779298 C148.064417,57.3229298 144.994417,57.9579298 141.798417,56.6529298" id="Fill-68" fill="#FFC1FF"/><path d="M56.0304166,109.265107 C54.2994166,109.24393 50.3934166,107.19193 49.7444166,103.46793 C47.8914166,92.8329298 55.3114166,59.9109298 34.1814166,41.4339298 C24.4084166,32.8879298 41.3484166,5.24192983 59.0604166,12.3689298 L87.6354166,29.0939298 C98.9294166,36.5049298 99.6244166,46.0109298 97.9754166,59.4189298 L98.1094166,83.3159298 C97.1864166,90.6119298 99.7904166,96.8379298 100.830417,104.24793 C101.252417,107.25593 100.079417,109.28693 98.3494166,109.265107 L56.0304166,109.265107 Z" id="Fill-70" fill="#443389"/><path d="M87.7639166,97.3243298 C90.3999166,95.9993298 92.8459166,94.1833298 94.9639166,91.8773298 C103.544917,82.5363298 103.625917,68.0273298 95.1189166,58.6493298 C85.3369166,47.8653298 68.5669166,47.7173298 58.5469166,57.9773298 C56.4609166,60.1133298 54.8389166,62.5253298 53.6799166,65.0893298 C51.7669166,69.3203298 47.7649166,72.3033298 43.0979166,72.5423298 C34.3789166,72.9883298 25.7999166,76.6153298 19.2829166,83.3973298 C5.74591661,97.4873298 6.59891661,120.56533 21.1149166,133.61033 C35.1789166,146.25033 56.9409166,145.61233 70.2679166,131.96633 C76.5699166,125.51333 79.8759166,117.28533 80.2189166,108.97033 C80.4229166,104.01933 83.3039166,99.5663298 87.7639166,97.3243298" id="Fill-72" fill="#FFB4EC"/><path d="M91.2747166,99.7743298 C93.9107166,98.4493298 96.3567166,96.6333298 98.4747166,94.3273298 C107.055717,84.9863298 107.136717,70.4773298 98.6297166,61.0993298 C88.8477166,50.3153298 72.0777166,50.1673298 62.0577166,60.4273298 C59.9717166,62.5633298 58.3497166,64.9753298 57.1907166,67.5393298 C55.2777166,71.7703298 51.2757166,74.7533298 46.6087166,74.9923298 C37.8897166,75.4383298 29.3107166,79.0653298 22.7937166,85.8473298 C9.25671661,99.9373298 10.1097166,123.01533 24.6257166,136.06033 C38.6897166,148.70033 60.4517166,148.06233 73.7787166,134.41633 C80.0807166,127.96333 83.3867166,119.73533 83.7297166,111.42033 C83.9337166,106.46933 86.8147166,102.01633 91.2747166,99.7743298" id="Fill-74" fill="#FFB4EC"/><path d="M67.4313166,74.6683298 C62.9293166,79.2773298 63.0413166,86.6273298 67.6813166,91.0833298 C72.3203166,95.5403298 79.7303166,95.4163298 84.2323166,90.8073298 C88.7333166,86.1983298 88.6223166,78.8493298 83.9823166,74.3923298 C79.3433166,69.9353298 71.9333166,70.0593298 67.4313166,74.6683298" id="Fill-76" fill="#FFB4EC"/><path d="M75.8534166,73.8513298 C73.4974166,73.8513298 71.1434166,74.7603298 69.3774166,76.5693298 C67.7084166,78.2773298 66.8104166,80.5253298 66.8484166,82.8973298 C66.8864166,85.2643298 67.8514166,87.4743298 69.5654166,89.1223298 C73.1244166,92.5413298 78.8314166,92.4443298 82.2854166,88.9073298 C83.9544166,87.1983298 84.8534166,84.9503298 84.8154166,82.5783298 C84.7774166,80.2113298 83.8124166,78.0003298 82.0974166,76.3533298 C80.3584166,74.6823298 78.1054166,73.8513298 75.8534166,73.8513298 M75.8084166,97.0593298 C72.1984166,97.0593298 68.5864166,95.7263298 65.7964166,93.0453298 C63.0284166,90.3853298 61.4694166,86.8123298 61.4084166,82.9843298 C61.3474166,79.1503298 62.7954166,75.5213298 65.4854166,72.7683298 C71.0184166,67.1003298 80.1604166,66.9493298 85.8664166,72.4303298 C88.6354166,75.0903298 90.1944166,78.6633298 90.2544166,82.4913298 C90.3154166,86.3253298 88.8684166,89.9543298 86.1784166,92.7083298 C83.3504166,95.6033298 79.5804166,97.0593298 75.8084166,97.0593298" id="Fill-78" fill="#FFB4EC"/><path d="M133.656417,12.3739298 L132.765417,13.0999298 C132.251417,13.5189298 131.495417,13.4419298 131.076417,12.9279298 L131.037417,12.8799298 C130.618417,12.3659298 130.695417,11.6099298 131.209417,11.1919298 L132.101417,10.4649298 C132.615417,10.0469298 133.371417,10.1239298 133.789417,10.6379298 L133.828417,10.6849298 C134.247417,11.1989298 134.170417,11.9549298 133.656417,12.3739298" id="Fill-82" fill="#FFB4EC"/><path d="M143.295517,4.47212983 L142.449517,5.25112983 C141.961517,5.70012983 141.202517,5.66812983 140.753517,5.18112983 L140.711517,5.13512983 C140.262517,4.64812983 140.294517,3.88812983 140.781517,3.44012983 L141.627517,2.66112983 C142.115517,2.21212983 142.874517,2.24312983 143.323517,2.73112983 L143.365517,2.77612983 C143.814517,3.26412983 143.783517,4.02312983 143.295517,4.47212983" id="Fill-84" fill="#FFB4EC"/><path d="M139.099217,8.67982983 L138.253217,9.45882983 C137.765217,9.90782983 137.006217,9.87582983 136.557217,9.38882983 L136.515217,9.34282983 C136.066217,8.85582983 136.098217,8.09582983 136.585217,7.64682983 L137.431217,6.86882983 C137.919217,6.41982983 138.678217,6.45082983 139.127217,6.93882983 L139.169217,6.98382983 C139.618217,7.47182983 139.587217,8.23082983 139.099217,8.67982983" id="Fill-86" fill="#FFB4EC"/><path d="M146.443517,23.5680298 L145.886517,24.5740298 C145.565517,25.1540298 144.834517,25.3630298 144.254517,25.0420298 L144.200517,25.0120298 C143.620517,24.6910298 143.411517,23.9610298 143.732517,23.3810298 L144.289517,22.3750298 C144.610517,21.7950298 145.341517,21.5850298 145.921517,21.9070298 L145.975517,21.9370298 C146.555517,22.2580298 146.764517,22.9880298 146.443517,23.5680298" id="Fill-88" fill="#FFB4EC"/><path d="M154.185617,14.0934298 L153.339617,14.8724298 C152.851617,15.3214298 152.092617,15.2894298 151.643617,14.8024298 L151.601617,14.7564298 C151.152617,14.2694298 151.184617,13.5094298 151.671617,13.0604298 L152.517617,12.2824298 C153.005617,11.8334298 153.764617,11.8644298 154.213617,12.3524298 L154.255617,12.3974298 C154.704617,12.8854298 154.673617,13.6444298 154.185617,14.0934298" id="Fill-90" fill="#FFB4EC"/><path d="M149.989317,18.3011298 L149.143317,19.0801298 C148.655317,19.5291298 147.896317,19.4971298 147.447317,19.0101298 L147.405317,18.9641298 C146.956317,18.4771298 146.988317,17.7171298 147.475317,17.2681298 L148.321317,16.4901298 C148.809317,16.0411298 149.568317,16.0721298 150.017317,16.5601298 L150.059317,16.6051298 C150.508317,17.0931298 150.477317,17.8521298 149.989317,18.3011298" id="Fill-92" fill="#FFB4EC"/><polygon id="Fill-96" fill="#FFB4EC" points="49.4901166 117.51783 49.9211166 118.15583 135.172117 28.1878298 134.614117 27.6078298"/><polygon id="Fill-98" fill="#FFB4EC" points="44.0838166 112.49973 43.5238166 111.94973 130.974817 24.3387298 131.534817 24.8877298"/><polygon id="Fill-100" fill="#FFB4EC" points="41.3473166 109.86413 40.7923166 109.30913 129.034317 22.4821298 129.589317 23.0361298"/><polygon id="Fill-102" fill="#FFB4EC" points="47.9084166 114.95513 47.3424166 114.41213 132.919417 25.8601298 133.485417 26.4041298"/><path d="M87.7639166,97.3243298 C90.3999166,95.9993298 92.8459166,94.1833298 94.9639166,91.8773298 C103.544917,82.5363298 103.625917,68.0273298 95.1189166,58.6493298 C85.3369166,47.8653298 68.5669166,47.7173298 58.5469166,57.9773298 C56.4609166,60.1133298 54.8389166,62.5253298 53.6799166,65.0893298 C51.7669166,69.3203298 47.7649166,72.3033298 43.0979166,72.5423298 C34.3789166,72.9883298 25.7999166,76.6153298 19.2829166,83.3973298 C5.74591661,97.4873298 6.59891661,120.56533 21.1149166,133.61033 C35.1789166,146.25033 56.9409166,145.61233 70.2679166,131.96633 C76.5699166,125.51333 79.8759166,117.28533 80.2189166,108.97033 C80.4229166,104.01933 83.3039166,99.5663298 87.7639166,97.3243298" id="Fill-104" fill="#FFB4EC"/><path d="M91.2747166,99.7743298 C93.9107166,98.4493298 96.3567166,96.6333298 98.4747166,94.3273298 C107.055717,84.9863298 107.136717,70.4773298 98.6297166,61.0993298 C88.8477166,50.3153298 72.0777166,50.1673298 62.0577166,60.4273298 C59.9717166,62.5633298 58.3497166,64.9753298 57.1907166,67.5393298 C55.2777166,71.7703298 51.2757166,74.7533298 46.6087166,74.9923298 C37.8897166,75.4383298 29.3107166,79.0653298 22.7937166,85.8473298 C9.25671661,99.9373298 10.1097166,123.01533 24.6257166,136.06033 C38.6897166,148.70033 60.4517166,148.06233 73.7787166,134.41633 C80.0807166,127.96333 83.3867166,119.73533 83.7297166,111.42033 C83.9337166,106.46933 86.8147166,102.01633 91.2747166,99.7743298" id="Fill-106" fill="#FFB4EC"/><path d="M67.4313166,74.6683298 C62.9293166,79.2773298 63.0413166,86.6273298 67.6813166,91.0833298 C72.3203166,95.5403298 79.7303166,95.4163298 84.2323166,90.8073298 C88.7333166,86.1983298 88.6223166,78.8493298 83.9823166,74.3923298 C79.3433166,69.9353298 71.9333166,70.0593298 67.4313166,74.6683298" id="Fill-108" fill="#FFB4EC"/><path d="M75.8534166,73.8513298 C73.4974166,73.8513298 71.1434166,74.7603298 69.3774166,76.5693298 C67.7084166,78.2773298 66.8104166,80.5253298 66.8484166,82.8973298 C66.8864166,85.2643298 67.8514166,87.4743298 69.5654166,89.1223298 C73.1244166,92.5413298 78.8314166,92.4443298 82.2854166,88.9073298 C83.9544166,87.1983298 84.8534166,84.9503298 84.8154166,82.5783298 C84.7774166,80.2113298 83.8124166,78.0003298 82.0974166,76.3533298 C80.3584166,74.6823298 78.1054166,73.8513298 75.8534166,73.8513298 M75.8084166,97.0593298 C72.1984166,97.0593298 68.5864166,95.7263298 65.7964166,93.0453298 C63.0284166,90.3853298 61.4694166,86.8123298 61.4084166,82.9843298 C61.3474166,79.1503298 62.7954166,75.5213298 65.4854166,72.7683298 C71.0184166,67.1003298 80.1604166,66.9493298 85.8664166,72.4303298 C88.6354166,75.0903298 90.1944166,78.6633298 90.2544166,82.4913298 C90.3154166,86.3253298 88.8684166,89.9543298 86.1784166,92.7083298 C83.3504166,95.6033298 79.5804166,97.0593298 75.8084166,97.0593298" id="Fill-110" fill="#FFB4EC"/><path d="M133.656417,12.3739298 L132.765417,13.0999298 C132.251417,13.5189298 131.495417,13.4419298 131.076417,12.9279298 L131.037417,12.8799298 C130.618417,12.3659298 130.695417,11.6099298 131.209417,11.1919298 L132.101417,10.4649298 C132.615417,10.0469298 133.371417,10.1239298 133.789417,10.6379298 L133.828417,10.6849298 C134.247417,11.1989298 134.170417,11.9549298 133.656417,12.3739298" id="Fill-114" fill="#FFB4EC"/><path d="M143.295517,4.47212983 L142.449517,5.25112983 C141.961517,5.70012983 141.202517,5.66812983 140.753517,5.18112983 L140.711517,5.13512983 C140.262517,4.64812983 140.294517,3.88812983 140.781517,3.44012983 L141.627517,2.66112983 C142.115517,2.21212983 142.874517,2.24312983 143.323517,2.73112983 L143.365517,2.77612983 C143.814517,3.26412983 143.783517,4.02312983 143.295517,4.47212983" id="Fill-116" fill="#FFB4EC"/><path d="M139.099217,8.67982983 L138.253217,9.45882983 C137.765217,9.90782983 137.006217,9.87582983 136.557217,9.38882983 L136.515217,9.34282983 C136.066217,8.85582983 136.098217,8.09582983 136.585217,7.64682983 L137.431217,6.86882983 C137.919217,6.41982983 138.678217,6.45082983 139.127217,6.93882983 L139.169217,6.98382983 C139.618217,7.47182983 139.587217,8.23082983 139.099217,8.67982983" id="Fill-118" fill="#FFB4EC"/><path d="M146.443517,23.5680298 L145.886517,24.5740298 C145.565517,25.1540298 144.834517,25.3630298 144.254517,25.0420298 L144.200517,25.0120298 C143.620517,24.6910298 143.411517,23.9610298 143.732517,23.3810298 L144.289517,22.3750298 C144.610517,21.7950298 145.341517,21.5850298 145.921517,21.9070298 L145.975517,21.9370298 C146.555517,22.2580298 146.764517,22.9880298 146.443517,23.5680298" id="Fill-120" fill="#FFB4EC"/><path d="M154.185617,14.0934298 L153.339617,14.8724298 C152.851617,15.3214298 152.092617,15.2894298 151.643617,14.8024298 L151.601617,14.7564298 C151.152617,14.2694298 151.184617,13.5094298 151.671617,13.0604298 L152.517617,12.2824298 C153.005617,11.8334298 153.764617,11.8644298 154.213617,12.3524298 L154.255617,12.3974298 C154.704617,12.8854298 154.673617,13.6444298 154.185617,14.0934298" id="Fill-122" fill="#FFB4EC"/><path d="M149.989317,18.3011298 L149.143317,19.0801298 C148.655317,19.5291298 147.896317,19.4971298 147.447317,19.0101298 L147.405317,18.9641298 C146.956317,18.4771298 146.988317,17.7171298 147.475317,17.2681298 L148.321317,16.4901298 C148.809317,16.0411298 149.568317,16.0721298 150.017317,16.5601298 L150.059317,16.6051298 C150.508317,17.0931298 150.477317,17.8521298 149.989317,18.3011298" id="Fill-124" fill="#FFB4EC"/><polygon id="Fill-128" fill="#FFB4EC" points="49.4901166 117.51783 49.9211166 118.15583 135.172117 28.1878298 134.614117 27.6078298"/><polygon id="Fill-130" fill="#FFB4EC" points="44.0838166 112.49973 43.5238166 111.94973 130.974817 24.3387298 131.534817 24.8877298"/><polygon id="Fill-132" fill="#FFB4EC" points="41.3473166 109.86413 40.7923166 109.30913 129.034317 22.4821298 129.589317 23.0361298"/><polygon id="Fill-134" fill="#FFB4EC" points="47.9084166 114.95513 47.3424166 114.41213 132.919417 25.8601298 133.485417 26.4041298"/><path d="M87.7639166,97.3243298 C90.3999166,95.9993298 92.8459166,94.1833298 94.9639166,91.8773298 C103.544917,82.5363298 103.625917,68.0273298 95.1189166,58.6493298 C85.3369166,47.8653298 68.5669166,47.7173298 58.5469166,57.9773298 C56.4609166,60.1133298 54.8389166,62.5253298 53.6799166,65.0893298 C51.7669166,69.3203298 47.7649166,72.3033298 43.0979166,72.5423298 C34.3789166,72.9883298 25.7999166,76.6153298 19.2829166,83.3973298 C5.74591661,97.4873298 6.59891661,120.56533 21.1149166,133.61033 C35.1789166,146.25033 56.9409166,145.61233 70.2679166,131.96633 C76.5699166,125.51333 79.8759166,117.28533 80.2189166,108.97033 C80.4229166,104.01933 83.3039166,99.5663298 87.7639166,97.3243298" id="Fill-136" fill="#FFB4EC"/><path d="M91.2747166,99.7743298 C93.9107166,98.4493298 96.3567166,96.6333298 98.4747166,94.3273298 C107.055717,84.9863298 107.136717,70.4773298 98.6297166,61.0993298 C88.8477166,50.3153298 72.0777166,50.1673298 62.0577166,60.4273298 C59.9717166,62.5633298 58.3497166,64.9753298 57.1907166,67.5393298 C55.2777166,71.7703298 51.2757166,74.7533298 46.6087166,74.9923298 C37.8897166,75.4383298 29.3107166,79.0653298 22.7937166,85.8473298 C9.25671661,99.9373298 10.1097166,123.01533 24.6257166,136.06033 C38.6897166,148.70033 60.4517166,148.06233 73.7787166,134.41633 C80.0807166,127.96333 83.3867166,119.73533 83.7297166,111.42033 C83.9337166,106.46933 86.8147166,102.01633 91.2747166,99.7743298" id="Fill-138" fill="#FFB4EC"/><path d="M67.4313166,74.6683298 C62.9293166,79.2773298 63.0413166,86.6273298 67.6813166,91.0833298 C72.3203166,95.5403298 79.7303166,95.4163298 84.2323166,90.8073298 C88.7333166,86.1983298 88.6223166,78.8493298 83.9823166,74.3923298 C79.3433166,69.9353298 71.9333166,70.0593298 67.4313166,74.6683298" id="Fill-140" fill="#FFB4EC"/><path d="M75.8534166,73.8513298 C73.4974166,73.8513298 71.1434166,74.7603298 69.3774166,76.5693298 C67.7084166,78.2773298 66.8104166,80.5253298 66.8484166,82.8973298 C66.8864166,85.2643298 67.8514166,87.4743298 69.5654166,89.1223298 C73.1244166,92.5413298 78.8314166,92.4443298 82.2854166,88.9073298 C83.9544166,87.1983298 84.8534166,84.9503298 84.8154166,82.5783298 C84.7774166,80.2113298 83.8124166,78.0003298 82.0974166,76.3533298 C80.3584166,74.6823298 78.1054166,73.8513298 75.8534166,73.8513298 M75.8084166,97.0593298 C72.1984166,97.0593298 68.5864166,95.7263298 65.7964166,93.0453298 C63.0284166,90.3853298 61.4694166,86.8123298 61.4084166,82.9843298 C61.3474166,79.1503298 62.7954166,75.5213298 65.4854166,72.7683298 C71.0184166,67.1003298 80.1604166,66.9493298 85.8664166,72.4303298 C88.6354166,75.0903298 90.1944166,78.6633298 90.2544166,82.4913298 C90.3154166,86.3253298 88.8684166,89.9543298 86.1784166,92.7083298 C83.3504166,95.6033298 79.5804166,97.0593298 75.8084166,97.0593298" id="Fill-142" fill="#FFB4EC"/><path d="M133.656417,12.3739298 L132.765417,13.0999298 C132.251417,13.5189298 131.495417,13.4419298 131.076417,12.9279298 L131.037417,12.8799298 C130.618417,12.3659298 130.695417,11.6099298 131.209417,11.1919298 L132.101417,10.4649298 C132.615417,10.0469298 133.371417,10.1239298 133.789417,10.6379298 L133.828417,10.6849298 C134.247417,11.1989298 134.170417,11.9549298 133.656417,12.3739298" id="Fill-146" fill="#FFB4EC"/><path d="M143.295517,4.47212983 L142.449517,5.25112983 C141.961517,5.70012983 141.202517,5.66812983 140.753517,5.18112983 L140.711517,5.13512983 C140.262517,4.64812983 140.294517,3.88812983 140.781517,3.44012983 L141.627517,2.66112983 C142.115517,2.21212983 142.874517,2.24312983 143.323517,2.73112983 L143.365517,2.77612983 C143.814517,3.26412983 143.783517,4.02312983 143.295517,4.47212983" id="Fill-148" fill="#FFB4EC"/><path d="M139.099217,8.67982983 L138.253217,9.45882983 C137.765217,9.90782983 137.006217,9.87582983 136.557217,9.38882983 L136.515217,9.34282983 C136.066217,8.85582983 136.098217,8.09582983 136.585217,7.64682983 L137.431217,6.86882983 C137.919217,6.41982983 138.678217,6.45082983 139.127217,6.93882983 L139.169217,6.98382983 C139.618217,7.47182983 139.587217,8.23082983 139.099217,8.67982983" id="Fill-150" fill="#FFB4EC"/><path d="M146.443517,23.5680298 L145.886517,24.5740298 C145.565517,25.1540298 144.834517,25.3630298 144.254517,25.0420298 L144.200517,25.0120298 C143.620517,24.6910298 143.411517,23.9610298 143.732517,23.3810298 L144.289517,22.3750298 C144.610517,21.7950298 145.341517,21.5850298 145.921517,21.9070298 L145.975517,21.9370298 C146.555517,22.2580298 146.764517,22.9880298 146.443517,23.5680298" id="Fill-152" fill="#FFB4EC"/><path d="M154.185617,14.0934298 L153.339617,14.8724298 C152.851617,15.3214298 152.092617,15.2894298 151.643617,14.8024298 L151.601617,14.7564298 C151.152617,14.2694298 151.184617,13.5094298 151.671617,13.0604298 L152.517617,12.2824298 C153.005617,11.8334298 153.764617,11.8644298 154.213617,12.3524298 L154.255617,12.3974298 C154.704617,12.8854298 154.673617,13.6444298 154.185617,14.0934298" id="Fill-154" fill="#FFB4EC"/><path d="M149.989317,18.3011298 L149.143317,19.0801298 C148.655317,19.5291298 147.896317,19.4971298 147.447317,19.0101298 L147.405317,18.9641298 C146.956317,18.4771298 146.988317,17.7171298 147.475317,17.2681298 L148.321317,16.4901298 C148.809317,16.0411298 149.568317,16.0721298 150.017317,16.5601298 L150.059317,16.6051298 C150.508317,17.0931298 150.477317,17.8521298 149.989317,18.3011298" id="Fill-156" fill="#FFB4EC"/><polygon id="Fill-160" fill="#FFB4EC" points="49.4901166 117.51783 49.9211166 118.15583 135.172117 28.1878298 134.614117 27.6078298"/><polygon id="Fill-162" fill="#FFB4EC" points="44.0838166 112.49973 43.5238166 111.94973 130.974817 24.3387298 131.534817 24.8877298"/><polygon id="Fill-164" fill="#FFB4EC" points="41.3473166 109.86413 40.7923166 109.30913 129.034317 22.4821298 129.589317 23.0361298"/><polygon id="Fill-166" fill="#FFB4EC" points="47.9084166 114.95513 47.3424166 114.41213 132.919417 25.8601298 133.485417 26.4041298"/><path d="M87.7639166,97.3243298 C90.3999166,95.9993298 92.8459166,94.1833298 94.9639166,91.8773298 C103.544917,82.5363298 103.625917,68.0273298 95.1189166,58.6493298 C85.3369166,47.8653298 68.5669166,47.7173298 58.5469166,57.9773298 C56.4609166,60.1133298 54.8389166,62.5253298 53.6799166,65.0893298 C51.7669166,69.3203298 47.7649166,72.3033298 43.0979166,72.5423298 C34.3789166,72.9883298 25.7999166,76.6153298 19.2829166,83.3973298 C5.74591661,97.4873298 6.59891661,120.56533 21.1149166,133.61033 C35.1789166,146.25033 56.9409166,145.61233 70.2679166,131.96633 C76.5699166,125.51333 79.8759166,117.28533 80.2189166,108.97033 C80.4229166,104.01933 83.3039166,99.5663298 87.7639166,97.3243298" id="Fill-168" fill="#FFB4EC"/><path d="M91.2747166,99.7743298 C93.9107166,98.4493298 96.3567166,96.6333298 98.4747166,94.3273298 C107.055717,84.9863298 107.136717,70.4773298 98.6297166,61.0993298 C88.8477166,50.3153298 72.0777166,50.1673298 62.0577166,60.4273298 C59.9717166,62.5633298 58.3497166,64.9753298 57.1907166,67.5393298 C55.2777166,71.7703298 51.2757166,74.7533298 46.6087166,74.9923298 C37.8897166,75.4383298 29.3107166,79.0653298 22.7937166,85.8473298 C9.25671661,99.9373298 10.1097166,123.01533 24.6257166,136.06033 C38.6897166,148.70033 60.4517166,148.06233 73.7787166,134.41633 C80.0807166,127.96333 83.3867166,119.73533 83.7297166,111.42033 C83.9337166,106.46933 86.8147166,102.01633 91.2747166,99.7743298" id="Fill-170" fill="#FFB4EC"/><path d="M67.4313166,74.6683298 C62.9293166,79.2773298 63.0413166,86.6273298 67.6813166,91.0833298 C72.3203166,95.5403298 79.7303166,95.4163298 84.2323166,90.8073298 C88.7333166,86.1983298 88.6223166,78.8493298 83.9823166,74.3923298 C79.3433166,69.9353298 71.9333166,70.0593298 67.4313166,74.6683298" id="Fill-172" fill="#FFB4EC"/><path d="M75.8534166,73.8513298 C73.4974166,73.8513298 71.1434166,74.7603298 69.3774166,76.5693298 C67.7084166,78.2773298 66.8104166,80.5253298 66.8484166,82.8973298 C66.8864166,85.2643298 67.8514166,87.4743298 69.5654166,89.1223298 C73.1244166,92.5413298 78.8314166,92.4443298 82.2854166,88.9073298 C83.9544166,87.1983298 84.8534166,84.9503298 84.8154166,82.5783298 C84.7774166,80.2113298 83.8124166,78.0003298 82.0974166,76.3533298 C80.3584166,74.6823298 78.1054166,73.8513298 75.8534166,73.8513298 M75.8084166,97.0593298 C72.1984166,97.0593298 68.5864166,95.7263298 65.7964166,93.0453298 C63.0284166,90.3853298 61.4694166,86.8123298 61.4084166,82.9843298 C61.3474166,79.1503298 62.7954166,75.5213298 65.4854166,72.7683298 C71.0184166,67.1003298 80.1604166,66.9493298 85.8664166,72.4303298 C88.6354166,75.0903298 90.1944166,78.6633298 90.2544166,82.4913298 C90.3154166,86.3253298 88.8684166,89.9543298 86.1784166,92.7083298 C83.3504166,95.6033298 79.5804166,97.0593298 75.8084166,97.0593298" id="Fill-174" fill="#FFB4EC"/><path d="M133.656417,12.3739298 L132.765417,13.0999298 C132.251417,13.5189298 131.495417,13.4419298 131.076417,12.9279298 L131.037417,12.8799298 C130.618417,12.3659298 130.695417,11.6099298 131.209417,11.1919298 L132.101417,10.4649298 C132.615417,10.0469298 133.371417,10.1239298 133.789417,10.6379298 L133.828417,10.6849298 C134.247417,11.1989298 134.170417,11.9549298 133.656417,12.3739298" id="Fill-178" fill="#FFB4EC"/><path d="M143.295517,4.47212983 L142.449517,5.25112983 C141.961517,5.70012983 141.202517,5.66812983 140.753517,5.18112983 L140.711517,5.13512983 C140.262517,4.64812983 140.294517,3.88812983 140.781517,3.44012983 L141.627517,2.66112983 C142.115517,2.21212983 142.874517,2.24312983 143.323517,2.73112983 L143.365517,2.77612983 C143.814517,3.26412983 143.783517,4.02312983 143.295517,4.47212983" id="Fill-180" fill="#FFB4EC"/><path d="M139.099217,8.67982983 L138.253217,9.45882983 C137.765217,9.90782983 137.006217,9.87582983 136.557217,9.38882983 L136.515217,9.34282983 C136.066217,8.85582983 136.098217,8.09582983 136.585217,7.64682983 L137.431217,6.86882983 C137.919217,6.41982983 138.678217,6.45082983 139.127217,6.93882983 L139.169217,6.98382983 C139.618217,7.47182983 139.587217,8.23082983 139.099217,8.67982983" id="Fill-182" fill="#FFB4EC"/><path d="M146.443517,23.5680298 L145.886517,24.5740298 C145.565517,25.1540298 144.834517,25.3630298 144.254517,25.0420298 L144.200517,25.0120298 C143.620517,24.6910298 143.411517,23.9610298 143.732517,23.3810298 L144.289517,22.3750298 C144.610517,21.7950298 145.341517,21.5850298 145.921517,21.9070298 L145.975517,21.9370298 C146.555517,22.2580298 146.764517,22.9880298 146.443517,23.5680298" id="Fill-184" fill="#FFB4EC"/><path d="M154.185617,14.0934298 L153.339617,14.8724298 C152.851617,15.3214298 152.092617,15.2894298 151.643617,14.8024298 L151.601617,14.7564298 C151.152617,14.2694298 151.184617,13.5094298 151.671617,13.0604298 L152.517617,12.2824298 C153.005617,11.8334298 153.764617,11.8644298 154.213617,12.3524298 L154.255617,12.3974298 C154.704617,12.8854298 154.673617,13.6444298 154.185617,14.0934298" id="Fill-186" fill="#FFB4EC"/><path d="M149.989317,18.3011298 L149.143317,19.0801298 C148.655317,19.5291298 147.896317,19.4971298 147.447317,19.0101298 L147.405317,18.9641298 C146.956317,18.4771298 146.988317,17.7171298 147.475317,17.2681298 L148.321317,16.4901298 C148.809317,16.0411298 149.568317,16.0721298 150.017317,16.5601298 L150.059317,16.6051298 C150.508317,17.0931298 150.477317,17.8521298 149.989317,18.3011298" id="Fill-188" fill="#FFB4EC"/><polygon id="Fill-192" fill="#FFB4EC" points="49.4901166 117.51783 49.9211166 118.15583 135.172117 28.1878298 134.614117 27.6078298"/><polygon id="Fill-194" fill="#FFB4EC" points="44.0838166 112.49973 43.5238166 111.94973 130.974817 24.3387298 131.534817 24.8877298"/><polygon id="Fill-196" fill="#FFB4EC" points="41.3473166 109.86413 40.7923166 109.30913 129.034317 22.4821298 129.589317 23.0361298"/><polygon id="Fill-198" fill="#FFB4EC" points="47.9084166 114.95513 47.3424166 114.41213 132.919417 25.8601298 133.485417 26.4041298"/><path d="M87.7639166,97.3243298 C90.3999166,95.9993298 92.8459166,94.1833298 94.9639166,91.8773298 C103.544917,82.5363298 103.625917,68.0273298 95.1189166,58.6493298 C85.3369166,47.8653298 68.5669166,47.7173298 58.5469166,57.9773298 C56.4609166,60.1133298 54.8389166,62.5253298 53.6799166,65.0893298 C51.7669166,69.3203298 47.7649166,72.3033298 43.0979166,72.5423298 C34.3789166,72.9883298 25.7999166,76.6153298 19.2829166,83.3973298 C5.74591661,97.4873298 6.59891661,120.56533 21.1149166,133.61033 C35.1789166,146.25033 56.9409166,145.61233 70.2679166,131.96633 C76.5699166,125.51333 79.8759166,117.28533 80.2189166,108.97033 C80.4229166,104.01933 83.3039166,99.5663298 87.7639166,97.3243298" id="Fill-200" fill="#E1C321"/><path d="M91.2747166,99.7743298 C93.9107166,98.4493298 96.3567166,96.6333298 98.4747166,94.3273298 C107.055717,84.9863298 107.136717,70.4773298 98.6297166,61.0993298 C88.8477166,50.3153298 72.0777166,50.1673298 62.0577166,60.4273298 C59.9717166,62.5633298 58.3497166,64.9753298 57.1907166,67.5393298 C55.2777166,71.7703298 51.2757166,74.7533298 46.6087166,74.9923298 C37.8897166,75.4383298 29.3107166,79.0653298 22.7937166,85.8473298 C9.25671661,99.9373298 10.1097166,123.01533 24.6257166,136.06033 C38.6897166,148.70033 60.4517166,148.06233 73.7787166,134.41633 C80.0807166,127.96333 83.3867166,119.73533 83.7297166,111.42033 C83.9337166,106.46933 86.8147166,102.01633 91.2747166,99.7743298" id="Fill-202" fill="#F0DB00"/><path d="M67.4313166,74.6683298 C62.9293166,79.2773298 63.0413166,86.6273298 67.6813166,91.0833298 C72.3203166,95.5403298 79.7303166,95.4163298 84.2323166,90.8073298 C88.7333166,86.1983298 88.6223166,78.8493298 83.9823166,74.3923298 C79.3433166,69.9353298 71.9333166,70.0593298 67.4313166,74.6683298" id="Fill-204" fill="#3F1A81"/><path d="M75.8534166,73.8513298 C73.4974166,73.8513298 71.1434166,74.7603298 69.3774166,76.5693298 C67.7084166,78.2773298 66.8104166,80.5253298 66.8484166,82.8973298 C66.8864166,85.2643298 67.8514166,87.4743298 69.5654166,89.1223298 C73.1244166,92.5413298 78.8314166,92.4443298 82.2854166,88.9073298 C83.9544166,87.1983298 84.8534166,84.9503298 84.8154166,82.5783298 C84.7774166,80.2113298 83.8124166,78.0003298 82.0974166,76.3533298 C80.3584166,74.6823298 78.1054166,73.8513298 75.8534166,73.8513298 M75.8084166,97.0593298 C72.1984166,97.0593298 68.5864166,95.7263298 65.7964166,93.0453298 C63.0284166,90.3853298 61.4694166,86.8123298 61.4084166,82.9843298 C61.3474166,79.1503298 62.7954166,75.5213298 65.4854166,72.7683298 C71.0184166,67.1003298 80.1604166,66.9493298 85.8664166,72.4303298 C88.6354166,75.0903298 90.1944166,78.6633298 90.2544166,82.4913298 C90.3154166,86.3253298 88.8684166,89.9543298 86.1784166,92.7083298 C83.3504166,95.6033298 79.5804166,97.0593298 75.8084166,97.0593298" id="Fill-206" fill="#FF8187"/><polygon id="Fill-208" fill="#1D1D1B" points="50.9911166 121.83733 37.1911166 108.58033 40.1391166 105.56233 53.9391166 118.81833"/><path d="M133.656417,12.3739298 L132.765417,13.0999298 C132.251417,13.5189298 131.495417,13.4419298 131.076417,12.9279298 L131.037417,12.8799298 C130.618417,12.3659298 130.695417,11.6099298 131.209417,11.1919298 L132.101417,10.4649298 C132.615417,10.0469298 133.371417,10.1239298 133.789417,10.6379298 L133.828417,10.6849298 C134.247417,11.1989298 134.170417,11.9549298 133.656417,12.3739298" id="Fill-210" fill="#FFB4EC"/><path d="M143.295517,4.47212983 L142.449517,5.25112983 C141.961517,5.70012983 141.202517,5.66812983 140.753517,5.18112983 L140.711517,5.13512983 C140.262517,4.64812983 140.294517,3.88812983 140.781517,3.44012983 L141.627517,2.66112983 C142.115517,2.21212983 142.874517,2.24312983 143.323517,2.73112983 L143.365517,2.77612983 C143.814517,3.26412983 143.783517,4.02312983 143.295517,4.47212983" id="Fill-212" fill="#FFB4EC"/><path d="M139.099217,8.67982983 L138.253217,9.45882983 C137.765217,9.90782983 137.006217,9.87582983 136.557217,9.38882983 L136.515217,9.34282983 C136.066217,8.85582983 136.098217,8.09582983 136.585217,7.64682983 L137.431217,6.86882983 C137.919217,6.41982983 138.678217,6.45082983 139.127217,6.93882983 L139.169217,6.98382983 C139.618217,7.47182983 139.587217,8.23082983 139.099217,8.67982983" id="Fill-214" fill="#FFB4EC"/><path d="M146.443517,23.5680298 L145.886517,24.5740298 C145.565517,25.1540298 144.834517,25.3630298 144.254517,25.0420298 L144.200517,25.0120298 C143.620517,24.6910298 143.411517,23.9610298 143.732517,23.3810298 L144.289517,22.3750298 C144.610517,21.7950298 145.341517,21.5850298 145.921517,21.9070298 L145.975517,21.9370298 C146.555517,22.2580298 146.764517,22.9880298 146.443517,23.5680298" id="Fill-216" fill="#FFB4EC"/><path d="M154.185617,14.0934298 L153.339617,14.8724298 C152.851617,15.3214298 152.092617,15.2894298 151.643617,14.8024298 L151.601617,14.7564298 C151.152617,14.2694298 151.184617,13.5094298 151.671617,13.0604298 L152.517617,12.2824298 C153.005617,11.8334298 153.764617,11.8644298 154.213617,12.3524298 L154.255617,12.3974298 C154.704617,12.8854298 154.673617,13.6444298 154.185617,14.0934298" id="Fill-218" fill="#FFB4EC"/><path d="M149.989317,18.3011298 L149.143317,19.0801298 C148.655317,19.5291298 147.896317,19.4971298 147.447317,19.0101298 L147.405317,18.9641298 C146.956317,18.4771298 146.988317,17.7171298 147.475317,17.2681298 L148.321317,16.4901298 C148.809317,16.0411298 149.568317,16.0721298 150.017317,16.5601298 L150.059317,16.6051298 C150.508317,17.0931298 150.477317,17.8521298 149.989317,18.3011298" id="Fill-220" fill="#FFB4EC"/><polygon id="Fill-224" fill="#FFF" points="49.4901166 117.51783 49.9211166 118.15583 135.172117 28.1878298 134.614117 27.6078298"/><polygon id="Fill-226" fill="#FFF" points="44.0838166 112.49973 43.5238166 111.94973 130.974817 24.3387298 131.534817 24.8877298"/><polygon id="Fill-228" fill="#FFF" points="41.3473166 109.86413 40.7923166 109.30913 129.034317 22.4821298 129.589317 23.0361298"/><polygon id="Fill-230" fill="#FFF" points="47.9084166 114.95513 47.3424166 114.41213 132.919417 25.8601298 133.485417 26.4041298"/><path d="M46.4657166,91.7451298 C49.5837166,91.9051298 54.3897166,92.4561298 56.2927166,95.3731298 C56.2927166,95.3731298 59.7727166,105.91313 61.0907166,106.93313 C62.4097166,107.95313 63.8937166,107.09613 63.3317166,104.85313 C62.7697166,102.61013 62.2237166,101.03813 62.2237166,101.03813 C62.2237166,101.03813 73.0667166,108.76413 74.8377166,102.59513 C75.8777166,98.9721298 69.7377166,95.1791298 67.5617166,87.0471298 C67.3247166,86.1631298 70.8607166,90.2701298 73.8487166,89.1171298 C76.5467166,88.0761298 75.5277166,86.3201298 74.4397166,86.0041298 C71.1087166,85.0361298 70.1497166,83.5641298 70.1497166,83.5641298 C65.8007166,79.7991298 64.6557166,79.9661298 57.7257166,79.7611298 L41.0797166,78.2221298" id="Fill-232" fill="#b67831"/><path d="M129.889217,23.0950298 L144.028217,23.6420298 C146.997217,23.8610298 149.404217,26.7860298 149.504217,29.7620298 L150.040217,46.2240298 L148.938217,48.5820298 C147.263217,52.1180298 141.431217,49.3880298 140.128217,46.7850298 C140.128217,46.7850298 139.510217,37.7710298 137.052217,36.0460298 C134.593217,34.3220298 131.137217,35.8690298 127.984217,33.2420298 C126.302217,31.8400298 125.677217,27.3300298 127.751217,26.9090298 C129.824217,26.4890298 138.578217,28.2820298 137.860217,27.0850298 C137.143217,25.8890298 130.795217,26.0510298 129.758217,24.9340298 C128.721217,23.8160298 129.889217,23.0950298 129.889217,23.0950298" id="Fill-234" fill="#b67831"/><path d="M56.2741166,18.7681298 C56.2741166,18.7681298 60.7151166,12.1111298 53.9121166,11.2071298 C17.9821166,6.43212983 -5.75988339,41.4101298 1.21711661,69.8011298 C4.16411661,81.7891298 15.5961166,94.3071298 30.2901166,96.2251298 C40.0541166,97.4991298 46.2671166,96.2861298 47.4041166,92.8741298 L49.4571166,82.1421298 C49.8071166,77.7871298 50.9471166,75.1111298 48.3041166,74.2991298 C44.0881166,73.0051298 33.4231166,73.7401298 33.2901166,64.9521298 C33.1671166,56.7361298 45.3881166,53.6331298 51.1831166,52.7991298 C66.0381166,50.6631298 58.6011166,21.2631298 56.2741166,18.7681298" id="Fill-236" fill="#443389"/><path d="M59.0648166,12.3466298 C59.0648166,12.3466298 65.3398166,30.7096298 79.7168166,38.1986298 C83.6978166,40.2726298 87.6238166,38.1416298 87.7128166,35.3016298 C87.7668166,33.5736298 88.0028166,31.4566298 87.2038166,28.8506298 L59.0648166,12.3466298 Z" id="Fill-238" fill="#FFB4EC"/><polygon id="Fill-240" fill="#443389" points="65.8385166 19.2433298 58.0495166 16.6923298 58.3595166 15.7423298 66.1495166 18.2933298"/><polygon id="Fill-242" fill="#443389" points="61.4342166 28.3033298 60.9402166 27.4333298 69.3502166 22.6593298 69.8442166 23.5303298"/><polygon id="Fill-244" fill="#443389" points="68.3971166 34.0777298 67.6201166 33.4497298 73.0381166 26.7427298 73.8151166 27.3707298"/><polygon id="Fill-246" fill="#443389" points="75.4908166 37.0343298 74.5568166 36.6783298 77.1008166 30.0173298 78.0348166 30.3743298"/><polygon id="Fill-248" fill="#443389" points="81.5084166 39.7486298 80.3924166 33.8566298 81.3744166 33.6706298 82.4904166 39.5616298"/><polygon id="Fill-250" fill="#443389" points="88.5895166 39.3243298 84.0965166 33.1813298 84.9025166 32.5903298 89.3965166 38.7333298"/><polygon id="Fill-252" fill="#443389" points="89.3385166 33.2950298 84.1865166 29.6790298 84.7605166 28.8610298 89.9125166 32.4770298"/><path d="M64.0827166,15.2879298 C64.0827166,15.2879298 68.1577166,26.8459298 78.6947166,33.6499298 C83.7067166,36.8859298 85.4787166,33.1269298 85.4247166,31.6909298 C85.3807166,30.5269298 85.2287166,29.1009298 84.8687166,27.4589298" id="Fill-254" fill="#8f5830"/><path d="M52.6081166,94.0602298 C52.6081166,94.0602298 57.0241166,84.0792298 56.7261166,78.7602298 C56.7261166,78.7602298 50.4761166,77.3002298 48.5671166,77.9562298 C48.5671166,77.9562298 45.2531166,91.3682298 46.1481166,92.5502298 C47.0431166,93.7322298 51.9091166,94.5932298 52.6081166,94.0602298" id="Fill-256" fill="#FFB4EC"/></g></g></g></g></g><g id="Musical Notes" transform="translate(500.000000, 125.000000) scale(1 1)"><g id="Musical Notes/None" stroke="none" stroke-width="1" fill="none" fill-rule="evenodd" fill-opacity="0"/></g></g></svg>